G04*
G04 #@! TF.GenerationSoftware,Altium Limited,Altium Designer,22.11.1 (43)*
G04*
G04 Layer_Physical_Order=4*
G04 Layer_Color=16711680*
%FSLAX44Y44*%
%MOMM*%
G71*
G04*
G04 #@! TF.SameCoordinates,20673E26-6E33-4D48-81B3-02EF57FC02C5*
G04*
G04*
G04 #@! TF.FilePolarity,Positive*
G04*
G01*
G75*
%ADD15C,0.2540*%
%ADD94C,0.2032*%
%ADD95C,0.5080*%
%ADD98R,1.5300X1.5300*%
%ADD99C,1.5300*%
%ADD100C,3.0000*%
%ADD101R,1.5000X1.5000*%
%ADD102C,1.5000*%
%ADD103C,1.5080*%
%ADD104R,1.5080X1.5080*%
%ADD105C,0.6096*%
%ADD106C,0.2540*%
%ADD107C,0.5080*%
G36*
X608410Y237131D02*
X15541D01*
X15541Y1015572D01*
X608410D01*
X608410Y237131D01*
D02*
G37*
%LPC*%
G36*
X242656Y1005397D02*
X240674Y1005003D01*
X238993Y1003879D01*
X237869Y1002198D01*
X237475Y1000215D01*
Y991315D01*
X237869Y989333D01*
X238993Y987652D01*
X240674Y986528D01*
X242656Y986134D01*
X244639Y986528D01*
X246320Y987652D01*
X247444Y989333D01*
X247838Y991315D01*
Y1000215D01*
X247444Y1002198D01*
X246320Y1003879D01*
X244639Y1005003D01*
X242656Y1005397D01*
D02*
G37*
G36*
X355056Y1005395D02*
X353074Y1005001D01*
X351393Y1003877D01*
X350269Y1002196D01*
X349875Y1000213D01*
Y991313D01*
X350269Y989331D01*
X351393Y987650D01*
X353074Y986526D01*
X355056Y986132D01*
X357039Y986526D01*
X358720Y987650D01*
X359843Y989331D01*
X360238Y991313D01*
Y1000213D01*
X359843Y1002196D01*
X358720Y1003877D01*
X357039Y1005001D01*
X355056Y1005395D01*
D02*
G37*
G36*
X119427Y987942D02*
X100283D01*
Y968798D01*
X119427D01*
Y987942D01*
D02*
G37*
G36*
X242656Y964397D02*
X240674Y964003D01*
X238994Y962880D01*
X237871Y961199D01*
X237477Y959217D01*
Y952313D01*
X237871Y950331D01*
X238994Y948651D01*
X240674Y947528D01*
X242656Y947134D01*
X244639Y947528D01*
X246319Y948651D01*
X247442Y950331D01*
X247836Y952313D01*
Y959217D01*
X247442Y961199D01*
X246319Y962880D01*
X244639Y964003D01*
X242656Y964397D01*
D02*
G37*
G36*
X355056Y964395D02*
X353074Y964001D01*
X351394Y962878D01*
X350271Y961198D01*
X349877Y959215D01*
Y952311D01*
X350271Y950329D01*
X351394Y948649D01*
X353074Y947526D01*
X355056Y947132D01*
X357038Y947526D01*
X358719Y948649D01*
X359842Y950329D01*
X360236Y952311D01*
Y959215D01*
X359842Y961198D01*
X358719Y962878D01*
X357038Y964001D01*
X355056Y964395D01*
D02*
G37*
G36*
X519928Y964307D02*
X517408D01*
X514973Y963655D01*
X512791Y962395D01*
X511008Y960612D01*
X509748Y958430D01*
X509096Y955995D01*
Y953475D01*
X509748Y951040D01*
X511008Y948858D01*
X512791Y947076D01*
X514973Y945816D01*
X517408Y945163D01*
X519928D01*
X522363Y945816D01*
X524545Y947076D01*
X526328Y948858D01*
X527588Y951040D01*
X528240Y953475D01*
Y955995D01*
X527588Y958430D01*
X526328Y960612D01*
X524545Y962395D01*
X522363Y963655D01*
X519928Y964307D01*
D02*
G37*
G36*
X111115Y962942D02*
X108595D01*
X106160Y962290D01*
X103978Y961030D01*
X102196Y959247D01*
X100935Y957065D01*
X100283Y954630D01*
Y952110D01*
X100935Y949675D01*
X102196Y947493D01*
X103978Y945711D01*
X106160Y944450D01*
X108595Y943798D01*
X111115D01*
X113550Y944450D01*
X115732Y945711D01*
X117514Y947493D01*
X118775Y949675D01*
X119427Y952110D01*
Y954630D01*
X118775Y957065D01*
X117514Y959247D01*
X115732Y961030D01*
X113550Y962290D01*
X111115Y962942D01*
D02*
G37*
G36*
X519928Y939307D02*
X517408D01*
X514973Y938655D01*
X512791Y937395D01*
X511008Y935612D01*
X509748Y933430D01*
X509096Y930995D01*
Y928475D01*
X509748Y926040D01*
X511008Y923858D01*
X512791Y922076D01*
X514973Y920816D01*
X517408Y920163D01*
X519928D01*
X522363Y920816D01*
X524545Y922076D01*
X526328Y923858D01*
X527588Y926040D01*
X528240Y928475D01*
Y930995D01*
X527588Y933430D01*
X526328Y935612D01*
X524545Y937395D01*
X522363Y938655D01*
X519928Y939307D01*
D02*
G37*
G36*
X111115Y937942D02*
X108595D01*
X106160Y937290D01*
X103978Y936030D01*
X102196Y934247D01*
X100935Y932065D01*
X100283Y929630D01*
Y927110D01*
X100935Y924675D01*
X102196Y922493D01*
X103978Y920711D01*
X106160Y919450D01*
X108595Y918798D01*
X111115D01*
X113550Y919450D01*
X115732Y920711D01*
X117514Y922493D01*
X118775Y924675D01*
X119427Y927110D01*
Y929630D01*
X118775Y932065D01*
X117514Y934247D01*
X115732Y936030D01*
X113550Y937290D01*
X111115Y937942D01*
D02*
G37*
G36*
X528240Y914307D02*
X509096D01*
Y895163D01*
X528240D01*
Y914307D01*
D02*
G37*
G36*
X377515Y903961D02*
X375696D01*
X374016Y903264D01*
X372730Y901978D01*
X372034Y900298D01*
Y898479D01*
X372730Y896799D01*
X374016Y895513D01*
X375696Y894817D01*
X377515D01*
X379196Y895513D01*
X380482Y896799D01*
X381178Y898479D01*
Y900298D01*
X380482Y901978D01*
X379196Y903264D01*
X377515Y903961D01*
D02*
G37*
G36*
X363804Y936765D02*
X363354Y936676D01*
X362895D01*
X362471Y936500D01*
X362020Y936411D01*
X361638Y936155D01*
X361214Y935980D01*
X360890Y935655D01*
X360508Y935400D01*
X350069Y924961D01*
X349058Y923448D01*
X348703Y921664D01*
Y871161D01*
X347433Y870635D01*
X317442Y900626D01*
X316350Y901356D01*
X315062Y901612D01*
X306070D01*
X305745Y901548D01*
X305413D01*
X305107Y901421D01*
X304782Y901356D01*
X304506Y901172D01*
X304200Y901045D01*
X303965Y900810D01*
X303689Y900626D01*
X303505Y900350D01*
X303271Y900116D01*
X303144Y899810D01*
X302960Y899534D01*
X302895Y899209D01*
X302768Y898902D01*
Y898571D01*
X302703Y898246D01*
X302768Y897920D01*
Y897589D01*
X302895Y897282D01*
X302960Y896957D01*
X303144Y896682D01*
X303271Y896375D01*
X303505Y896141D01*
X303689Y895865D01*
X303965Y895681D01*
X304200Y895446D01*
X304506Y895319D01*
X304782Y895135D01*
X305107Y895070D01*
X305413Y894944D01*
X305745D01*
X306070Y894879D01*
X313667D01*
X343694Y864852D01*
X343970Y864667D01*
X344205Y864433D01*
X344511Y864306D01*
X344787Y864122D01*
X345112Y864057D01*
X345418Y863930D01*
X345750D01*
X346075Y863866D01*
X346400Y863930D01*
X346732D01*
X347038Y864057D01*
X347363Y864122D01*
X347639Y864306D01*
X347844Y864391D01*
X347998Y864428D01*
X348887Y864353D01*
X349288Y864174D01*
X349408Y864077D01*
X349489Y863880D01*
X349813Y863556D01*
X350069Y863174D01*
X349660Y861943D01*
X349504Y861739D01*
X288468D01*
X256680Y893527D01*
Y895909D01*
X256591Y896359D01*
Y896818D01*
X256415Y897242D01*
X256325Y897693D01*
X256070Y898074D01*
X255895Y898499D01*
X255570Y898823D01*
X255315Y899205D01*
X254933Y899460D01*
X254609Y899785D01*
X254184Y899960D01*
X253803Y900216D01*
X253352Y900305D01*
X252928Y900481D01*
X252469D01*
X252019Y900570D01*
X251569Y900481D01*
X251109D01*
X250685Y900305D01*
X250235Y900216D01*
X249853Y899960D01*
X249429Y899785D01*
X249104Y899460D01*
X248723Y899205D01*
X248468Y898823D01*
X248143Y898499D01*
X247967Y898074D01*
X247712Y897693D01*
X247623Y897242D01*
X247447Y896818D01*
Y896359D01*
X247357Y895909D01*
Y891596D01*
X247712Y889812D01*
X248723Y888300D01*
X283241Y853781D01*
X284753Y852771D01*
X286537Y852416D01*
X355469D01*
X357253Y852771D01*
X358765Y853781D01*
X367202Y862218D01*
X368213Y863730D01*
X368567Y865514D01*
Y891311D01*
X368478Y891762D01*
Y892221D01*
X368302Y892645D01*
X368213Y893095D01*
X367957Y893477D01*
X367782Y893901D01*
X367457Y894226D01*
X367202Y894608D01*
X366820Y894863D01*
X366496Y895187D01*
X366071Y895363D01*
X365690Y895618D01*
X365239Y895708D01*
X364815Y895883D01*
X364356D01*
X363906Y895973D01*
X363456Y895883D01*
X362996D01*
X362572Y895708D01*
X362122Y895618D01*
X361740Y895363D01*
X361316Y895187D01*
X360991Y894863D01*
X360610Y894608D01*
X360354Y894226D01*
X360030Y893901D01*
X359854Y893477D01*
X359599Y893095D01*
X359510Y892645D01*
X359334Y892221D01*
X359296Y892205D01*
X358026Y893044D01*
Y919734D01*
X367100Y928808D01*
X367355Y929189D01*
X367680Y929514D01*
X367856Y929938D01*
X368111Y930320D01*
X368200Y930770D01*
X368376Y931194D01*
Y931654D01*
X368466Y932104D01*
X368376Y932554D01*
Y933013D01*
X368200Y933437D01*
X368111Y933888D01*
X367856Y934269D01*
X367680Y934694D01*
X367356Y935018D01*
X367100Y935400D01*
X366719Y935655D01*
X366394Y935980D01*
X365970Y936155D01*
X365588Y936411D01*
X365138Y936500D01*
X364714Y936676D01*
X364254D01*
X363804Y936765D01*
D02*
G37*
G36*
X519369Y854687D02*
X516849D01*
X514414Y854035D01*
X512232Y852775D01*
X510450Y850993D01*
X509189Y848810D01*
X508537Y846375D01*
Y843855D01*
X509189Y841421D01*
X510450Y839238D01*
X512232Y837456D01*
X514414Y836196D01*
X516849Y835543D01*
X519369D01*
X521804Y836196D01*
X523987Y837456D01*
X525769Y839238D01*
X527029Y841421D01*
X527681Y843855D01*
Y846375D01*
X527029Y848810D01*
X525769Y850993D01*
X523987Y852775D01*
X521804Y854035D01*
X519369Y854687D01*
D02*
G37*
G36*
X469818Y842234D02*
X469368Y842145D01*
X468909D01*
X468484Y841969D01*
X468034Y841879D01*
X467652Y841624D01*
X467228Y841449D01*
X466903Y841124D01*
X466522Y840869D01*
X465924Y840271D01*
X374066D01*
X373616Y840181D01*
X373156D01*
X372732Y840005D01*
X372282Y839916D01*
X371900Y839661D01*
X371476Y839485D01*
X371151Y839161D01*
X370770Y838905D01*
X370514Y838524D01*
X370190Y838199D01*
X370014Y837775D01*
X369759Y837393D01*
X369669Y836943D01*
X369494Y836519D01*
Y836059D01*
X369404Y835609D01*
X369494Y835159D01*
Y834700D01*
X369669Y834276D01*
X369759Y833825D01*
X370014Y833444D01*
X370190Y833019D01*
X370514Y832695D01*
X370770Y832313D01*
X371151Y832058D01*
X371476Y831733D01*
X371900Y831557D01*
X372282Y831302D01*
X372732Y831213D01*
X373156Y831037D01*
X373616D01*
X374066Y830948D01*
X467854D01*
X469638Y831302D01*
X471151Y832313D01*
X473114Y834276D01*
X473369Y834658D01*
X473694Y834983D01*
X473870Y835407D01*
X474125Y835789D01*
X474214Y836239D01*
X474390Y836663D01*
Y837122D01*
X474479Y837573D01*
X474390Y838023D01*
Y838482D01*
X474214Y838906D01*
X474125Y839357D01*
X473870Y839738D01*
X473694Y840163D01*
X473369Y840487D01*
X473114Y840869D01*
X472732Y841124D01*
X472408Y841449D01*
X471984Y841624D01*
X471602Y841879D01*
X471152Y841969D01*
X470727Y842145D01*
X470268D01*
X469818Y842234D01*
D02*
G37*
G36*
X119427Y849512D02*
X100283D01*
Y830368D01*
X119427D01*
Y849512D01*
D02*
G37*
G36*
X393294Y860236D02*
X374472D01*
X373184Y859979D01*
X372092Y859250D01*
X360357Y847515D01*
X359627Y846423D01*
X359371Y845134D01*
Y830555D01*
X359627Y829266D01*
X360357Y828174D01*
X371990Y816541D01*
X373082Y815811D01*
X374371Y815555D01*
X393217D01*
X393543Y815619D01*
X393874D01*
X394181Y815746D01*
X394506Y815811D01*
X394781Y815995D01*
X395088Y816122D01*
X395322Y816357D01*
X395598Y816541D01*
X395782Y816816D01*
X396017Y817051D01*
X396144Y817357D01*
X396328Y817633D01*
X396393Y817958D01*
X396519Y818265D01*
Y818596D01*
X396584Y818921D01*
X396519Y819247D01*
Y819578D01*
X396393Y819885D01*
X396328Y820210D01*
X396144Y820486D01*
X396017Y820792D01*
X395782Y821026D01*
X395598Y821302D01*
X395322Y821486D01*
X395088Y821721D01*
X394781Y821848D01*
X394506Y822032D01*
X394181Y822096D01*
X393874Y822223D01*
X393543D01*
X393217Y822288D01*
X375765D01*
X366104Y831949D01*
Y843740D01*
X375867Y853502D01*
X393294D01*
X393619Y853567D01*
X393950D01*
X394257Y853694D01*
X394582Y853759D01*
X394858Y853943D01*
X395164Y854070D01*
X395398Y854304D01*
X395674Y854488D01*
X395858Y854764D01*
X396093Y854999D01*
X396220Y855305D01*
X396404Y855581D01*
X396469Y855906D01*
X396596Y856212D01*
Y856544D01*
X396660Y856869D01*
X396596Y857194D01*
Y857526D01*
X396469Y857832D01*
X396404Y858157D01*
X396220Y858433D01*
X396093Y858739D01*
X395858Y858974D01*
X395674Y859250D01*
X395398Y859434D01*
X395164Y859668D01*
X394858Y859795D01*
X394582Y859979D01*
X394257Y860044D01*
X393950Y860171D01*
X393619D01*
X393294Y860236D01*
D02*
G37*
G36*
X527681Y829687D02*
X508537D01*
Y810543D01*
X527681D01*
Y829687D01*
D02*
G37*
G36*
X111115Y824512D02*
X108595D01*
X106160Y823860D01*
X103978Y822599D01*
X102196Y820817D01*
X100935Y818635D01*
X100283Y816200D01*
Y813680D01*
X100935Y811245D01*
X102196Y809063D01*
X103978Y807281D01*
X106160Y806020D01*
X108595Y805368D01*
X111115D01*
X113550Y806020D01*
X115732Y807281D01*
X117514Y809063D01*
X118775Y811245D01*
X119427Y813680D01*
Y816200D01*
X118775Y818635D01*
X117514Y820817D01*
X115732Y822599D01*
X113550Y823860D01*
X111115Y824512D01*
D02*
G37*
G36*
X294488Y832321D02*
X294162Y832256D01*
X293831D01*
X293524Y832130D01*
X293199Y832065D01*
X292924Y831881D01*
X292617Y831754D01*
X292383Y831519D01*
X292107Y831335D01*
X260924Y800152D01*
X259741Y800712D01*
X259867Y801018D01*
Y801350D01*
X259932Y801675D01*
X259867Y802000D01*
Y802332D01*
X259741Y802638D01*
X259676Y802963D01*
X259492Y803239D01*
X259365Y803545D01*
X259130Y803780D01*
X258946Y804055D01*
X258670Y804240D01*
X258436Y804474D01*
X258130Y804601D01*
X257854Y804785D01*
X257529Y804850D01*
X257222Y804977D01*
X256891D01*
X256565Y805042D01*
X244983D01*
X243695Y804785D01*
X242602Y804055D01*
X141358Y702811D01*
X140628Y701719D01*
X140372Y700430D01*
Y574688D01*
X140359Y574654D01*
X139875Y573969D01*
X139102Y573645D01*
X138963Y573673D01*
X115999D01*
X103346Y586327D01*
X103346Y586327D01*
X96610Y593062D01*
Y683504D01*
X105044Y691938D01*
X119427D01*
Y711082D01*
X100283D01*
Y696699D01*
X90863Y687279D01*
X90133Y686187D01*
X89877Y684898D01*
Y591668D01*
X90133Y590379D01*
X90863Y589287D01*
X98584Y581565D01*
X98584Y581565D01*
X112224Y567926D01*
X113316Y567196D01*
X114605Y566940D01*
X138963D01*
X139102Y566967D01*
X139875Y566644D01*
X140359Y565959D01*
X140372Y565925D01*
Y480971D01*
X135690Y476289D01*
X135424Y476111D01*
X135117Y475985D01*
X134883Y475750D01*
X134607Y475566D01*
X134423Y475290D01*
X134188Y475056D01*
X134062Y474749D01*
X133877Y474474D01*
X133813Y474148D01*
X133686Y473842D01*
Y473511D01*
X133621Y473185D01*
X133686Y472860D01*
Y472528D01*
X133813Y472222D01*
X133877Y471897D01*
X134062Y471621D01*
X134188Y471315D01*
X134423Y471080D01*
X134607Y470805D01*
X134883Y470620D01*
X135117Y470386D01*
X135424Y470259D01*
X135699Y470075D01*
X136025Y470010D01*
X136331Y469883D01*
X136663D01*
X136988Y469819D01*
X137347D01*
X138636Y470075D01*
X139728Y470805D01*
X146119Y477196D01*
X146849Y478288D01*
X147105Y479577D01*
Y699036D01*
X246378Y798308D01*
X256565D01*
X256891Y798373D01*
X257222D01*
X257529Y798500D01*
X258088Y797316D01*
X247971Y787199D01*
X238596D01*
X237307Y786943D01*
X236215Y786213D01*
X150045Y700042D01*
X149315Y698950D01*
X149059Y697662D01*
Y523824D01*
X149315Y522536D01*
X150045Y521444D01*
X154109Y517380D01*
X154384Y517195D01*
X154619Y516961D01*
X154925Y516834D01*
X155201Y516650D01*
X155526Y516585D01*
X155833Y516458D01*
X156164D01*
X156489Y516394D01*
X156815Y516458D01*
X157146D01*
X157453Y516585D01*
X157778Y516650D01*
X158053Y516834D01*
X158360Y516961D01*
X158594Y517195D01*
X158870Y517380D01*
X159054Y517655D01*
X159289Y517890D01*
X159416Y518196D01*
X159600Y518472D01*
X159664Y518797D01*
X159791Y519103D01*
Y519435D01*
X159856Y519760D01*
X159791Y520085D01*
Y520417D01*
X159664Y520723D01*
X159600Y521049D01*
X159416Y521324D01*
X159289Y521631D01*
X159054Y521865D01*
X158870Y522141D01*
X155792Y525219D01*
Y696267D01*
X239990Y780465D01*
X249365D01*
X250654Y780722D01*
X251746Y781451D01*
X296868Y826574D01*
X297052Y826850D01*
X297287Y827084D01*
X297414Y827390D01*
X297598Y827666D01*
X297663Y827991D01*
X297790Y828298D01*
Y828629D01*
X297854Y828954D01*
X297790Y829280D01*
Y829611D01*
X297663Y829918D01*
X297598Y830243D01*
X297414Y830518D01*
X297287Y830825D01*
X297052Y831059D01*
X296868Y831335D01*
X296593Y831519D01*
X296358Y831754D01*
X296052Y831881D01*
X295776Y832065D01*
X295451Y832130D01*
X295144Y832256D01*
X294813D01*
X294488Y832321D01*
D02*
G37*
G36*
X111115Y799512D02*
X108595D01*
X106160Y798860D01*
X103978Y797599D01*
X102196Y795817D01*
X100935Y793635D01*
X100283Y791200D01*
Y788680D01*
X100935Y786245D01*
X102196Y784063D01*
X103978Y782281D01*
X106160Y781020D01*
X108595Y780368D01*
X111115D01*
X113550Y781020D01*
X115732Y782281D01*
X117514Y784063D01*
X118775Y786245D01*
X119427Y788680D01*
Y791200D01*
X118775Y793635D01*
X117514Y795817D01*
X115732Y797599D01*
X113550Y798860D01*
X111115Y799512D01*
D02*
G37*
G36*
X569033Y740073D02*
X567313D01*
X565651Y739628D01*
X564162Y738767D01*
X562946Y737551D01*
X562086Y736062D01*
X561641Y734400D01*
Y732681D01*
X562086Y731019D01*
X562946Y729530D01*
X564162Y728314D01*
X565651Y727454D01*
X567313Y727009D01*
X569033D01*
X570694Y727454D01*
X572183Y728314D01*
X573400Y729530D01*
X574259Y731019D01*
X574705Y732681D01*
Y734400D01*
X574259Y736062D01*
X573400Y737551D01*
X572183Y738767D01*
X570694Y739628D01*
X569033Y740073D01*
D02*
G37*
G36*
Y710073D02*
X567313D01*
X565651Y709628D01*
X564162Y708767D01*
X562946Y707551D01*
X562086Y706062D01*
X561641Y704400D01*
Y702681D01*
X562086Y701019D01*
X562946Y699530D01*
X564162Y698314D01*
X565651Y697454D01*
X567313Y697009D01*
X569033D01*
X570694Y697454D01*
X572183Y698314D01*
X573400Y699530D01*
X574259Y701019D01*
X574705Y702681D01*
Y704400D01*
X574259Y706062D01*
X573400Y707551D01*
X572183Y708767D01*
X570694Y709628D01*
X569033Y710073D01*
D02*
G37*
G36*
X337337Y692596D02*
X337012Y692531D01*
X336681D01*
X336374Y692404D01*
X336049Y692339D01*
X335773Y692155D01*
X335467Y692028D01*
X335233Y691794D01*
X334957Y691610D01*
X334773Y691334D01*
X334538Y691099D01*
X334411Y690793D01*
X334227Y690517D01*
X334162Y690192D01*
X334035Y689886D01*
Y689554D01*
X333971Y689229D01*
Y687623D01*
X333273Y686525D01*
X332948Y686460D01*
X332617D01*
X332310Y686333D01*
X331985Y686269D01*
X331709Y686085D01*
X331403Y685958D01*
X331169Y685723D01*
X330893Y685539D01*
X330709Y685263D01*
X330474Y685029D01*
X330103Y684987D01*
X328868Y686001D01*
Y688086D01*
X328611Y689374D01*
X327882Y690467D01*
X326800Y691548D01*
X326525Y691732D01*
X326290Y691967D01*
X325984Y692094D01*
X325708Y692278D01*
X325383Y692343D01*
X325076Y692469D01*
X324745D01*
X324420Y692534D01*
X324094Y692469D01*
X323763D01*
X323456Y692343D01*
X323131Y692278D01*
X322856Y692094D01*
X322549Y691967D01*
X322315Y691732D01*
X322039Y691548D01*
X321855Y691272D01*
X321620Y691038D01*
X321493Y690731D01*
X321309Y690456D01*
X321245Y690131D01*
X321118Y689824D01*
Y689493D01*
X321053Y689167D01*
X321118Y688842D01*
Y688511D01*
X321245Y688204D01*
X321309Y687879D01*
X321493Y687603D01*
X321620Y687297D01*
X321855Y687063D01*
X322039Y686787D01*
X322134Y686692D01*
Y566471D01*
X322391Y565182D01*
X323120Y564090D01*
X436963Y450247D01*
X437239Y450063D01*
X437473Y449829D01*
X437780Y449702D01*
X438055Y449518D01*
X438381Y449453D01*
X438687Y449326D01*
X439019D01*
X439344Y449261D01*
X439669Y449326D01*
X440001D01*
X440307Y449453D01*
X440473Y449486D01*
X440908Y449350D01*
X441503Y448986D01*
X441743Y448698D01*
Y433398D01*
X436455Y428110D01*
X436271Y427834D01*
X436036Y427600D01*
X435910Y427293D01*
X435725Y427018D01*
X435661Y426693D01*
X435534Y426386D01*
Y426055D01*
X435469Y425729D01*
X435534Y425404D01*
Y425073D01*
X435661Y424766D01*
X435725Y424441D01*
X435910Y424165D01*
X436036Y423859D01*
X436271Y423624D01*
X436455Y423349D01*
X436731Y423165D01*
X436965Y422930D01*
X437272Y422803D01*
X437547Y422619D01*
X437873Y422554D01*
X438179Y422427D01*
X438511D01*
X438836Y422363D01*
X439161Y422427D01*
X439493D01*
X439799Y422554D01*
X440124Y422619D01*
X440400Y422803D01*
X440706Y422930D01*
X440941Y423165D01*
X441216Y423349D01*
X445319Y427452D01*
X446493Y426966D01*
Y410131D01*
X439249Y402888D01*
X439065Y402612D01*
X438830Y402378D01*
X438704Y402071D01*
X438519Y401796D01*
X438455Y401470D01*
X438328Y401164D01*
Y400832D01*
X438263Y400507D01*
X438328Y400182D01*
Y399850D01*
X438455Y399544D01*
X438519Y399219D01*
X438704Y398943D01*
X438830Y398637D01*
X439065Y398402D01*
X439249Y398127D01*
X439525Y397942D01*
X439759Y397708D01*
X440066Y397581D01*
X440341Y397397D01*
X440667Y397332D01*
X440973Y397205D01*
X441305D01*
X441630Y397141D01*
X441955Y397205D01*
X442287D01*
X442593Y397332D01*
X442918Y397397D01*
X443194Y397581D01*
X443500Y397708D01*
X443735Y397942D01*
X444010Y398127D01*
X452240Y406356D01*
X452970Y407448D01*
X453226Y408737D01*
Y464053D01*
X452970Y465341D01*
X452240Y466433D01*
X436311Y482362D01*
X436797Y483535D01*
X450347D01*
Y502899D01*
X430983D01*
Y489350D01*
X429809Y488864D01*
X340704Y577969D01*
Y689229D01*
X340639Y689554D01*
Y689886D01*
X340513Y690192D01*
X340448Y690517D01*
X340264Y690793D01*
X340137Y691099D01*
X339902Y691334D01*
X339718Y691610D01*
X339442Y691794D01*
X339208Y692028D01*
X338901Y692155D01*
X338626Y692339D01*
X338301Y692404D01*
X337994Y692531D01*
X337663D01*
X337337Y692596D01*
D02*
G37*
G36*
X111115Y686082D02*
X108595D01*
X106160Y685430D01*
X103978Y684169D01*
X102196Y682387D01*
X100935Y680205D01*
X100283Y677770D01*
Y675250D01*
X100935Y672815D01*
X102196Y670633D01*
X103978Y668850D01*
X106160Y667590D01*
X108595Y666938D01*
X111115D01*
X113550Y667590D01*
X115732Y668850D01*
X117514Y670633D01*
X118775Y672815D01*
X119427Y675250D01*
Y677770D01*
X118775Y680205D01*
X117514Y682387D01*
X115732Y684169D01*
X113550Y685430D01*
X111115Y686082D01*
D02*
G37*
G36*
Y661082D02*
X108595D01*
X106160Y660430D01*
X103978Y659169D01*
X102196Y657387D01*
X100935Y655205D01*
X100283Y652770D01*
Y650250D01*
X100935Y647815D01*
X102196Y645633D01*
X103978Y643850D01*
X106160Y642590D01*
X108595Y641938D01*
X111115D01*
X113550Y642590D01*
X115732Y643850D01*
X117514Y645633D01*
X118775Y647815D01*
X119427Y650250D01*
Y652770D01*
X118775Y655205D01*
X117514Y657387D01*
X115732Y659169D01*
X113550Y660430D01*
X111115Y661082D01*
D02*
G37*
G36*
X264185Y770193D02*
X251282D01*
X249994Y769936D01*
X248902Y769207D01*
X248089Y768394D01*
X247905Y768118D01*
X247670Y767884D01*
X247543Y767577D01*
X247359Y767302D01*
X247294Y766976D01*
X247167Y766670D01*
Y766338D01*
X247103Y766013D01*
X247167Y765688D01*
Y765356D01*
X247294Y765050D01*
X247359Y764725D01*
X247543Y764449D01*
X247670Y764143D01*
X247905Y763908D01*
X248089Y763633D01*
X248365Y763448D01*
X248599Y763214D01*
X248985Y762795D01*
X249218Y762235D01*
X249250Y761666D01*
Y761335D01*
X249186Y761009D01*
X249250Y760684D01*
Y760353D01*
X249377Y760046D01*
X249442Y759721D01*
X249626Y759445D01*
X249753Y759139D01*
X249987Y758904D01*
X250049Y758813D01*
X249568Y757952D01*
X249364Y757725D01*
X249324Y757733D01*
X249018Y757860D01*
X248686D01*
X248361Y757924D01*
X248036Y757860D01*
X247704D01*
X247398Y757733D01*
X247073Y757668D01*
X246797Y757484D01*
X246491Y757357D01*
X246256Y757123D01*
X245981Y756938D01*
X245796Y756663D01*
X245562Y756428D01*
X245435Y756122D01*
X245251Y755846D01*
X245186Y755521D01*
X245059Y755215D01*
Y754883D01*
X244995Y754558D01*
Y731721D01*
X236710Y723436D01*
X236525Y723160D01*
X236291Y722926D01*
X236164Y722619D01*
X235980Y722344D01*
X235915Y722018D01*
X235788Y721712D01*
Y721380D01*
X235723Y721055D01*
X235788Y720730D01*
Y720398D01*
X235915Y720092D01*
X235980Y719767D01*
X236164Y719491D01*
X236291Y719185D01*
X236525Y718950D01*
X236710Y718675D01*
X267571Y687814D01*
X268663Y687084D01*
X269951Y686827D01*
X278689D01*
X279014Y686892D01*
X279346D01*
X279652Y687019D01*
X279977Y687084D01*
X280021Y687113D01*
X280756Y686880D01*
X281220Y686523D01*
X281291Y686428D01*
Y652727D01*
X226804Y598239D01*
X226619Y597963D01*
X226385Y597729D01*
X226258Y597423D01*
X226074Y597147D01*
X226009Y596822D01*
X225882Y596515D01*
Y596184D01*
X225818Y595859D01*
X225882Y595533D01*
Y595202D01*
X226009Y594895D01*
X226074Y594570D01*
X226258Y594295D01*
X226385Y593988D01*
X226619Y593754D01*
X226804Y593478D01*
X227079Y593294D01*
X227314Y593059D01*
X227620Y592932D01*
X227896Y592748D01*
X228221Y592683D01*
X228527Y592557D01*
X228859D01*
X229184Y592492D01*
X229509Y592557D01*
X229841D01*
X230147Y592683D01*
X230473Y592748D01*
X230748Y592932D01*
X231055Y593059D01*
X231289Y593294D01*
X231565Y593478D01*
X284690Y646603D01*
X285863Y646117D01*
Y618186D01*
X268890Y601213D01*
X268706Y600937D01*
X268471Y600703D01*
X268344Y600396D01*
X268160Y600120D01*
X268095Y599795D01*
X267968Y599489D01*
Y599157D01*
X267904Y598832D01*
X267968Y598507D01*
Y598175D01*
X268095Y597869D01*
X268160Y597544D01*
X268344Y597268D01*
X268471Y596962D01*
X268706Y596727D01*
X268890Y596451D01*
X269165Y596267D01*
X269400Y596033D01*
X269706Y595906D01*
X269982Y595722D01*
X270307Y595657D01*
X270613Y595530D01*
X270945D01*
X271270Y595465D01*
X271595Y595530D01*
X271927D01*
X272234Y595657D01*
X272559Y595722D01*
X272834Y595906D01*
X273141Y596033D01*
X273375Y596267D01*
X273651Y596451D01*
X291610Y614411D01*
X292340Y615503D01*
X292596Y616792D01*
Y726618D01*
X292340Y727906D01*
X291610Y728998D01*
X258419Y762189D01*
X258946Y763459D01*
X262791D01*
X311822Y714428D01*
Y596392D01*
X311887Y596067D01*
Y595735D01*
X312013Y595429D01*
X312078Y595104D01*
X312262Y594828D01*
X312389Y594522D01*
X312624Y594287D01*
X312808Y594011D01*
X313084Y593827D01*
X313318Y593593D01*
X313624Y593466D01*
X313900Y593282D01*
X314225Y593217D01*
X314532Y593090D01*
X314863D01*
X315189Y593025D01*
X315514Y593090D01*
X315845D01*
X316152Y593217D01*
X316477Y593282D01*
X316753Y593466D01*
X317059Y593593D01*
X317293Y593827D01*
X317569Y594011D01*
X317753Y594287D01*
X317988Y594522D01*
X318115Y594828D01*
X318299Y595104D01*
X318364Y595429D01*
X318491Y595735D01*
Y596067D01*
X318555Y596392D01*
Y715823D01*
X318299Y717111D01*
X317569Y718203D01*
X266566Y769207D01*
X265474Y769936D01*
X264185Y770193D01*
D02*
G37*
G36*
X467339Y585449D02*
X464790D01*
X462327Y584789D01*
X460120Y583515D01*
X458317Y581712D01*
X457042Y579504D01*
X456383Y577042D01*
Y574493D01*
X457042Y572030D01*
X458317Y569822D01*
X460120Y568020D01*
X462327Y566745D01*
X464790Y566085D01*
X467339D01*
X469802Y566745D01*
X472010Y568020D01*
X473812Y569822D01*
X475087Y572030D01*
X475747Y574493D01*
Y577042D01*
X475087Y579504D01*
X473812Y581712D01*
X472010Y583515D01*
X469802Y584789D01*
X467339Y585449D01*
D02*
G37*
G36*
X450347D02*
X430983D01*
Y566085D01*
X450347D01*
Y585449D01*
D02*
G37*
G36*
X467339Y557509D02*
X464790D01*
X462327Y556849D01*
X460120Y555575D01*
X458317Y553772D01*
X457042Y551564D01*
X456383Y549102D01*
Y546553D01*
X457042Y544090D01*
X458317Y541882D01*
X460120Y540080D01*
X462327Y538805D01*
X464790Y538145D01*
X467339D01*
X469802Y538805D01*
X472010Y540080D01*
X473812Y541882D01*
X475087Y544090D01*
X475747Y546553D01*
Y549102D01*
X475087Y551564D01*
X473812Y553772D01*
X472010Y555575D01*
X469802Y556849D01*
X467339Y557509D01*
D02*
G37*
G36*
X450347D02*
X430983D01*
Y538145D01*
X450347D01*
Y557509D01*
D02*
G37*
G36*
X112380Y536582D02*
X109870D01*
X107446Y535932D01*
X105272Y534678D01*
X103497Y532903D01*
X102243Y530729D01*
X101593Y528305D01*
Y525795D01*
X102243Y523371D01*
X103497Y521197D01*
X105272Y519422D01*
X107446Y518168D01*
X109870Y517518D01*
X112380D01*
X114804Y518168D01*
X116978Y519422D01*
X118752Y521197D01*
X120007Y523371D01*
X120657Y525795D01*
Y528305D01*
X120007Y530729D01*
X118752Y532903D01*
X116978Y534678D01*
X114804Y535932D01*
X112380Y536582D01*
D02*
G37*
G36*
X467339Y530839D02*
X464790D01*
X462327Y530179D01*
X460120Y528905D01*
X458317Y527102D01*
X457042Y524894D01*
X456383Y522432D01*
Y519883D01*
X457042Y517420D01*
X458317Y515212D01*
X460120Y513410D01*
X462327Y512135D01*
X464790Y511475D01*
X467339D01*
X469802Y512135D01*
X472010Y513410D01*
X473812Y515212D01*
X475087Y517420D01*
X475747Y519883D01*
Y522432D01*
X475087Y524894D01*
X473812Y527102D01*
X472010Y528905D01*
X469802Y530179D01*
X467339Y530839D01*
D02*
G37*
G36*
X450347D02*
X430983D01*
Y511475D01*
X450347D01*
Y530839D01*
D02*
G37*
G36*
X51279Y517162D02*
X49559D01*
X47898Y516717D01*
X46408Y515857D01*
X45192Y514641D01*
X44332Y513152D01*
X43887Y511490D01*
Y509770D01*
X44332Y508109D01*
X45192Y506619D01*
X46408Y505403D01*
X47898Y504543D01*
X49559Y504098D01*
X51279D01*
X52940Y504543D01*
X54430Y505403D01*
X55646Y506619D01*
X56506Y508109D01*
X56951Y509770D01*
Y511490D01*
X56506Y513152D01*
X55646Y514641D01*
X54430Y515857D01*
X52940Y516717D01*
X51279Y517162D01*
D02*
G37*
G36*
X112380Y511182D02*
X109870D01*
X107446Y510532D01*
X105272Y509277D01*
X103497Y507503D01*
X102243Y505329D01*
X101593Y502905D01*
Y500395D01*
X102243Y497971D01*
X103497Y495797D01*
X105272Y494022D01*
X107446Y492768D01*
X109870Y492118D01*
X112380D01*
X114804Y492768D01*
X116978Y494022D01*
X118752Y495797D01*
X120007Y497971D01*
X120657Y500395D01*
Y502905D01*
X120007Y505329D01*
X118752Y507503D01*
X116978Y509277D01*
X114804Y510532D01*
X112380Y511182D01*
D02*
G37*
G36*
X467339Y502899D02*
X464790D01*
X462327Y502239D01*
X460120Y500965D01*
X458317Y499162D01*
X457042Y496954D01*
X456383Y494492D01*
Y491943D01*
X457042Y489480D01*
X458317Y487272D01*
X460120Y485470D01*
X462327Y484195D01*
X464790Y483535D01*
X467339D01*
X469802Y484195D01*
X472010Y485470D01*
X473812Y487272D01*
X475087Y489480D01*
X475747Y491943D01*
Y494492D01*
X475087Y496954D01*
X473812Y499162D01*
X472010Y500965D01*
X469802Y502239D01*
X467339Y502899D01*
D02*
G37*
G36*
X51279Y487162D02*
X49559D01*
X47898Y486717D01*
X46408Y485857D01*
X45192Y484641D01*
X44332Y483152D01*
X43887Y481490D01*
Y479770D01*
X44332Y478109D01*
X45192Y476619D01*
X46408Y475403D01*
X47898Y474543D01*
X49559Y474098D01*
X51279D01*
X52940Y474543D01*
X54430Y475403D01*
X55646Y476619D01*
X56506Y478109D01*
X56951Y479770D01*
Y481490D01*
X56506Y483152D01*
X55646Y484641D01*
X54430Y485857D01*
X52940Y486717D01*
X51279Y487162D01*
D02*
G37*
G36*
X272239Y576795D02*
X271914Y576731D01*
X271582D01*
X271276Y576604D01*
X270951Y576539D01*
X270675Y576355D01*
X270368Y576228D01*
X270134Y575994D01*
X269858Y575809D01*
X269674Y575534D01*
X269440Y575299D01*
X269313Y574993D01*
X269128Y574717D01*
X269064Y574392D01*
X268937Y574086D01*
Y573754D01*
X268872Y573429D01*
Y486231D01*
X249515Y466874D01*
X249489Y466857D01*
X249183Y466730D01*
X248949Y466496D01*
X248673Y466312D01*
X248489Y466036D01*
X248254Y465801D01*
X248127Y465495D01*
X247943Y465219D01*
X247878Y464894D01*
X247752Y464588D01*
Y464256D01*
X247687Y463931D01*
X246999Y462971D01*
X246578Y462801D01*
X222225D01*
X209925Y475101D01*
X209543Y475356D01*
X209219Y475681D01*
X208795Y475857D01*
X208413Y476112D01*
X207963Y476201D01*
X207538Y476377D01*
X207079D01*
X206629Y476466D01*
X206179Y476377D01*
X205720D01*
X205295Y476201D01*
X204845Y476112D01*
X204463Y475857D01*
X204039Y475681D01*
X203715Y475356D01*
X203333Y475101D01*
X203078Y474720D01*
X202753Y474395D01*
X202577Y473971D01*
X202322Y473589D01*
X202233Y473139D01*
X202057Y472714D01*
Y472255D01*
X201968Y471805D01*
X202057Y471355D01*
Y470896D01*
X202233Y470471D01*
X202322Y470021D01*
X202577Y469639D01*
X202753Y469215D01*
X203078Y468890D01*
X203333Y468509D01*
X216998Y454844D01*
X218510Y453833D01*
X220294Y453478D01*
X379298D01*
X381082Y453833D01*
X382594Y454844D01*
X383605Y456356D01*
X383960Y458140D01*
X383605Y459924D01*
X382594Y461436D01*
X381082Y462447D01*
X379298Y462801D01*
X256624D01*
X256138Y463975D01*
X274620Y482456D01*
X275349Y483549D01*
X275606Y484837D01*
Y573429D01*
X275541Y573754D01*
Y574086D01*
X275414Y574392D01*
X275349Y574717D01*
X275165Y574993D01*
X275038Y575299D01*
X274804Y575534D01*
X274620Y575809D01*
X274344Y575994D01*
X274109Y576228D01*
X273803Y576355D01*
X273527Y576539D01*
X273202Y576604D01*
X272896Y576731D01*
X272564D01*
X272239Y576795D01*
D02*
G37*
G36*
X112380Y460382D02*
X109870D01*
X107446Y459732D01*
X105272Y458478D01*
X103497Y456703D01*
X102243Y454529D01*
X101593Y452105D01*
Y449595D01*
X102243Y447171D01*
X103497Y444997D01*
X105272Y443223D01*
X107446Y441968D01*
X109870Y441318D01*
X112380D01*
X114804Y441968D01*
X116978Y443223D01*
X118752Y444997D01*
X120007Y447171D01*
X120657Y449595D01*
Y452105D01*
X120007Y454529D01*
X118752Y456703D01*
X116978Y458478D01*
X114804Y459732D01*
X112380Y460382D01*
D02*
G37*
G36*
X120657Y434982D02*
X101593D01*
Y415918D01*
X120657D01*
Y434982D01*
D02*
G37*
G36*
X329401Y833371D02*
X329075Y833307D01*
X328744D01*
X328437Y833180D01*
X328112Y833115D01*
X327836Y832931D01*
X327530Y832804D01*
X327296Y832569D01*
X327020Y832385D01*
X326836Y832109D01*
X326601Y831875D01*
X326474Y831569D01*
X326290Y831293D01*
X326226Y830968D01*
X326099Y830661D01*
Y830330D01*
X326034Y830005D01*
X326099Y829679D01*
Y829348D01*
X326226Y829041D01*
X326290Y828716D01*
X326474Y828440D01*
X326601Y828134D01*
X326836Y827900D01*
X327020Y827624D01*
X376990Y777653D01*
X378083Y776924D01*
X379371Y776667D01*
X384725D01*
X385211Y775494D01*
X370517Y760799D01*
X369787Y759707D01*
X369531Y758419D01*
Y613839D01*
X354718Y599027D01*
X354534Y598751D01*
X354299Y598516D01*
X354172Y598210D01*
X353988Y597934D01*
X353923Y597609D01*
X353797Y597303D01*
Y596971D01*
X353732Y596646D01*
X353797Y596321D01*
Y595989D01*
X353923Y595683D01*
X353988Y595358D01*
X354172Y595082D01*
X354299Y594776D01*
X354534Y594541D01*
X354718Y594265D01*
X354994Y594081D01*
X355228Y593847D01*
X355535Y593720D01*
X355810Y593536D01*
X356135Y593471D01*
X356442Y593344D01*
X356773D01*
X357099Y593279D01*
X357424Y593344D01*
X357755D01*
X358062Y593471D01*
X358387Y593536D01*
X358663Y593720D01*
X358969Y593847D01*
X359203Y594081D01*
X359479Y594265D01*
X375278Y610064D01*
X376008Y611156D01*
X376264Y612445D01*
Y664140D01*
X376961Y665238D01*
X377287Y665302D01*
X377618D01*
X377925Y665429D01*
X378250Y665494D01*
X378526Y665678D01*
X378832Y665805D01*
X379066Y666039D01*
X379342Y666224D01*
X379526Y666499D01*
X379761Y666734D01*
X379888Y667040D01*
X380072Y667316D01*
X380136Y667641D01*
X380263Y667947D01*
Y668279D01*
X380328Y668604D01*
Y701373D01*
X398671Y719716D01*
X398856Y719992D01*
X399090Y720226D01*
X399217Y720533D01*
X399401Y720808D01*
X399466Y721133D01*
X399593Y721440D01*
Y721771D01*
X399658Y722097D01*
X399593Y722422D01*
Y722753D01*
X399466Y723060D01*
X399401Y723385D01*
X399217Y723661D01*
X399090Y723967D01*
X398856Y724202D01*
X398671Y724477D01*
X398396Y724661D01*
X398161Y724896D01*
X397855Y725023D01*
X397579Y725207D01*
X397574Y725208D01*
X389391Y733391D01*
Y759923D01*
X390661Y760449D01*
X392117Y758992D01*
X392296Y758549D01*
X392081Y757396D01*
X391897Y757120D01*
X391663Y756885D01*
X391536Y756579D01*
X391352Y756303D01*
X391287Y755978D01*
X391160Y755672D01*
Y755340D01*
X391095Y755015D01*
X391160Y754690D01*
Y754358D01*
X391287Y754052D01*
X391352Y753727D01*
X391536Y753451D01*
X391663Y753145D01*
X391897Y752910D01*
X392081Y752634D01*
X499172Y645544D01*
Y451206D01*
X499237Y450880D01*
Y450549D01*
X499364Y450242D01*
X499429Y449917D01*
X499613Y449641D01*
X499740Y449335D01*
X499974Y449101D01*
X500158Y448825D01*
X500434Y448641D01*
X500669Y448406D01*
X500975Y448279D01*
X501251Y448095D01*
X501576Y448031D01*
X501882Y447904D01*
X502214D01*
X502539Y447839D01*
X503456Y447021D01*
X503541Y446730D01*
Y430223D01*
X501682Y428364D01*
X501498Y428088D01*
X501264Y427854D01*
X501137Y427547D01*
X500953Y427272D01*
X500888Y426947D01*
X500761Y426640D01*
Y426309D01*
X500696Y425983D01*
X500761Y425658D01*
Y425327D01*
X500888Y425020D01*
X500953Y424695D01*
X501137Y424419D01*
X501264Y424113D01*
X501498Y423879D01*
X501682Y423603D01*
X501958Y423419D01*
X502193Y423184D01*
X502499Y423057D01*
X502775Y422873D01*
X503100Y422808D01*
X503406Y422681D01*
X503738D01*
X504063Y422617D01*
X504388Y422681D01*
X504720D01*
X505026Y422808D01*
X505351Y422873D01*
X505627Y423057D01*
X505933Y423184D01*
X506168Y423419D01*
X506444Y423603D01*
X507549Y424709D01*
X508723Y424222D01*
Y422896D01*
X500158Y414332D01*
X499429Y413240D01*
X499172Y411951D01*
Y402285D01*
X499237Y401960D01*
Y401628D01*
X499364Y401322D01*
X499429Y400997D01*
X499613Y400721D01*
X499740Y400415D01*
X499974Y400180D01*
X500158Y399905D01*
X500434Y399720D01*
X500669Y399486D01*
X500975Y399359D01*
X501251Y399175D01*
X501576Y399110D01*
X501882Y398983D01*
X502214D01*
X502539Y398918D01*
X502864Y398983D01*
X503196D01*
X503502Y399110D01*
X503827Y399175D01*
X504103Y399359D01*
X504409Y399486D01*
X504644Y399720D01*
X504920Y399905D01*
X505104Y400180D01*
X505338Y400415D01*
X505465Y400721D01*
X505649Y400997D01*
X505714Y401322D01*
X505841Y401628D01*
Y401960D01*
X505906Y402285D01*
Y410557D01*
X514470Y419121D01*
X515200Y420213D01*
X515456Y421502D01*
Y660502D01*
X515200Y661790D01*
X514470Y662883D01*
X394938Y782415D01*
X393846Y783144D01*
X392557Y783401D01*
X380766D01*
X331781Y832385D01*
X331506Y832569D01*
X331271Y832804D01*
X330965Y832931D01*
X330689Y833115D01*
X330364Y833180D01*
X330057Y833307D01*
X329726D01*
X329401Y833371D01*
D02*
G37*
G36*
X100665Y377118D02*
X98116D01*
X95653Y376459D01*
X93445Y375184D01*
X91643Y373381D01*
X90368Y371174D01*
X89708Y368711D01*
Y366162D01*
X90368Y363699D01*
X91643Y361492D01*
X93445Y359689D01*
X95653Y358414D01*
X98116Y357754D01*
X100665D01*
X103127Y358414D01*
X105335Y359689D01*
X107138Y361492D01*
X108412Y363699D01*
X109072Y366162D01*
Y368711D01*
X108412Y371174D01*
X107138Y373381D01*
X105335Y375184D01*
X103127Y376459D01*
X100665Y377118D01*
D02*
G37*
G36*
X83672D02*
X64308D01*
Y357754D01*
X83672D01*
Y377118D01*
D02*
G37*
G36*
X100665Y350448D02*
X98116D01*
X95653Y349789D01*
X93445Y348514D01*
X91643Y346711D01*
X90368Y344504D01*
X89708Y342041D01*
Y339492D01*
X90368Y337029D01*
X91643Y334822D01*
X93445Y333019D01*
X95653Y331744D01*
X98116Y331084D01*
X100665D01*
X103127Y331744D01*
X105335Y333019D01*
X107138Y334822D01*
X108412Y337029D01*
X109072Y339492D01*
Y342041D01*
X108412Y344504D01*
X107138Y346711D01*
X105335Y348514D01*
X103127Y349789D01*
X100665Y350448D01*
D02*
G37*
G36*
X83672D02*
X64308D01*
Y331084D01*
X83672D01*
Y350448D01*
D02*
G37*
G36*
X190266Y341898D02*
X186912D01*
X183621Y341244D01*
X180521Y339960D01*
X177732Y338096D01*
X175359Y335723D01*
X173495Y332934D01*
X172211Y329834D01*
X171557Y326544D01*
Y323189D01*
X172211Y319898D01*
X173495Y316798D01*
X175359Y314009D01*
X177732Y311636D01*
X180521Y309772D01*
X183621Y308489D01*
X186912Y307834D01*
X190266D01*
X193557Y308489D01*
X196657Y309772D01*
X199446Y311636D01*
X201819Y314009D01*
X203683Y316798D01*
X204967Y319898D01*
X205621Y323189D01*
Y326544D01*
X204967Y329834D01*
X203683Y332934D01*
X201819Y335723D01*
X199446Y338096D01*
X196657Y339960D01*
X193557Y341244D01*
X190266Y341898D01*
D02*
G37*
G36*
X100665Y323778D02*
X98116D01*
X95653Y323119D01*
X93445Y321844D01*
X91643Y320041D01*
X90368Y317833D01*
X89708Y315371D01*
Y312822D01*
X90368Y310359D01*
X91643Y308151D01*
X93445Y306349D01*
X95653Y305074D01*
X98116Y304414D01*
X100665D01*
X103127Y305074D01*
X105335Y306349D01*
X107138Y308151D01*
X108412Y310359D01*
X109072Y312822D01*
Y315371D01*
X108412Y317833D01*
X107138Y320041D01*
X105335Y321844D01*
X103127Y323119D01*
X100665Y323778D01*
D02*
G37*
G36*
X83672D02*
X64308D01*
Y304414D01*
X83672D01*
Y323778D01*
D02*
G37*
G36*
X100665Y297108D02*
X98116D01*
X95653Y296449D01*
X93445Y295174D01*
X91643Y293371D01*
X90368Y291164D01*
X89708Y288701D01*
Y286152D01*
X90368Y283689D01*
X91643Y281481D01*
X93445Y279679D01*
X95653Y278404D01*
X98116Y277744D01*
X100665D01*
X103127Y278404D01*
X105335Y279679D01*
X107138Y281481D01*
X108412Y283689D01*
X109072Y286152D01*
Y288701D01*
X108412Y291164D01*
X107138Y293371D01*
X105335Y295174D01*
X103127Y296449D01*
X100665Y297108D01*
D02*
G37*
G36*
X83672D02*
X64308D01*
Y277744D01*
X83672D01*
Y297108D01*
D02*
G37*
%LPD*%
D15*
X502539Y411951D02*
X512089Y421502D01*
Y660502D01*
X502539Y402285D02*
Y411951D01*
X504063Y425983D02*
X506908Y428828D01*
X450177Y705904D02*
X506908Y649173D01*
Y428828D02*
Y649173D01*
X502539Y451206D02*
Y646938D01*
X394462Y755015D02*
X502539Y646938D01*
X392557Y780034D02*
X512089Y660502D01*
X152425Y523824D02*
X156489Y519760D01*
X152425Y523824D02*
Y697662D01*
X324420Y689167D02*
X325501Y688086D01*
Y566471D02*
Y688086D01*
X329565Y679348D02*
X333273Y683057D01*
X329565Y578600D02*
Y679348D01*
X333273Y683057D02*
Y683158D01*
X325501Y566471D02*
X439344Y452628D01*
X337337Y576575D02*
Y689229D01*
Y576575D02*
X449859Y464053D01*
X329565Y578600D02*
X445110Y463055D01*
X376961Y702767D02*
X396291Y722097D01*
X372897Y612445D02*
Y758419D01*
X390449Y775970D01*
X357099Y596646D02*
X372897Y612445D01*
X376961Y668604D02*
Y702767D01*
X449967Y705904D02*
X450177D01*
X392557Y763314D02*
Y763444D01*
Y763314D02*
X449967Y705904D01*
X269951Y690194D02*
X278689D01*
X239090Y721055D02*
X269951Y690194D01*
X438836Y425729D02*
X445110Y432003D01*
Y463055D01*
X449859Y408737D02*
Y464053D01*
X441630Y400507D02*
X449859Y408737D01*
X251054Y463931D02*
X251333D01*
X272239Y484837D01*
Y573429D01*
X152425Y697662D02*
X238596Y783832D01*
X244983Y801675D02*
X256565D01*
X238596Y783832D02*
X249365D01*
X143739Y700430D02*
X244983Y801675D01*
X379371Y780034D02*
X392557D01*
X329401Y830005D02*
X379371Y780034D01*
X100965Y583946D02*
X100965D01*
X114605Y570306D02*
X138963D01*
X100965Y583946D02*
X114605Y570306D01*
X93243Y591668D02*
X100965Y583946D01*
X93243Y591668D02*
Y684898D01*
X109855Y701510D01*
X239090Y721055D02*
X248361Y730326D01*
Y754558D01*
X229184Y595859D02*
X284658Y651332D01*
X254746Y755714D02*
X284658Y725802D01*
Y651332D02*
Y725802D01*
X254838Y761009D02*
X289230Y726618D01*
Y616792D02*
Y726618D01*
X271270Y598832D02*
X289230Y616792D01*
X374472Y856869D02*
X393294D01*
X362737Y845134D02*
X374472Y856869D01*
X362737Y830555D02*
Y845134D01*
Y830555D02*
X374371Y818921D01*
X393217D01*
X315062Y898246D02*
X346075Y867232D01*
X306070Y898246D02*
X315062D01*
X315189Y596392D02*
Y715823D01*
X264185Y766826D02*
X315189Y715823D01*
X143739Y479577D02*
Y700430D01*
X137347Y473185D02*
X143739Y479577D01*
X136988Y473185D02*
X137347D01*
X249365Y783832D02*
X294488Y828954D01*
X250469Y766013D02*
X251282Y766826D01*
X264185D01*
X252552Y761009D02*
X254838D01*
D94*
X444911Y761081D02*
Y762453D01*
Y761081D02*
X445008Y760984D01*
X390455Y767902D02*
X393716D01*
X414376Y747243D01*
X386283Y732104D02*
Y763731D01*
X390455Y767902D01*
X342189Y632064D02*
X344907Y629346D01*
X342189Y632064D02*
Y718109D01*
X344907Y629209D02*
Y629346D01*
X358267Y734187D02*
X367462D01*
X342189Y718109D02*
X358267Y734187D01*
X386283Y732104D02*
X396291Y722097D01*
D95*
X286537Y857077D02*
X355469D01*
X363906Y865514D01*
Y891311D01*
X252019Y891596D02*
Y895909D01*
Y891596D02*
X286537Y857077D01*
X353365Y921664D02*
X363804Y932104D01*
X353365Y866470D02*
Y921664D01*
X467854Y835609D02*
X469818Y837573D01*
X374066Y835609D02*
X467854D01*
X206629Y471805D02*
X220294Y458140D01*
X379298D01*
D98*
X440665Y547827D02*
D03*
Y521157D02*
D03*
Y493217D02*
D03*
X73990Y287426D02*
D03*
Y314096D02*
D03*
Y340766D02*
D03*
Y367436D02*
D03*
X440665Y575767D02*
D03*
D99*
X466065Y547827D02*
D03*
X491465D02*
D03*
X466065Y521157D02*
D03*
X491465D02*
D03*
X466065Y493217D02*
D03*
X491465D02*
D03*
X99390Y287426D02*
D03*
X124790D02*
D03*
X99390Y314096D02*
D03*
X124790D02*
D03*
X99390Y340766D02*
D03*
X124790D02*
D03*
X99390Y367436D02*
D03*
X124790D02*
D03*
X491465Y575767D02*
D03*
X466065D02*
D03*
D100*
X239389Y324866D02*
D03*
X188589D02*
D03*
D101*
X111125Y425450D02*
D03*
D102*
Y450850D02*
D03*
Y501650D02*
D03*
Y527050D02*
D03*
Y476250D02*
D03*
D103*
X109855Y651510D02*
D03*
Y676510D02*
D03*
Y626510D02*
D03*
X518668Y929735D02*
D03*
Y954735D02*
D03*
Y979735D02*
D03*
X518109Y845115D02*
D03*
X109855Y789940D02*
D03*
Y814940D02*
D03*
Y764940D02*
D03*
Y953370D02*
D03*
Y928370D02*
D03*
Y903370D02*
D03*
D104*
Y701510D02*
D03*
X518668Y904735D02*
D03*
X518109Y820115D02*
D03*
X109855Y839940D02*
D03*
Y978370D02*
D03*
D105*
X355056Y955763D02*
D03*
Y995763D02*
D03*
X242656Y995765D02*
D03*
Y955765D02*
D03*
D106*
X274066Y847877D02*
D03*
X206248Y843255D02*
D03*
X240157Y715162D02*
D03*
X215595Y711352D02*
D03*
X142291Y713664D02*
D03*
X420751Y643230D02*
D03*
X406832Y691794D02*
D03*
X471500Y750265D02*
D03*
X435991Y771373D02*
D03*
X445008Y760984D02*
D03*
X502539Y451206D02*
D03*
X156489Y519760D02*
D03*
X324420Y689167D02*
D03*
X333273Y683158D02*
D03*
X376961Y668604D02*
D03*
X394462Y755015D02*
D03*
X392557Y763444D02*
D03*
X414376Y747243D02*
D03*
X278689Y690194D02*
D03*
X257697Y506697D02*
D03*
X254918Y492322D02*
D03*
X258393D02*
D03*
X258161Y499452D02*
D03*
X254686D02*
D03*
X247115Y492322D02*
D03*
X254222Y506697D02*
D03*
X257581Y513537D02*
D03*
X246304D02*
D03*
X250686Y499452D02*
D03*
X250222Y506697D02*
D03*
X250107Y513537D02*
D03*
X250918Y492322D02*
D03*
X254106Y513537D02*
D03*
X246420Y506697D02*
D03*
X246883Y499452D02*
D03*
X251054Y463931D02*
D03*
X390449Y775970D02*
D03*
X223522Y513493D02*
D03*
X232463D02*
D03*
X228094D02*
D03*
X215902D02*
D03*
X242058D02*
D03*
X237796D02*
D03*
X219712D02*
D03*
X210898D02*
D03*
X223638Y506653D02*
D03*
X232579D02*
D03*
X228210D02*
D03*
X216018D02*
D03*
X242174D02*
D03*
X237912D02*
D03*
X219828D02*
D03*
X211014D02*
D03*
X224102Y499407D02*
D03*
X233042D02*
D03*
X228674D02*
D03*
X216482D02*
D03*
X242638D02*
D03*
X238376D02*
D03*
X220292D02*
D03*
X211478D02*
D03*
X211710Y492277D02*
D03*
X220523D02*
D03*
X238608D02*
D03*
X242869D02*
D03*
X216713D02*
D03*
X228905D02*
D03*
X233274D02*
D03*
X224333D02*
D03*
X344907Y629209D02*
D03*
X367462Y734187D02*
D03*
X342189Y718109D02*
D03*
X304876Y440004D02*
D03*
X304775Y446557D02*
D03*
X304749Y451891D02*
D03*
X138963Y570306D02*
D03*
X248361Y754558D02*
D03*
X239090Y721055D02*
D03*
X396291Y722097D02*
D03*
X393217Y818921D02*
D03*
X393294Y856869D02*
D03*
X346075Y867232D02*
D03*
X306070Y898246D02*
D03*
X329401Y830005D02*
D03*
X271270Y598832D02*
D03*
X315189Y596392D02*
D03*
X229184Y595859D02*
D03*
X272239Y573429D02*
D03*
X439344Y452628D02*
D03*
X337337Y689229D02*
D03*
X502539Y402285D02*
D03*
X504063Y425983D02*
D03*
X441630Y400507D02*
D03*
X438836Y425729D02*
D03*
X136988Y473185D02*
D03*
X379298Y458140D02*
D03*
X294488Y828954D02*
D03*
X256565Y801675D02*
D03*
X254746Y755714D02*
D03*
X250469Y766013D02*
D03*
X357099Y596646D02*
D03*
X252552Y761009D02*
D03*
D107*
X363906Y891311D02*
D03*
X252019Y895909D02*
D03*
X376606Y899389D02*
D03*
X363804Y932104D02*
D03*
X353365Y866470D02*
D03*
X374066Y835609D02*
D03*
X469818Y837573D02*
D03*
X206629Y471805D02*
D03*
M02*
