G04*
G04 #@! TF.GenerationSoftware,Altium Limited,Altium Designer,22.11.1 (43)*
G04*
G04 Layer_Color=2752767*
%FSLAX44Y44*%
%MOMM*%
G71*
G04*
G04 #@! TF.SameCoordinates,20673E26-6E33-4D48-81B3-02EF57FC02C5*
G04*
G04*
G04 #@! TF.FilePolarity,Positive*
G04*
G01*
G75*
%ADD11C,0.1270*%
D11*
X344297Y682979D02*
X346837D01*
X349377Y685519D01*
X351917Y682979D01*
X354457D01*
Y685519D01*
X351917Y688059D01*
X354457Y690599D01*
Y693139D01*
X351917D01*
X349377Y690599D01*
X346837Y693139D01*
X344297D01*
Y690599D01*
X346837Y688059D01*
X344297Y685519D01*
Y682979D01*
X349555Y683235D02*
X352095D01*
X354635Y685775D01*
X357175Y683235D01*
X359715D01*
Y685775D01*
X357175Y688315D01*
X359715Y690855D01*
Y693395D01*
X357175D01*
X354635Y690855D01*
X352095Y693395D01*
X349555D01*
Y690855D01*
X352095Y688315D01*
X349555Y685775D01*
Y683235D01*
X329362Y825271D02*
X331902D01*
X334442Y827811D01*
X336982Y825271D01*
X339522D01*
Y827811D01*
X336982Y830351D01*
X339522Y832891D01*
Y835431D01*
X336982D01*
X334442Y832891D01*
X331902Y835431D01*
X329362D01*
Y832891D01*
X331902Y830351D01*
X329362Y827811D01*
Y825271D01*
X363141Y760915D02*
X365681D01*
X368221Y763455D01*
X370761Y760915D01*
X373301D01*
Y763455D01*
X370761Y765995D01*
X373301Y768535D01*
Y771075D01*
X370761D01*
X368221Y768535D01*
X365681Y771075D01*
X363141D01*
Y768535D01*
X365681Y765995D01*
X363141Y763455D01*
Y760915D01*
X359331Y765915D02*
X361871D01*
X364411Y768455D01*
X366951Y765915D01*
X369491D01*
Y768455D01*
X366951Y770995D01*
X369491Y773535D01*
Y776075D01*
X366951D01*
X364411Y773535D01*
X361871Y776075D01*
X359331D01*
Y773535D01*
X361871Y770995D01*
X359331Y768455D01*
Y765915D01*
X334315Y825271D02*
X336855D01*
X339395Y827811D01*
X341935Y825271D01*
X344475D01*
Y827811D01*
X341935Y830351D01*
X344475Y832891D01*
Y835431D01*
X341935D01*
X339395Y832891D01*
X336855Y835431D01*
X334315D01*
Y832891D01*
X336855Y830351D01*
X334315Y827811D01*
Y825271D01*
X309519Y824924D02*
X312059D01*
X314599Y827465D01*
X317139Y824924D01*
X319679D01*
Y827465D01*
X317139Y830005D01*
X319679Y832544D01*
Y835085D01*
X317139D01*
X314599Y832544D01*
X312059Y835085D01*
X309519D01*
Y832544D01*
X312059Y830005D01*
X309519Y827465D01*
Y824924D01*
X304444Y824611D02*
X306984D01*
X309524Y827151D01*
X312064Y824611D01*
X314604D01*
Y827151D01*
X312064Y829691D01*
X314604Y832231D01*
Y834771D01*
X312064D01*
X309524Y832231D01*
X306984Y834771D01*
X304444D01*
Y832231D01*
X306984Y829691D01*
X304444Y827151D01*
Y824611D01*
M02*
