G04*
G04 #@! TF.GenerationSoftware,Altium Limited,Altium Designer,22.11.1 (43)*
G04*
G04 Layer_Color=128*
%FSLAX44Y44*%
%MOMM*%
G71*
G04*
G04 #@! TF.SameCoordinates,20673E26-6E33-4D48-81B3-02EF57FC02C5*
G04*
G04*
G04 #@! TF.FilePolarity,Positive*
G04*
G01*
G75*
%ADD11C,0.1270*%
D11*
X237509Y801218D02*
X238779D01*
X238144Y800583D02*
Y801853D01*
X239420Y770915D02*
X240690D01*
X240055Y770280D02*
Y771550D01*
X128715Y789940D02*
X129985D01*
X129349Y789305D02*
Y790575D01*
X389823Y720995D02*
X391093D01*
X390458Y720360D02*
Y721630D01*
X358785Y688584D02*
X360055D01*
X359420Y687949D02*
Y689219D01*
X135230Y953389D02*
X136500D01*
X135865Y952754D02*
Y954024D01*
X239370Y775995D02*
X240640D01*
X240005Y775360D02*
Y776630D01*
X503250Y929735D02*
X504520D01*
X503885Y929100D02*
Y930370D01*
X498170Y954761D02*
X499440D01*
X498805Y954126D02*
Y955396D01*
X318705Y829935D02*
X319975D01*
X319340Y829300D02*
Y830570D01*
X323865Y830024D02*
X325135D01*
X324500Y829389D02*
Y830659D01*
X243307Y801167D02*
X244577D01*
X243942Y800532D02*
Y801802D01*
X131801Y651485D02*
X133071D01*
X132436Y650850D02*
Y652120D01*
X131969Y676570D02*
X133239D01*
X132604Y675935D02*
Y677205D01*
X128715Y814940D02*
X129985D01*
X129349Y814305D02*
Y815575D01*
X135458Y928370D02*
X136728D01*
X136093Y927735D02*
Y929005D01*
M02*
