G04*
G04 #@! TF.GenerationSoftware,Altium Limited,Altium Designer,22.11.1 (43)*
G04*
G04 Layer_Color=2752767*
%FSLAX44Y44*%
%MOMM*%
G71*
G04*
G04 #@! TF.SameCoordinates,20673E26-6E33-4D48-81B3-02EF57FC02C5*
G04*
G04*
G04 #@! TF.FilePolarity,Positive*
G04*
G01*
G75*
%ADD11C,0.1270*%
D11*
X233064Y796138D02*
X235604D01*
X238144Y798678D01*
X240684Y796138D01*
X243224D01*
Y798678D01*
X240684Y801218D01*
X243224Y803758D01*
Y806298D01*
X240684D01*
X238144Y803758D01*
X235604Y806298D01*
X233064D01*
Y803758D01*
X235604Y801218D01*
X233064Y798678D01*
Y796138D01*
X234975Y765835D02*
X237515D01*
X240055Y768375D01*
X242595Y765835D01*
X245135D01*
Y768375D01*
X242595Y770915D01*
X245135Y773455D01*
Y775995D01*
X242595D01*
X240055Y773455D01*
X237515Y775995D01*
X234975D01*
Y773455D01*
X237515Y770915D01*
X234975Y768375D01*
Y765835D01*
X124270Y784860D02*
X126810D01*
X129349Y787400D01*
X131889Y784860D01*
X134430D01*
Y787400D01*
X131889Y789940D01*
X134430Y792480D01*
Y795020D01*
X131889D01*
X129349Y792480D01*
X126810Y795020D01*
X124270D01*
Y792480D01*
X126810Y789940D01*
X124270Y787400D01*
Y784860D01*
X385378Y715915D02*
X387918D01*
X390458Y718455D01*
X392998Y715915D01*
X395538D01*
Y718455D01*
X392998Y720995D01*
X395538Y723535D01*
Y726075D01*
X392998D01*
X390458Y723535D01*
X387918Y726075D01*
X385378D01*
Y723535D01*
X387918Y720995D01*
X385378Y718455D01*
Y715915D01*
X354340Y683504D02*
X356880D01*
X359420Y686044D01*
X361960Y683504D01*
X364500D01*
Y686044D01*
X361960Y688584D01*
X364500Y691124D01*
Y693664D01*
X361960D01*
X359420Y691124D01*
X356880Y693664D01*
X354340D01*
Y691124D01*
X356880Y688584D01*
X354340Y686044D01*
Y683504D01*
X130785Y948309D02*
X133325D01*
X135865Y950849D01*
X138405Y948309D01*
X140945D01*
Y950849D01*
X138405Y953389D01*
X140945Y955929D01*
Y958469D01*
X138405D01*
X135865Y955929D01*
X133325Y958469D01*
X130785D01*
Y955929D01*
X133325Y953389D01*
X130785Y950849D01*
Y948309D01*
X234925Y770915D02*
X237465D01*
X240005Y773455D01*
X242545Y770915D01*
X245085D01*
Y773455D01*
X242545Y775995D01*
X245085Y778535D01*
Y781075D01*
X242545D01*
X240005Y778535D01*
X237465Y781075D01*
X234925D01*
Y778535D01*
X237465Y775995D01*
X234925Y773455D01*
Y770915D01*
X498805Y924655D02*
X501345D01*
X503885Y927195D01*
X506425Y924655D01*
X508965D01*
Y927195D01*
X506425Y929735D01*
X508965Y932275D01*
Y934815D01*
X506425D01*
X503885Y932275D01*
X501345Y934815D01*
X498805D01*
Y932275D01*
X501345Y929735D01*
X498805Y927195D01*
Y924655D01*
X493725Y949681D02*
X496265D01*
X498805Y952221D01*
X501345Y949681D01*
X503885D01*
Y952221D01*
X501345Y954761D01*
X503885Y957301D01*
Y959841D01*
X501345D01*
X498805Y957301D01*
X496265Y959841D01*
X493725D01*
Y957301D01*
X496265Y954761D01*
X493725Y952221D01*
Y949681D01*
X314260Y824855D02*
X316800D01*
X319340Y827395D01*
X321880Y824855D01*
X324420D01*
Y827395D01*
X321880Y829935D01*
X324420Y832475D01*
Y835015D01*
X321880D01*
X319340Y832475D01*
X316800Y835015D01*
X314260D01*
Y832475D01*
X316800Y829935D01*
X314260Y827395D01*
Y824855D01*
X319420Y824944D02*
X321960D01*
X324500Y827484D01*
X327040Y824944D01*
X329580D01*
Y827484D01*
X327040Y830024D01*
X329580Y832564D01*
Y835104D01*
X327040D01*
X324500Y832564D01*
X321960Y835104D01*
X319420D01*
Y832564D01*
X321960Y830024D01*
X319420Y827484D01*
Y824944D01*
X238862Y796087D02*
X241402D01*
X243942Y798627D01*
X246482Y796087D01*
X249022D01*
Y798627D01*
X246482Y801167D01*
X249022Y803707D01*
Y806247D01*
X246482D01*
X243942Y803707D01*
X241402Y806247D01*
X238862D01*
Y803707D01*
X241402Y801167D01*
X238862Y798627D01*
Y796087D01*
X127356Y646405D02*
X129896D01*
X132436Y648945D01*
X134976Y646405D01*
X137516D01*
Y648945D01*
X134976Y651485D01*
X137516Y654025D01*
Y656565D01*
X134976D01*
X132436Y654025D01*
X129896Y656565D01*
X127356D01*
Y654025D01*
X129896Y651485D01*
X127356Y648945D01*
Y646405D01*
X127524Y671490D02*
X130064D01*
X132604Y674030D01*
X135144Y671490D01*
X137684D01*
Y674030D01*
X135144Y676570D01*
X137684Y679110D01*
Y681650D01*
X135144D01*
X132604Y679110D01*
X130064Y681650D01*
X127524D01*
Y679110D01*
X130064Y676570D01*
X127524Y674030D01*
Y671490D01*
X124270Y809860D02*
X126810D01*
X129349Y812400D01*
X131889Y809860D01*
X134430D01*
Y812400D01*
X131889Y814940D01*
X134430Y817480D01*
Y820020D01*
X131889D01*
X129349Y817480D01*
X126810Y820020D01*
X124270D01*
Y817480D01*
X126810Y814940D01*
X124270Y812400D01*
Y809860D01*
X131013Y923290D02*
X133553D01*
X136093Y925830D01*
X138633Y923290D01*
X141173D01*
Y925830D01*
X138633Y928370D01*
X141173Y930910D01*
Y933450D01*
X138633D01*
X136093Y930910D01*
X133553Y933450D01*
X131013D01*
Y930910D01*
X133553Y928370D01*
X131013Y925830D01*
Y923290D01*
M02*
