G04*
G04 #@! TF.GenerationSoftware,Altium Limited,Altium Designer,22.11.1 (43)*
G04*
G04 Layer_Color=32768*
%FSLAX44Y44*%
%MOMM*%
G71*
G04*
G04 #@! TF.SameCoordinates,20673E26-6E33-4D48-81B3-02EF57FC02C5*
G04*
G04*
G04 #@! TF.FilePolarity,Positive*
G04*
G01*
G75*
%ADD12C,0.1000*%
%ADD108C,0.0500*%
%ADD109C,0.5000*%
D12*
X244225Y503657D02*
X254225D01*
X249225Y498657D02*
Y508657D01*
X153989Y345866D02*
X273989D01*
Y270866D02*
Y345866D01*
X153989Y270866D02*
X273989D01*
X153989D02*
Y345866D01*
X208989Y324866D02*
X218989D01*
X213989Y319866D02*
Y329866D01*
X79419Y536630D02*
Y539630D01*
X45669D02*
X68169D01*
X34419Y451630D02*
Y539630D01*
Y451630D02*
X79419D01*
Y538130D01*
X45419Y495630D02*
X55419D01*
X34419Y539630D02*
X45669D01*
X68169D02*
X79419D01*
X50419Y490630D02*
Y500630D01*
X104648Y546938D02*
X133655D01*
X104648D02*
Y557987D01*
X133655D01*
Y546938D02*
Y557987D01*
X119126Y553898D02*
X119151D01*
X119126Y551726D02*
Y553174D01*
Y553898D01*
Y551002D02*
Y551726D01*
X117678Y552450D02*
Y552475D01*
X118402Y552450D02*
X119850D01*
X117678D02*
X118402D01*
X119850D02*
X120574D01*
X105126Y575230D02*
X133126D01*
Y565230D02*
Y575230D01*
X105126Y565230D02*
X133126D01*
X105126D02*
Y575230D01*
X119126Y567230D02*
Y573230D01*
X116126Y570230D02*
X122126D01*
X222525Y455317D02*
X250525D01*
Y445317D02*
Y455317D01*
X222525Y445317D02*
X250525D01*
X222525D02*
Y455317D01*
X236525Y447317D02*
Y453317D01*
X233525Y450317D02*
X239525D01*
X222875Y418457D02*
Y436457D01*
Y418457D02*
X262875D01*
Y436457D01*
X222875D02*
X262875D01*
X239875Y427457D02*
X245875D01*
X242875Y424457D02*
Y430457D01*
X137765Y445850D02*
X165765D01*
X137765D02*
Y455850D01*
X165765D01*
Y445850D02*
Y455850D01*
X151765Y447850D02*
Y453850D01*
X148765Y450850D02*
X154765D01*
X137765Y496650D02*
X165765D01*
X137765D02*
Y506650D01*
X165765D01*
Y496650D02*
Y506650D01*
X151765Y498650D02*
Y504650D01*
X148765Y501650D02*
X154765D01*
X361305Y433697D02*
Y451697D01*
Y433697D02*
X401305D01*
Y451697D01*
X361305D02*
X401305D01*
X378305Y442697D02*
X384305D01*
X381305Y439697D02*
Y445697D01*
X287325Y484147D02*
Y490147D01*
X284325Y487147D02*
X290325D01*
X282325Y473147D02*
X292325D01*
Y501147D01*
X282325D02*
X292325D01*
X282325Y473147D02*
Y501147D01*
X189075Y534137D02*
X195075D01*
X192075Y531137D02*
Y537137D01*
X206075Y529137D02*
Y539137D01*
X178075D02*
X206075D01*
X178075Y529137D02*
Y539137D01*
Y529137D02*
X206075D01*
X213665Y540408D02*
Y546408D01*
X210665Y543408D02*
X216665D01*
X208665Y557408D02*
X218665D01*
X208665Y529408D02*
Y557408D01*
Y529408D02*
X218665D01*
Y557408D01*
X269545Y555267D02*
Y561267D01*
X266545Y558267D02*
X272545D01*
X264545Y544267D02*
X274545D01*
Y572267D01*
X264545D02*
X274545D01*
X264545Y544267D02*
Y572267D01*
X242875Y555267D02*
Y561267D01*
X239875Y558267D02*
X245875D01*
X237875Y544267D02*
X247875D01*
Y572267D01*
X237875D02*
X247875D01*
X237875Y544267D02*
Y572267D01*
X230175Y555267D02*
Y561267D01*
X227175Y558267D02*
X233175D01*
X225175Y572267D02*
X235175D01*
X225175Y544267D02*
Y572267D01*
Y544267D02*
X235175D01*
Y572267D01*
X236088Y598801D02*
X264088D01*
Y588801D02*
Y598801D01*
X236088Y588801D02*
X264088D01*
X236088D02*
Y598801D01*
X250088Y590801D02*
Y596801D01*
X247088Y593801D02*
X253088D01*
X280538Y598801D02*
X308538D01*
Y588801D02*
Y598801D01*
X280538Y588801D02*
X308538D01*
X280538D02*
Y598801D01*
X294538Y590801D02*
Y596801D01*
X291538Y593801D02*
X297538D01*
X364358Y598801D02*
X392358D01*
Y588801D02*
Y598801D01*
X364358Y588801D02*
X392358D01*
X364358D02*
Y598801D01*
X378358Y590801D02*
Y596801D01*
X375358Y593801D02*
X381358D01*
X323718Y598801D02*
X351718D01*
Y588801D02*
Y598801D01*
X323718Y588801D02*
X351718D01*
X323718D02*
Y598801D01*
X337718Y590801D02*
Y596801D01*
X334718Y593801D02*
X340718D01*
X256845Y555267D02*
Y561267D01*
X253845Y558267D02*
X259845D01*
X251845Y572267D02*
X261845D01*
X251845Y544267D02*
Y572267D01*
Y544267D02*
X261845D01*
Y572267D01*
X372062Y610229D02*
X382062D01*
X377088Y605311D02*
Y615311D01*
X362088Y602311D02*
Y618311D01*
Y602311D02*
X392088D01*
Y618311D01*
X362088D02*
X392088D01*
X331422Y610229D02*
X341422D01*
X336448Y605311D02*
Y615311D01*
X321448Y602311D02*
Y618311D01*
Y602311D02*
X351448D01*
Y618311D01*
X321448D02*
X351448D01*
X288242Y610229D02*
X298242D01*
X293268Y605311D02*
Y615311D01*
X278268Y602311D02*
Y618311D01*
Y602311D02*
X308268D01*
Y618311D01*
X278268D02*
X308268D01*
X243792Y610229D02*
X253792D01*
X248818Y605311D02*
Y615311D01*
X233818Y602311D02*
Y618311D01*
Y602311D02*
X263818D01*
Y618311D01*
X233818D02*
X263818D01*
X339598Y637972D02*
Y666979D01*
X350647D01*
Y637972D02*
Y666979D01*
X339598Y637972D02*
X350647D01*
X346558Y652475D02*
Y652501D01*
X344386D02*
X345834D01*
X346558D01*
X343662D02*
X344386D01*
X345110Y653948D02*
X345135D01*
X345110Y651777D02*
Y653224D01*
Y653948D01*
Y651053D02*
Y651777D01*
X322844Y637865D02*
Y666872D01*
X333893D01*
Y637865D02*
Y666872D01*
X322844Y637865D02*
X333893D01*
X329804Y652369D02*
Y652394D01*
X327632D02*
X329080D01*
X329804D01*
X326908D02*
X327632D01*
X328356Y653842D02*
X328381D01*
X328356Y651670D02*
Y653118D01*
Y653842D01*
Y650946D02*
Y651670D01*
X279984Y637865D02*
Y666872D01*
X291033D01*
Y637865D02*
Y666872D01*
X279984Y637865D02*
X291033D01*
X286944Y652369D02*
Y652394D01*
X284772D02*
X286220D01*
X286944D01*
X284048D02*
X284772D01*
X285496Y653842D02*
X285521D01*
X285496Y651670D02*
Y653118D01*
Y653842D01*
Y650946D02*
Y651670D01*
X263674Y637865D02*
Y666872D01*
X274723D01*
Y637865D02*
Y666872D01*
X263674Y637865D02*
X274723D01*
X270633Y652369D02*
Y652394D01*
X268462D02*
X269909D01*
X270633D01*
X267738D02*
X268462D01*
X269186Y653842D02*
X269211D01*
X269186Y651670D02*
Y653118D01*
Y653842D01*
Y650946D02*
Y651670D01*
X138984Y706218D02*
X166984D01*
Y696218D02*
Y706218D01*
X138984Y696218D02*
X166984D01*
X138984D02*
Y706218D01*
X152984Y698218D02*
Y704218D01*
X149984Y701218D02*
X155984D01*
X138984Y718918D02*
X166984D01*
Y708918D02*
Y718918D01*
X138984Y708918D02*
X166984D01*
X138984D02*
Y718918D01*
X152984Y710918D02*
Y716918D01*
X149984Y713918D02*
X155984D01*
X138984Y721618D02*
X166984D01*
X138984D02*
Y731618D01*
X166984D01*
Y721618D02*
Y731618D01*
X152984Y723618D02*
Y729618D01*
X149984Y726618D02*
X155984D01*
X138984Y745338D02*
X166984D01*
Y735338D02*
Y745338D01*
X138984Y735338D02*
X166984D01*
X138984D02*
Y745338D01*
X152984Y737338D02*
Y743338D01*
X149984Y740338D02*
X155984D01*
X139361Y758609D02*
X167361D01*
Y748609D02*
Y758609D01*
X139361Y748609D02*
X167361D01*
X139361D02*
Y758609D01*
X153361Y750609D02*
Y756609D01*
X150361Y753609D02*
X156361D01*
X222922Y729081D02*
X252922D01*
Y713081D02*
Y729081D01*
X222922Y713081D02*
X252922D01*
X222922D02*
Y729081D01*
X237922Y716081D02*
Y726081D01*
X232896Y720999D02*
X242896D01*
X235386Y737916D02*
Y765916D01*
X245386D01*
Y737916D02*
Y765916D01*
X235386Y737916D02*
X245386D01*
X237386Y751916D02*
X243386D01*
X240386Y748916D02*
Y754916D01*
X222686Y738221D02*
Y766221D01*
X232686D01*
Y738221D02*
Y766221D01*
X222686Y738221D02*
X232686D01*
X224686Y752221D02*
X230686D01*
X227686Y749221D02*
Y755221D01*
X393446Y690093D02*
Y719099D01*
X404495D01*
Y690093D02*
Y719099D01*
X393446Y690093D02*
X404495D01*
X400406Y704596D02*
Y704621D01*
X398234D02*
X399682D01*
X400406D01*
X397510D02*
X398234D01*
X398958Y706069D02*
X398983D01*
X398958Y703897D02*
Y705345D01*
Y706069D01*
Y703174D02*
Y703897D01*
X499004Y665535D02*
X527004D01*
X499004D02*
Y675535D01*
X527004D01*
Y665535D02*
Y675535D01*
X513004Y667535D02*
Y673535D01*
X510004Y670535D02*
X516004D01*
X504643Y701041D02*
X532643D01*
Y691041D02*
Y701041D01*
X504643Y691041D02*
X532643D01*
X504643D02*
Y701041D01*
X518643Y693041D02*
Y699041D01*
X515643Y696041D02*
X521643D01*
X539673Y677041D02*
Y761041D01*
X583173D01*
Y677041D02*
Y761041D01*
X539673Y677041D02*
X583173D01*
X568173Y714041D02*
Y723041D01*
X563673Y718541D02*
X572673D01*
X505430Y746041D02*
X533430D01*
Y736041D02*
Y746041D01*
X505430Y736041D02*
X533430D01*
X505430D02*
Y746041D01*
X519430Y738041D02*
Y744041D01*
X516430Y741041D02*
X522430D01*
X459693Y709259D02*
Y737259D01*
X469693D01*
Y709259D02*
Y737259D01*
X459693Y709259D02*
X469693D01*
X461693Y723259D02*
X467693D01*
X464693Y720259D02*
Y726259D01*
X445469Y709259D02*
Y737259D01*
X455469D01*
Y709259D02*
Y737259D01*
X445469Y709259D02*
X455469D01*
X447469Y723259D02*
X453469D01*
X450469Y720259D02*
Y726259D01*
X472283Y755120D02*
X500283D01*
X472283D02*
Y765120D01*
X500283D01*
Y755120D02*
Y765120D01*
X486283Y757120D02*
Y763120D01*
X483283Y760120D02*
X489283D01*
X449804Y782900D02*
X477804D01*
Y772900D02*
Y782900D01*
X449804Y772900D02*
X477804D01*
X449804D02*
Y782900D01*
X463804Y774900D02*
Y780900D01*
X460804Y777900D02*
X466804D01*
X404973Y750040D02*
X432973D01*
X404973D02*
Y760040D01*
X432973D01*
Y750040D02*
Y760040D01*
X418973Y752040D02*
Y758040D01*
X415973Y755040D02*
X421973D01*
X418973Y772360D02*
Y778360D01*
X415973Y775360D02*
X421973D01*
X404973Y768360D02*
X432973D01*
X404973D02*
Y782360D01*
X432973D01*
Y768360D02*
Y782360D01*
X403973Y787680D02*
X433973D01*
X403973D02*
Y803680D01*
X433973D01*
Y787680D02*
Y803680D01*
X418973Y790680D02*
Y800680D01*
X413999Y795762D02*
X423999D01*
X487549Y815386D02*
Y843386D01*
X477549Y815386D02*
X487549D01*
X477549D02*
Y843386D01*
X487549D01*
X479549Y829386D02*
X485549D01*
X482549Y826386D02*
Y832386D01*
X408944Y834970D02*
Y862970D01*
X418944D01*
Y834970D02*
Y862970D01*
X408944Y834970D02*
X418944D01*
X410944Y848970D02*
X416944D01*
X413944Y845970D02*
Y851970D01*
X429255Y866804D02*
X457255D01*
X429255D02*
Y876804D01*
X457255D01*
Y866804D02*
Y876804D01*
X443255Y868804D02*
Y874804D01*
X440255Y871804D02*
X446255D01*
X378384Y878101D02*
Y884101D01*
X375384Y881101D02*
X381384D01*
X364384Y874101D02*
X392384D01*
X364384D02*
Y888101D01*
X392384D01*
Y874101D02*
Y888101D01*
X267459Y882726D02*
X273459D01*
X270459Y879726D02*
Y885726D01*
X284459Y877726D02*
Y887726D01*
X256459D02*
X284459D01*
X256459Y877726D02*
Y887726D01*
Y877726D02*
X284459D01*
X267688Y895909D02*
X273688D01*
X270688Y892909D02*
Y898909D01*
X284688Y890909D02*
Y900909D01*
X256688D02*
X284688D01*
X256688Y890909D02*
Y900909D01*
Y890909D02*
X284688D01*
X269618Y913892D02*
X275618D01*
X272618Y910892D02*
Y916892D01*
X258618Y908892D02*
Y918892D01*
Y908892D02*
X286618D01*
Y918892D01*
X258618D02*
X286618D01*
X368656Y903628D02*
Y909628D01*
X365656Y906628D02*
X371656D01*
X363656Y920628D02*
X373656D01*
X363656Y892628D02*
Y920628D01*
Y892628D02*
X373656D01*
Y920628D01*
X347876Y906628D02*
X353876D01*
X350876Y903628D02*
Y909628D01*
X343876Y892628D02*
Y920628D01*
X357876D01*
Y892628D02*
Y920628D01*
X343876Y892628D02*
X357876D01*
X327075Y857323D02*
Y863323D01*
X324075Y860323D02*
X330075D01*
X313075Y867323D02*
X341075D01*
Y853323D02*
Y867323D01*
X313075Y853323D02*
X341075D01*
X313075D02*
Y867323D01*
X313431Y846858D02*
X341431D01*
Y836858D02*
Y846858D01*
X313431Y836858D02*
X341431D01*
X313431D02*
Y846858D01*
X327431Y838858D02*
Y844858D01*
X324431Y841858D02*
X330431D01*
X338986Y883768D02*
X344986D01*
X341986Y880768D02*
Y886768D01*
X327986Y878768D02*
Y888768D01*
Y878768D02*
X355986D01*
Y888768D01*
X327986D02*
X355986D01*
X333096Y903628D02*
Y909628D01*
X330096Y906628D02*
X336096D01*
X328096Y892628D02*
X338096D01*
Y920628D01*
X328096D02*
X338096D01*
X328096Y892628D02*
Y920628D01*
X142845Y819940D02*
X170845D01*
Y809940D02*
Y819940D01*
X142845Y809940D02*
X170845D01*
X142845D02*
Y819940D01*
X156845Y811940D02*
Y817940D01*
X153845Y814940D02*
X159845D01*
X142845Y794940D02*
X170845D01*
Y784940D02*
Y794940D01*
X142845Y784940D02*
X170845D01*
X142845D02*
Y794940D01*
X156845Y786940D02*
Y792940D01*
X153845Y789940D02*
X159845D01*
X255978Y839470D02*
X261978D01*
X258978Y836470D02*
Y842470D01*
X265978Y825470D02*
Y853470D01*
X251978Y825470D02*
X265978D01*
X251978D02*
Y853470D01*
X265978D01*
X217780Y851332D02*
X246786D01*
Y840283D02*
Y851332D01*
X217780Y840283D02*
X246786D01*
X217780D02*
Y851332D01*
X232283Y844372D02*
X232308D01*
Y845096D02*
Y846544D01*
Y844372D02*
Y845096D01*
Y846544D02*
Y847268D01*
X233756Y845795D02*
Y845820D01*
X231584D02*
X233032D01*
X233756D01*
X230861D02*
X231584D01*
X217780Y836092D02*
X246786D01*
Y825043D02*
Y836092D01*
X217780Y825043D02*
X246786D01*
X217780D02*
Y836092D01*
X232283Y829132D02*
X232308D01*
Y829856D02*
Y831304D01*
Y829132D02*
Y829856D01*
Y831304D02*
Y832028D01*
X233756Y830555D02*
Y830580D01*
X231584D02*
X233032D01*
X233756D01*
X230861D02*
X231584D01*
D108*
X501783Y420904D02*
Y424904D01*
X499777Y422910D02*
X503777D01*
X220152Y383451D02*
X226152D01*
X223139Y383464D02*
X223152D01*
X223139Y380464D02*
Y386464D01*
X319129Y461229D02*
Y467229D01*
X316075Y464287D02*
X322075D01*
X352852Y543035D02*
X360852D01*
X356921Y539103D02*
Y547103D01*
X296337Y667895D02*
X317337D01*
Y652895D02*
Y667895D01*
X296337Y652895D02*
X317337D01*
X296337D02*
Y667895D01*
X306837Y656445D02*
Y664445D01*
X302837Y660445D02*
X310837D01*
X468663Y744790D02*
Y765390D01*
X448163Y744790D02*
X468663D01*
X448163D02*
Y765490D01*
X468663D01*
Y754790D02*
Y765490D01*
X457043Y755040D02*
X459543D01*
X458330Y753809D02*
Y756309D01*
X445719Y843785D02*
Y849785D01*
X442755Y846680D02*
X448755D01*
X305968Y897084D02*
Y901084D01*
X303968Y899084D02*
X307968D01*
X323718Y878084D02*
Y920084D01*
X288218D02*
X323718D01*
X288218Y878084D02*
X323718D01*
X288218D02*
Y920084D01*
X374548Y851262D02*
Y855262D01*
X372550Y853398D02*
X376550D01*
X346253Y930443D02*
Y932443D01*
X345253Y931443D02*
X347253D01*
X318920Y758495D02*
X324920D01*
X321869Y755479D02*
Y761479D01*
D109*
X233856Y937275D02*
X356856D01*
X233856D02*
Y1021275D01*
X363856D01*
Y937275D02*
Y1021275D01*
X356856Y937275D02*
X363856D01*
X298856Y978275D02*
Y991275D01*
X292302Y984751D02*
X305302D01*
M02*
