G04*
G04 #@! TF.GenerationSoftware,Altium Limited,Altium Designer,22.11.1 (43)*
G04*
G04 Layer_Physical_Order=1*
G04 Layer_Color=255*
%FSLAX44Y44*%
%MOMM*%
G71*
G04*
G04 #@! TF.SameCoordinates,20673E26-6E33-4D48-81B3-02EF57FC02C5*
G04*
G04*
G04 #@! TF.FilePolarity,Positive*
G04*
G01*
G75*
%ADD15C,0.2540*%
G04:AMPARAMS|DCode=17|XSize=1.97mm|YSize=0.6mm|CornerRadius=0.162mm|HoleSize=0mm|Usage=FLASHONLY|Rotation=270.000|XOffset=0mm|YOffset=0mm|HoleType=Round|Shape=RoundedRectangle|*
%AMROUNDEDRECTD17*
21,1,1.9700,0.2760,0,0,270.0*
21,1,1.6460,0.6000,0,0,270.0*
1,1,0.3240,-0.1380,-0.8230*
1,1,0.3240,-0.1380,0.8230*
1,1,0.3240,0.1380,0.8230*
1,1,0.3240,0.1380,-0.8230*
%
%ADD17ROUNDEDRECTD17*%
%ADD18R,3.1800X1.2700*%
%ADD19R,1.5000X0.7000*%
%ADD20R,0.8000X1.0000*%
%ADD21R,0.9652X0.7874*%
%ADD22R,0.9652X0.7874*%
%ADD23R,0.9000X1.6000*%
%ADD24R,2.2500X3.1200*%
G04:AMPARAMS|DCode=25|XSize=2.33mm|YSize=1.55mm|CornerRadius=0.3875mm|HoleSize=0mm|Usage=FLASHONLY|Rotation=270.000|XOffset=0mm|YOffset=0mm|HoleType=Round|Shape=RoundedRectangle|*
%AMROUNDEDRECTD25*
21,1,2.3300,0.7750,0,0,270.0*
21,1,1.5550,1.5500,0,0,270.0*
1,1,0.7750,-0.3875,-0.7775*
1,1,0.7750,-0.3875,0.7775*
1,1,0.7750,0.3875,0.7775*
1,1,0.7750,0.3875,-0.7775*
%
%ADD25ROUNDEDRECTD25*%
%ADD26R,0.7874X0.9652*%
G04:AMPARAMS|DCode=27|XSize=2.46mm|YSize=5.09mm|CornerRadius=0.3075mm|HoleSize=0mm|Usage=FLASHONLY|Rotation=0.000|XOffset=0mm|YOffset=0mm|HoleType=Round|Shape=RoundedRectangle|*
%AMROUNDEDRECTD27*
21,1,2.4600,4.4750,0,0,0.0*
21,1,1.8450,5.0900,0,0,0.0*
1,1,0.6150,0.9225,-2.2375*
1,1,0.6150,-0.9225,-2.2375*
1,1,0.6150,-0.9225,2.2375*
1,1,0.6150,0.9225,2.2375*
%
%ADD27ROUNDEDRECTD27*%
%ADD28R,0.7000X1.3000*%
%ADD29R,0.7874X0.9652*%
%ADD30R,0.5000X1.0000*%
G04:AMPARAMS|DCode=31|XSize=0.64mm|YSize=0.22mm|CornerRadius=0.0275mm|HoleSize=0mm|Usage=FLASHONLY|Rotation=270.000|XOffset=0mm|YOffset=0mm|HoleType=Round|Shape=RoundedRectangle|*
%AMROUNDEDRECTD31*
21,1,0.6400,0.1650,0,0,270.0*
21,1,0.5850,0.2200,0,0,270.0*
1,1,0.0550,-0.0825,-0.2925*
1,1,0.0550,-0.0825,0.2925*
1,1,0.0550,0.0825,0.2925*
1,1,0.0550,0.0825,-0.2925*
%
%ADD31ROUNDEDRECTD31*%
G04:AMPARAMS|DCode=32|XSize=0.22mm|YSize=0.64mm|CornerRadius=0.0275mm|HoleSize=0mm|Usage=FLASHONLY|Rotation=270.000|XOffset=0mm|YOffset=0mm|HoleType=Round|Shape=RoundedRectangle|*
%AMROUNDEDRECTD32*
21,1,0.2200,0.5850,0,0,270.0*
21,1,0.1650,0.6400,0,0,270.0*
1,1,0.0550,-0.2925,-0.0825*
1,1,0.0550,-0.2925,0.0825*
1,1,0.0550,0.2925,0.0825*
1,1,0.0550,0.2925,-0.0825*
%
%ADD32ROUNDEDRECTD32*%
G04:AMPARAMS|DCode=33|XSize=1.69mm|YSize=0.61mm|CornerRadius=0.0763mm|HoleSize=0mm|Usage=FLASHONLY|Rotation=0.000|XOffset=0mm|YOffset=0mm|HoleType=Round|Shape=RoundedRectangle|*
%AMROUNDEDRECTD33*
21,1,1.6900,0.4575,0,0,0.0*
21,1,1.5375,0.6100,0,0,0.0*
1,1,0.1525,0.7688,-0.2288*
1,1,0.1525,-0.7688,-0.2288*
1,1,0.1525,-0.7688,0.2288*
1,1,0.1525,0.7688,0.2288*
%
%ADD33ROUNDEDRECTD33*%
%ADD34R,1.5000X0.7000*%
%ADD35R,0.2794X0.2540*%
%ADD36R,0.2540X0.2794*%
G04:AMPARAMS|DCode=37|XSize=1.32mm|YSize=0.59mm|CornerRadius=0.0738mm|HoleSize=0mm|Usage=FLASHONLY|Rotation=0.000|XOffset=0mm|YOffset=0mm|HoleType=Round|Shape=RoundedRectangle|*
%AMROUNDEDRECTD37*
21,1,1.3200,0.4425,0,0,0.0*
21,1,1.1725,0.5900,0,0,0.0*
1,1,0.1475,0.5863,-0.2213*
1,1,0.1475,-0.5863,-0.2213*
1,1,0.1475,-0.5863,0.2213*
1,1,0.1475,0.5863,0.2213*
%
%ADD37ROUNDEDRECTD37*%
%ADD38R,0.6000X1.2000*%
%ADD39R,1.3000X0.7000*%
G04:AMPARAMS|DCode=40|XSize=1.24mm|YSize=0.55mm|CornerRadius=0.0688mm|HoleSize=0mm|Usage=FLASHONLY|Rotation=0.000|XOffset=0mm|YOffset=0mm|HoleType=Round|Shape=RoundedRectangle|*
%AMROUNDEDRECTD40*
21,1,1.2400,0.4125,0,0,0.0*
21,1,1.1025,0.5500,0,0,0.0*
1,1,0.1375,0.5513,-0.2063*
1,1,0.1375,-0.5513,-0.2063*
1,1,0.1375,-0.5513,0.2063*
1,1,0.1375,0.5513,0.2063*
%
%ADD40ROUNDEDRECTD40*%
%ADD41R,0.9500X1.0200*%
G04:AMPARAMS|DCode=42|XSize=0.28mm|YSize=1.47mm|CornerRadius=0.035mm|HoleSize=0mm|Usage=FLASHONLY|Rotation=90.000|XOffset=0mm|YOffset=0mm|HoleType=Round|Shape=RoundedRectangle|*
%AMROUNDEDRECTD42*
21,1,0.2800,1.4000,0,0,90.0*
21,1,0.2100,1.4700,0,0,90.0*
1,1,0.0700,0.7000,0.1050*
1,1,0.0700,0.7000,-0.1050*
1,1,0.0700,-0.7000,-0.1050*
1,1,0.0700,-0.7000,0.1050*
%
%ADD42ROUNDEDRECTD42*%
G04:AMPARAMS|DCode=43|XSize=1.47mm|YSize=0.28mm|CornerRadius=0.035mm|HoleSize=0mm|Usage=FLASHONLY|Rotation=90.000|XOffset=0mm|YOffset=0mm|HoleType=Round|Shape=RoundedRectangle|*
%AMROUNDEDRECTD43*
21,1,1.4700,0.2100,0,0,90.0*
21,1,1.4000,0.2800,0,0,90.0*
1,1,0.0700,0.1050,0.7000*
1,1,0.0700,0.1050,-0.7000*
1,1,0.0700,-0.1050,-0.7000*
1,1,0.0700,-0.1050,0.7000*
%
%ADD43ROUNDEDRECTD43*%
%ADD44O,0.9906X1.8034*%
%ADD45R,0.6096X1.0922*%
%ADD46R,0.3048X1.0922*%
%ADD47O,0.9906X2.2098*%
%ADD93R,3.3000X2.4100*%
%ADD94C,0.2032*%
%ADD95C,0.5080*%
%ADD96C,0.3810*%
%ADD97C,0.7620*%
%ADD98R,1.5300X1.5300*%
%ADD99C,1.5300*%
%ADD100C,3.0000*%
%ADD101R,1.5000X1.5000*%
%ADD102C,1.5000*%
%ADD103C,1.5080*%
%ADD104R,1.5080X1.5080*%
%ADD105C,0.6096*%
%ADD106C,0.2540*%
%ADD107C,0.5080*%
G36*
X608410Y237131D02*
X15541D01*
X15541Y1015572D01*
X608410D01*
X608410Y237131D01*
D02*
G37*
%LPC*%
G36*
X242656Y1008907D02*
X240833Y1008667D01*
X239134Y1007963D01*
X237675Y1006843D01*
X236555Y1005384D01*
X235851Y1003685D01*
X235611Y1001861D01*
Y989669D01*
X235851Y987846D01*
X236555Y986147D01*
X237675Y984688D01*
X239134Y983568D01*
X240833Y982864D01*
X242656Y982624D01*
X244480Y982864D01*
X246179Y983568D01*
X247638Y984688D01*
X248758Y986147D01*
X249462Y987846D01*
X249702Y989669D01*
Y1001861D01*
X249462Y1003685D01*
X248758Y1005384D01*
X247638Y1006843D01*
X246179Y1007963D01*
X244480Y1008667D01*
X242656Y1008907D01*
D02*
G37*
G36*
X355056Y1008905D02*
X353233Y1008665D01*
X351534Y1007961D01*
X350075Y1006841D01*
X348955Y1005382D01*
X348251Y1003683D01*
X348011Y1001859D01*
Y989667D01*
X348251Y987844D01*
X348955Y986145D01*
X350075Y984686D01*
X351534Y983566D01*
X353233Y982862D01*
X355056Y982622D01*
X356880Y982862D01*
X358579Y983566D01*
X360038Y984686D01*
X361158Y986145D01*
X361862Y987844D01*
X362102Y989667D01*
Y1001859D01*
X361862Y1003683D01*
X361158Y1005382D01*
X360038Y1006841D01*
X358579Y1007961D01*
X356880Y1008665D01*
X355056Y1008905D01*
D02*
G37*
G36*
X519928Y964307D02*
X517408D01*
X514973Y963655D01*
X512791Y962395D01*
X511008Y960612D01*
X509748Y958430D01*
X509660Y958102D01*
X498933D01*
X498805Y958127D01*
X498480Y958063D01*
X498148D01*
X497842Y957936D01*
X497517Y957871D01*
X497241Y957687D01*
X496935Y957560D01*
X496700Y957325D01*
X496425Y957141D01*
X496240Y956865D01*
X496006Y956631D01*
X495879Y956325D01*
X495695Y956049D01*
X495630Y955724D01*
X495503Y955417D01*
Y955086D01*
X495438Y954761D01*
X495503Y954435D01*
Y954104D01*
X495630Y953797D01*
X495695Y953472D01*
X495879Y953197D01*
X496006Y952890D01*
X496240Y952656D01*
X496425Y952380D01*
X496450Y952355D01*
X496726Y952170D01*
X496935Y951961D01*
X497208Y951848D01*
X497542Y951625D01*
X497937Y951546D01*
X498148Y951459D01*
X498378D01*
X498831Y951368D01*
X509660D01*
X509748Y951040D01*
X511008Y948858D01*
X512791Y947076D01*
X514973Y945816D01*
X517408Y945163D01*
X519928D01*
X522363Y945816D01*
X524545Y947076D01*
X526328Y948858D01*
X527588Y951040D01*
X528240Y953475D01*
Y955995D01*
X527588Y958430D01*
X526328Y960612D01*
X524545Y962395D01*
X522363Y963655D01*
X519928Y964307D01*
D02*
G37*
G36*
X242656Y966875D02*
X240833Y966635D01*
X239134Y965931D01*
X237675Y964811D01*
X236555Y963352D01*
X235851Y961653D01*
X235611Y959829D01*
Y951701D01*
X235851Y949878D01*
X236555Y948179D01*
X237675Y946720D01*
X239134Y945600D01*
X240833Y944896D01*
X242656Y944656D01*
X244480Y944896D01*
X246179Y945600D01*
X247638Y946720D01*
X248758Y948179D01*
X249462Y949878D01*
X249702Y951701D01*
Y959829D01*
X249462Y961653D01*
X248758Y963352D01*
X247638Y964811D01*
X246179Y965931D01*
X244480Y966635D01*
X242656Y966875D01*
D02*
G37*
G36*
X355056Y966873D02*
X353233Y966633D01*
X351534Y965929D01*
X350075Y964809D01*
X348955Y963350D01*
X348251Y961651D01*
X348011Y959827D01*
Y951699D01*
X348251Y949876D01*
X348955Y948177D01*
X350075Y946718D01*
X351534Y945598D01*
X353233Y944894D01*
X355056Y944654D01*
X356880Y944894D01*
X358579Y945598D01*
X360038Y946718D01*
X361158Y948177D01*
X361862Y949876D01*
X362102Y951699D01*
Y959827D01*
X361862Y961651D01*
X361158Y963350D01*
X360038Y964809D01*
X358579Y965929D01*
X356880Y966633D01*
X355056Y966873D01*
D02*
G37*
G36*
X119427Y987942D02*
X100283D01*
Y975390D01*
X78174Y953282D01*
X77164Y951769D01*
X76809Y949986D01*
Y868324D01*
X77164Y866541D01*
X78174Y865028D01*
X100283Y842920D01*
Y836960D01*
X66122Y802799D01*
X65111Y801287D01*
X64757Y799503D01*
Y741947D01*
X65111Y740163D01*
X66122Y738651D01*
X100283Y704490D01*
Y691938D01*
X119427D01*
Y698143D01*
X126639D01*
X144715Y680067D01*
X145808Y679337D01*
X147096Y679081D01*
X159004D01*
X160292Y679337D01*
X161385Y680067D01*
X163366Y682048D01*
X164096Y683140D01*
X164352Y684428D01*
Y695249D01*
X167843D01*
Y707187D01*
X167843D01*
Y707949D01*
X167843D01*
Y710810D01*
X168990D01*
X170179Y711047D01*
X171187Y711720D01*
X178113Y718646D01*
X179305Y718042D01*
X179426Y717433D01*
X179936Y716670D01*
X180699Y716160D01*
X181416Y716017D01*
Y710165D01*
X181653Y708976D01*
X182327Y707968D01*
X186651Y703643D01*
X187660Y702969D01*
X188849Y702733D01*
X272593D01*
X273782Y702969D01*
X274790Y703643D01*
X279671Y708524D01*
X280941Y707998D01*
Y701756D01*
X280923Y701665D01*
Y697109D01*
X276550Y692736D01*
X276308Y692575D01*
X266805Y683072D01*
X266075Y681979D01*
X265819Y680691D01*
Y667253D01*
X263216D01*
Y653537D01*
X275154D01*
Y667253D01*
X272552D01*
Y679296D01*
X280908Y687652D01*
X281150Y687814D01*
X285760Y692424D01*
X286399Y692551D01*
X286920Y692899D01*
X287440Y692551D01*
X288370Y692366D01*
X290470D01*
X291399Y692551D01*
X291920Y692899D01*
X292440Y692551D01*
X293370Y692366D01*
X295470D01*
X296399Y692551D01*
X296920Y692899D01*
X297440Y692551D01*
X298370Y692366D01*
X300470D01*
X301053Y691887D01*
Y682921D01*
X298956Y680824D01*
X298226Y679732D01*
X297970Y678444D01*
Y667427D01*
X296805D01*
Y663762D01*
X291465D01*
Y667253D01*
X279527D01*
Y653537D01*
X291465D01*
Y657029D01*
X296805D01*
Y653363D01*
X305869D01*
Y667427D01*
X304703D01*
Y677049D01*
X306000Y678346D01*
X306963Y679010D01*
X307740Y678362D01*
X308970Y677132D01*
Y667427D01*
X307805D01*
Y653363D01*
X316869D01*
Y657029D01*
X322387D01*
Y653537D01*
X334325D01*
X334611Y652386D01*
Y637376D01*
X175793D01*
X174505Y637120D01*
X173413Y636390D01*
X113222Y576199D01*
X104267D01*
Y564261D01*
X107758D01*
Y558419D01*
X104267D01*
Y546481D01*
X107758D01*
Y536016D01*
X107446Y535932D01*
X105272Y534678D01*
X103497Y532903D01*
X102243Y530729D01*
X101593Y528305D01*
Y525795D01*
X102243Y523371D01*
X102300Y523272D01*
X72690Y493662D01*
X58387D01*
Y482598D01*
X77451D01*
Y488901D01*
X106984Y518434D01*
X107446Y518168D01*
X109870Y517518D01*
X112380D01*
X114804Y518168D01*
X116978Y519422D01*
X118752Y521197D01*
X120007Y523371D01*
X120657Y525795D01*
Y528305D01*
X120007Y530729D01*
X118752Y532903D01*
X116978Y534678D01*
X114804Y535932D01*
X114492Y536016D01*
Y546481D01*
X117983D01*
Y558419D01*
X114492D01*
Y564261D01*
X117983D01*
Y571438D01*
X119096Y572550D01*
X120269Y572064D01*
Y564261D01*
X129590D01*
X132369Y561482D01*
Y556096D01*
X132605Y554907D01*
X133279Y553899D01*
X158690Y528488D01*
Y523797D01*
X158678Y523776D01*
X158407Y523503D01*
X157453Y522935D01*
X157146Y523062D01*
X156815D01*
X156489Y523127D01*
X156164Y523062D01*
X155833D01*
X155526Y522935D01*
X155201Y522871D01*
X154925Y522686D01*
X154619Y522560D01*
X154384Y522325D01*
X154109Y522141D01*
X144939Y512971D01*
X144210Y511879D01*
X143953Y510591D01*
Y507619D01*
X136906D01*
Y505017D01*
X120091D01*
X120007Y505329D01*
X118752Y507503D01*
X116978Y509277D01*
X114804Y510532D01*
X112380Y511182D01*
X109870D01*
X107446Y510532D01*
X105272Y509277D01*
X103497Y507503D01*
X102243Y505329D01*
X101593Y502905D01*
Y500395D01*
X102243Y497971D01*
X103497Y495797D01*
X105272Y494022D01*
X107446Y492768D01*
X109870Y492118D01*
X112380D01*
X114804Y492768D01*
X116978Y494022D01*
X118752Y495797D01*
X120007Y497971D01*
X120091Y498283D01*
X136906D01*
Y495681D01*
X150622D01*
Y503992D01*
X150687Y504317D01*
Y509196D01*
X157517Y516026D01*
X158690Y515541D01*
Y507619D01*
X152908D01*
Y495681D01*
X166624D01*
Y507619D01*
X164906D01*
Y529775D01*
X164669Y530964D01*
X163995Y531972D01*
X138584Y557384D01*
Y562770D01*
X138348Y563959D01*
X137674Y564967D01*
X136616Y566025D01*
X137102Y567198D01*
X137837D01*
X138307Y567004D01*
X139620D01*
X140834Y567507D01*
X141763Y568436D01*
X142265Y569649D01*
Y570963D01*
X141763Y572177D01*
X140834Y573106D01*
X139620Y573608D01*
X138307D01*
X137837Y573414D01*
X133985D01*
Y576199D01*
X124404D01*
X123918Y577372D01*
X177188Y630643D01*
X336490D01*
X337778Y630899D01*
X338871Y631629D01*
X340358Y633117D01*
X341088Y634209D01*
X341344Y635497D01*
Y653644D01*
X351079D01*
Y657135D01*
X363372D01*
X364661Y657391D01*
X365753Y658121D01*
X372869Y665238D01*
X376961D01*
X377287Y665302D01*
X377618D01*
X378450Y664895D01*
X378764Y664575D01*
X378853Y664417D01*
Y655345D01*
X379109Y654057D01*
X379839Y652965D01*
X399524Y633280D01*
X400616Y632550D01*
X401904Y632294D01*
X401904Y632294D01*
X499466D01*
X500754Y632550D01*
X501846Y633280D01*
X532199Y663633D01*
X532929Y664725D01*
X533185Y666013D01*
Y680974D01*
X532929Y682262D01*
X532199Y683355D01*
X526752Y688802D01*
X527278Y690072D01*
X533502D01*
Y692674D01*
X541141D01*
Y690509D01*
X560205D01*
Y701573D01*
X541141D01*
Y699407D01*
X533502D01*
Y702010D01*
X519786D01*
Y690462D01*
X506918D01*
X491148Y706232D01*
Y722674D01*
X541141D01*
Y720509D01*
X560205D01*
Y731573D01*
X541141D01*
Y729407D01*
X489313D01*
X488024Y729151D01*
X486932Y728421D01*
X485401Y726890D01*
X484671Y725798D01*
X484415Y724510D01*
Y704837D01*
X484671Y703549D01*
X485401Y702457D01*
X503143Y684715D01*
X504235Y683985D01*
X505523Y683729D01*
X522303D01*
X526452Y679579D01*
Y667408D01*
X498071Y639027D01*
X496375D01*
X495889Y640200D01*
X507383Y651695D01*
X508113Y652787D01*
X508369Y654075D01*
Y664566D01*
X511861D01*
Y676504D01*
X498145D01*
Y674613D01*
X491222D01*
X491220Y674624D01*
X490602Y675548D01*
X489678Y676166D01*
X488587Y676383D01*
X484267D01*
Y678809D01*
X488587D01*
X489678Y679026D01*
X490602Y679644D01*
X491220Y680568D01*
X491437Y681658D01*
Y686233D01*
X491220Y687324D01*
X490602Y688248D01*
X489678Y688866D01*
X488587Y689082D01*
X481141D01*
Y750542D01*
X482016Y751368D01*
X482809Y751526D01*
X482926Y751604D01*
X495870Y738660D01*
X496962Y737930D01*
X498251Y737674D01*
X504571D01*
Y735072D01*
X518287D01*
Y747010D01*
X504571D01*
Y744407D01*
X499645D01*
X485764Y758289D01*
Y761594D01*
X485764Y781736D01*
X485764Y781736D01*
X485606Y782529D01*
X485157Y783201D01*
X485157Y783201D01*
X481334Y787024D01*
X481315Y787037D01*
X481302Y787055D01*
X480980Y787261D01*
X480662Y787473D01*
X480640Y787477D01*
X480621Y787490D01*
X480245Y787556D01*
X479869Y787631D01*
X479847Y787626D01*
X479825Y787630D01*
X467658Y787371D01*
X433726Y821302D01*
X432634Y822032D01*
X431346Y822288D01*
X393217D01*
X392892Y822223D01*
X392561D01*
X392254Y822096D01*
X391929Y822032D01*
X391653Y821848D01*
X391347Y821721D01*
X391113Y821486D01*
X390837Y821302D01*
X390653Y821026D01*
X390418Y820792D01*
X390291Y820486D01*
X390107Y820210D01*
X390042Y819885D01*
X389915Y819578D01*
Y819247D01*
X389851Y818921D01*
Y814936D01*
X390107Y813648D01*
X390837Y812555D01*
X402761Y800631D01*
X402235Y799361D01*
X386183D01*
X385620Y799473D01*
X371620D01*
X370690Y799289D01*
X369902Y798762D01*
X369376Y797974D01*
X369191Y797045D01*
Y794945D01*
X369376Y794015D01*
X369724Y793495D01*
X369376Y792974D01*
X369191Y792045D01*
Y789945D01*
X369376Y789015D01*
X369724Y788495D01*
X369376Y787974D01*
X369191Y787045D01*
Y784945D01*
X369376Y784015D01*
X369724Y783495D01*
X369376Y782974D01*
X369191Y782045D01*
Y779945D01*
X369376Y779015D01*
X369724Y778495D01*
X369376Y777974D01*
X369191Y777045D01*
Y774945D01*
X368712Y774361D01*
X364411D01*
X364085Y774297D01*
X363754D01*
X363447Y774170D01*
X363122Y774105D01*
X362846Y773921D01*
X362540Y773794D01*
X362306Y773560D01*
X362030Y773375D01*
X361846Y773100D01*
X361611Y772865D01*
X361484Y772559D01*
X361300Y772283D01*
X361236Y771958D01*
X361109Y771652D01*
Y771320D01*
X361044Y770995D01*
X361109Y770670D01*
Y770338D01*
X361236Y770032D01*
X361300Y769706D01*
X361484Y769431D01*
X361611Y769124D01*
X361846Y768890D01*
X362030Y768614D01*
X362306Y768430D01*
X362540Y768195D01*
X362846Y768069D01*
X363122Y767884D01*
X363447Y767820D01*
X363754Y767693D01*
X363973D01*
X364267Y767491D01*
X364919Y766652D01*
Y766320D01*
X364854Y765995D01*
X364919Y765670D01*
Y765338D01*
X365046Y765032D01*
X365110Y764706D01*
X365294Y764431D01*
X365421Y764124D01*
X365656Y763890D01*
X365840Y763614D01*
X366116Y763430D01*
X366350Y763195D01*
X366656Y763069D01*
X366932Y762884D01*
X367257Y762820D01*
X367564Y762693D01*
X367895D01*
X368221Y762628D01*
X368712D01*
X369191Y762045D01*
Y759945D01*
X369376Y759015D01*
X369724Y758495D01*
X369376Y757974D01*
X369191Y757045D01*
Y754945D01*
X369376Y754015D01*
X369724Y753495D01*
X369376Y752974D01*
X369191Y752045D01*
Y749945D01*
X368712Y749361D01*
X365909D01*
X364621Y749105D01*
X363528Y748375D01*
X356191Y741038D01*
X355461Y739946D01*
X355205Y738658D01*
Y730868D01*
X354032Y730382D01*
X341038Y743375D01*
X339946Y744105D01*
X338658Y744361D01*
X275127D01*
X274648Y744945D01*
Y747045D01*
X275127Y747628D01*
X309721D01*
X311009Y747884D01*
X312101Y748614D01*
X397533Y834046D01*
X411277D01*
X411602Y834111D01*
X419913D01*
Y847827D01*
X407975D01*
Y840779D01*
X396138D01*
X395781Y840708D01*
X394707Y841678D01*
X394683Y841785D01*
Y845825D01*
X394472Y846886D01*
X393871Y847785D01*
X392972Y848386D01*
X391911Y848597D01*
X380886D01*
X379824Y848386D01*
X378925Y847785D01*
X378324Y846886D01*
X378113Y845825D01*
Y841700D01*
X378324Y840639D01*
X378925Y839739D01*
X379824Y839138D01*
X380886Y838927D01*
X391095D01*
X391622Y837657D01*
X364072Y810107D01*
X362898Y810593D01*
Y822195D01*
X362713Y823124D01*
X362187Y823912D01*
X361399Y824439D01*
X360470Y824623D01*
X358370D01*
X357440Y824439D01*
X356920Y824091D01*
X356399Y824439D01*
X355470Y824623D01*
X353370D01*
X352440Y824439D01*
X351920Y824091D01*
X351399Y824439D01*
X350470Y824623D01*
X348370D01*
X347440Y824439D01*
X346920Y824091D01*
X346399Y824439D01*
X345470Y824623D01*
X343370D01*
X342786Y825102D01*
Y830327D01*
X342697Y830777D01*
Y831008D01*
X342608Y831222D01*
X342530Y831615D01*
X342308Y831948D01*
X342194Y832222D01*
X341984Y832431D01*
X341800Y832707D01*
X341775Y832732D01*
X341500Y832916D01*
X341265Y833151D01*
X341133Y833206D01*
X340951Y833742D01*
X340938Y834438D01*
X340997Y834663D01*
X342223Y835889D01*
X342290D01*
Y835956D01*
X344009Y837675D01*
X344458Y838347D01*
X344616Y839140D01*
X344616Y839140D01*
Y840396D01*
X354786D01*
X355225Y839739D01*
X356124Y839138D01*
X357186Y838927D01*
X364391D01*
X370113Y833205D01*
X370190Y833019D01*
X370514Y832695D01*
X370770Y832313D01*
X371151Y832058D01*
X371476Y831733D01*
X371900Y831557D01*
X372282Y831302D01*
X372732Y831213D01*
X373156Y831037D01*
X373616D01*
X374066Y830948D01*
X374516Y831037D01*
X374975D01*
X375399Y831213D01*
X375850Y831302D01*
X376231Y831557D01*
X376656Y831733D01*
X376980Y832058D01*
X377362Y832313D01*
X377617Y832695D01*
X377942Y833019D01*
X378117Y833444D01*
X378372Y833825D01*
X378462Y834276D01*
X378638Y834700D01*
Y835159D01*
X378727Y835609D01*
Y835844D01*
X378638Y836295D01*
Y836519D01*
X378552Y836725D01*
X378372Y837628D01*
X377362Y839141D01*
X370983Y845519D01*
Y845825D01*
X370772Y846886D01*
X370171Y847785D01*
X369272Y848386D01*
X368210Y848597D01*
X357186D01*
X356124Y848386D01*
X355225Y847785D01*
X354786Y847129D01*
X346512D01*
X346026Y848302D01*
X353816Y856093D01*
X367871D01*
X367873Y856093D01*
X367876Y856093D01*
X368270Y856172D01*
X368663Y856250D01*
X368666Y856252D01*
X368668Y856252D01*
X368999Y856475D01*
X369336Y856699D01*
X369337Y856702D01*
X369339Y856703D01*
X371606Y858981D01*
X371608Y858983D01*
X371610Y858984D01*
X371832Y859321D01*
X372054Y859654D01*
X372054Y859656D01*
X372056Y859659D01*
X372132Y860051D01*
X372209Y860447D01*
X372209Y860450D01*
X372209Y860452D01*
X372195Y863411D01*
X373463Y863940D01*
X377401Y860001D01*
X383828Y853575D01*
X383828Y853575D01*
X384500Y853126D01*
X385293Y852968D01*
X385293Y852968D01*
X394183D01*
X394183Y852968D01*
X394976Y853126D01*
X395648Y853575D01*
X398746Y856674D01*
X399196Y857346D01*
X399353Y858139D01*
X399353Y858139D01*
Y863676D01*
X399353Y863676D01*
X399196Y864469D01*
X398746Y865141D01*
X394860Y869027D01*
X394188Y869476D01*
X393395Y869634D01*
X393395Y869634D01*
X384576D01*
X380837Y873374D01*
Y897027D01*
X383883Y900074D01*
X509096D01*
Y895163D01*
X528240D01*
Y914307D01*
X509096D01*
Y909397D01*
X381952D01*
X380168Y909042D01*
X378656Y908031D01*
X376603Y905979D01*
X375577Y907005D01*
X375556Y907026D01*
X374848Y907647D01*
X374625Y908713D01*
Y921487D01*
X362687D01*
Y919494D01*
X359408D01*
Y921660D01*
X343614D01*
X343176Y921660D01*
X343051Y922930D01*
X343667Y923052D01*
X344340Y923501D01*
X345150Y924311D01*
X345185D01*
Y924347D01*
X346016Y925178D01*
X346051Y925230D01*
X347321Y924845D01*
Y924311D01*
X360885D01*
Y927442D01*
X363804D01*
X364254Y927532D01*
X364714D01*
X365138Y927708D01*
X365588Y927797D01*
X365970Y928052D01*
X366394Y928228D01*
X366719Y928552D01*
X367100Y928808D01*
X367227Y928935D01*
X367482Y929316D01*
X367680Y929514D01*
X367787Y929772D01*
X368238Y930447D01*
X368593Y932231D01*
X368238Y934015D01*
X367227Y935527D01*
X365715Y936537D01*
X363931Y936892D01*
X363293Y936765D01*
X360885D01*
Y938575D01*
X347321D01*
Y937306D01*
X347313Y937301D01*
X346051Y936921D01*
X346016Y936973D01*
X346016Y936973D01*
X346016Y936973D01*
X345185Y937803D01*
Y938575D01*
X344412D01*
X344339Y938649D01*
X344339Y938649D01*
X344339Y938649D01*
X344339Y938649D01*
X344025Y938858D01*
X343667Y939098D01*
X343667Y939098D01*
X343666Y939098D01*
X343240Y939183D01*
X342874Y939256D01*
X342873D01*
X342873Y939256D01*
X342873Y939256D01*
X328544D01*
X327941Y939859D01*
Y953795D01*
X326146D01*
X326061Y954220D01*
X325191Y955522D01*
X316713Y964000D01*
X315411Y964870D01*
X313875Y965175D01*
X283838D01*
X282302Y964870D01*
X280999Y964000D01*
X272522Y955522D01*
X271651Y954220D01*
X271567Y953795D01*
X269772D01*
Y938809D01*
X277985D01*
Y919861D01*
X273761D01*
Y907923D01*
X287477D01*
Y919861D01*
X284719D01*
Y938809D01*
X288242D01*
Y937833D01*
X288498Y936545D01*
X289228Y935453D01*
X290716Y933965D01*
X291808Y933235D01*
X293096Y932979D01*
X298272D01*
X298586Y932721D01*
Y927315D01*
X298842Y926026D01*
X299572Y924934D01*
X300167Y924339D01*
X300012Y922823D01*
X299536Y922504D01*
X297740Y920708D01*
X297554Y920431D01*
X296739Y919616D01*
X291436D01*
Y903552D01*
X301500D01*
Y914855D01*
X302501Y915855D01*
X302686Y916133D01*
X303493Y916940D01*
X303864Y917013D01*
X304956Y917743D01*
X305968Y918755D01*
X306981Y917743D01*
X308073Y917013D01*
X308443Y916940D01*
X309251Y916133D01*
X309436Y915855D01*
X310436Y914855D01*
Y903552D01*
X320500D01*
Y919616D01*
X315198D01*
X314383Y920431D01*
X314197Y920708D01*
X312401Y922504D01*
X311309Y923234D01*
X311240Y923248D01*
Y926782D01*
X310984Y928070D01*
X310254Y929163D01*
X309129Y930287D01*
Y933063D01*
X310303Y933549D01*
X327127Y916725D01*
Y907771D01*
X339065D01*
Y921487D01*
X331888D01*
X315835Y937539D01*
X316361Y938809D01*
X318013D01*
X318452Y938153D01*
X318452Y938153D01*
X331621Y924984D01*
Y924311D01*
X332294D01*
X333104Y923501D01*
X333776Y923052D01*
X334569Y922895D01*
X334569Y922895D01*
X341814D01*
X342259Y922895D01*
X342343Y921660D01*
X342344Y921626D01*
X342344Y920734D01*
Y910596D01*
X359408D01*
Y912761D01*
X362687D01*
Y907771D01*
X362942D01*
X363588Y906501D01*
X363490Y906354D01*
X363470Y906252D01*
X362703Y905485D01*
X362687D01*
Y905468D01*
X360206Y902987D01*
X360195Y902972D01*
X360180Y902961D01*
X359971Y902636D01*
X359757Y902315D01*
X359753Y902297D01*
X359743Y902281D01*
X359674Y901902D01*
X359599Y901522D01*
X359602Y901504D01*
X359599Y901486D01*
X359745Y893214D01*
X359334Y892221D01*
Y890402D01*
X359815Y889240D01*
X360010Y878215D01*
X360092Y877838D01*
X360167Y877459D01*
X360178Y877443D01*
X360182Y877425D01*
X360402Y877108D01*
X360616Y876786D01*
X363352Y874051D01*
Y872569D01*
X363945D01*
X364175Y872225D01*
X363496Y870955D01*
X354485D01*
X354274Y871042D01*
X352455D01*
X352245Y870955D01*
X331698D01*
X330905Y870797D01*
X330233Y870348D01*
X330233Y870348D01*
X326144Y866259D01*
X325695Y865587D01*
X325537Y864794D01*
X325537Y864794D01*
Y840029D01*
X325695Y839236D01*
X326144Y838564D01*
X326144Y838564D01*
X328574Y836134D01*
Y835889D01*
X328819D01*
X330106Y834601D01*
X330284Y834483D01*
X329758Y833307D01*
X329726D01*
X329401Y833371D01*
X329075Y833307D01*
X328744D01*
X328437Y833180D01*
X328112Y833115D01*
X327836Y832931D01*
X327530Y832804D01*
X326938Y832440D01*
X326370Y832823D01*
X326113Y832930D01*
X325930Y833040D01*
X325788Y833134D01*
X325463Y833199D01*
X325156Y833326D01*
X324825D01*
X324500Y833391D01*
X324174Y833326D01*
X323843D01*
X323536Y833199D01*
X323211Y833134D01*
X322935Y832950D01*
X322629Y832823D01*
X321972Y832357D01*
X321210Y832734D01*
X320904Y832861D01*
X320628Y833045D01*
X320303Y833110D01*
X319996Y833237D01*
X319665D01*
X319340Y833302D01*
X319014Y833237D01*
X318683D01*
X318376Y833110D01*
X318051Y833045D01*
X317776Y832861D01*
X317469Y832734D01*
X316980Y832385D01*
X316704Y832569D01*
X316469Y832804D01*
X316163Y832931D01*
X315887Y833115D01*
X315562Y833180D01*
X315256Y833307D01*
X314924D01*
X314599Y833371D01*
X314274Y833307D01*
X313942D01*
X313636Y833180D01*
X313311Y833115D01*
X313035Y832931D01*
X312729Y832804D01*
X312376Y832491D01*
X312218Y832385D01*
X312218Y832385D01*
X312039Y832206D01*
X311395Y832490D01*
X311088Y832617D01*
X310813Y832801D01*
X310488Y832866D01*
X310181Y832993D01*
X309850D01*
X309524Y833058D01*
X309199Y832993D01*
X308868D01*
X308034Y833425D01*
X307727Y833750D01*
X307656Y833882D01*
Y840628D01*
X309873Y842845D01*
X310603Y843937D01*
X310859Y845226D01*
Y872516D01*
X312267Y873924D01*
X342621D01*
X343909Y874180D01*
X345001Y874910D01*
X347890Y877799D01*
X356845D01*
Y889737D01*
X343129D01*
Y882560D01*
X342113Y881544D01*
X340843Y882070D01*
Y889737D01*
X327127D01*
Y887134D01*
X320500D01*
Y894616D01*
X309335D01*
Y897500D01*
X309372Y897589D01*
Y897920D01*
X309437Y898246D01*
X309372Y898571D01*
Y898902D01*
X309245Y899209D01*
X309180Y899534D01*
X308996Y899810D01*
X308869Y900116D01*
X308635Y900350D01*
X308451Y900626D01*
X308175Y900810D01*
X307940Y901045D01*
X307634Y901172D01*
X307358Y901356D01*
X307033Y901421D01*
X306727Y901548D01*
X306395D01*
X306070Y901612D01*
X305745Y901548D01*
X305413D01*
X305107Y901421D01*
X304782Y901356D01*
X304506Y901172D01*
X304200Y901045D01*
X303965Y900810D01*
X303689Y900626D01*
X303588Y900525D01*
X303404Y900249D01*
X303271Y900116D01*
X303199Y899942D01*
X302858Y899432D01*
X302602Y898144D01*
Y894616D01*
X296198D01*
X294658Y896156D01*
X293565Y896886D01*
X292277Y897142D01*
X285547D01*
Y901878D01*
X271831D01*
Y889940D01*
X271831D01*
X271770Y888695D01*
X271602D01*
Y881029D01*
X270332Y880502D01*
X269316Y881518D01*
Y888695D01*
X269316D01*
X269377Y889940D01*
X269545D01*
Y901878D01*
X255829D01*
Y900570D01*
X213411D01*
X131744Y982238D01*
X130232Y983248D01*
X128448Y983603D01*
X119427D01*
Y987942D01*
D02*
G37*
G36*
X519928Y939307D02*
X517408D01*
X514973Y938655D01*
X512791Y937395D01*
X511008Y935612D01*
X509748Y933430D01*
X509660Y933102D01*
X503885D01*
X503560Y933037D01*
X503228D01*
X502922Y932910D01*
X502597Y932846D01*
X502321Y932661D01*
X502015Y932534D01*
X501780Y932300D01*
X501505Y932116D01*
X501320Y931840D01*
X501086Y931606D01*
X500959Y931299D01*
X500775Y931024D01*
X500710Y930698D01*
X500583Y930392D01*
Y930060D01*
X500518Y929735D01*
X500583Y929410D01*
Y929078D01*
X500710Y928772D01*
X500775Y928447D01*
X500959Y928171D01*
X501086Y927865D01*
X501320Y927630D01*
X501505Y927355D01*
X501780Y927170D01*
X502015Y926936D01*
X502321Y926809D01*
X502597Y926625D01*
X502922Y926560D01*
X503228Y926433D01*
X503560D01*
X503885Y926368D01*
X509660D01*
X509748Y926040D01*
X511008Y923858D01*
X512791Y922076D01*
X514973Y920816D01*
X517408Y920163D01*
X519928D01*
X522363Y920816D01*
X524545Y922076D01*
X526328Y923858D01*
X527588Y926040D01*
X528240Y928475D01*
Y930995D01*
X527588Y933430D01*
X526328Y935612D01*
X524545Y937395D01*
X522363Y938655D01*
X519928Y939307D01*
D02*
G37*
G36*
X442112Y877773D02*
X428396D01*
Y865835D01*
X432202D01*
Y861821D01*
X429707D01*
X428626Y861607D01*
X427710Y860994D01*
X427147Y860152D01*
X419913D01*
Y863829D01*
X407975D01*
Y850113D01*
X419913D01*
Y853419D01*
X427147D01*
X427710Y852576D01*
X428626Y851964D01*
X429707Y851749D01*
X441432D01*
X442512Y851964D01*
X443428Y852576D01*
X444040Y853492D01*
X444255Y854573D01*
Y858998D01*
X444040Y860078D01*
X443428Y860994D01*
X442512Y861607D01*
X441432Y861821D01*
X438936D01*
Y865835D01*
X442112D01*
Y877773D01*
D02*
G37*
G36*
X519369Y854687D02*
X516849D01*
X514414Y854035D01*
X512232Y852775D01*
X510450Y850993D01*
X509482Y849317D01*
X464492D01*
X464341Y850078D01*
X463728Y850994D01*
X462812Y851607D01*
X461732Y851821D01*
X450007D01*
X448926Y851607D01*
X448010Y850994D01*
X447398Y850078D01*
X447183Y848998D01*
Y844573D01*
X447398Y843492D01*
X448010Y842576D01*
X448926Y841964D01*
X450007Y841749D01*
X461732D01*
X462812Y841964D01*
X463728Y842576D01*
X463733Y842583D01*
X466704D01*
X466998Y841947D01*
X467093Y841313D01*
X466903Y841124D01*
X466522Y840869D01*
X466267Y840487D01*
X465942Y840163D01*
X465766Y839738D01*
X465511Y839357D01*
X465422Y838906D01*
X465246Y838482D01*
Y838023D01*
X465156Y837573D01*
X465246Y837122D01*
Y836663D01*
X465422Y836239D01*
X465511Y835789D01*
X465766Y835407D01*
X465942Y834983D01*
X466267Y834658D01*
X466522Y834276D01*
X466903Y834021D01*
X467228Y833697D01*
X467652Y833521D01*
X468034Y833266D01*
X468484Y833176D01*
X468909Y833001D01*
X469368D01*
X469818Y832911D01*
X470710D01*
X471196Y831738D01*
X469118Y829660D01*
X468108Y828148D01*
X467753Y826364D01*
Y815111D01*
X468108Y813327D01*
X469118Y811815D01*
X477936Y802998D01*
X479448Y801987D01*
X481232Y801632D01*
X591387D01*
X597344Y795676D01*
Y677723D01*
X591642Y672021D01*
X553034D01*
X551250Y671666D01*
X549738Y670656D01*
X470104Y591022D01*
X463803D01*
X463540Y591285D01*
X462027Y592296D01*
X460243Y592651D01*
X425907D01*
X424123Y592296D01*
X422611Y591285D01*
X406615Y575289D01*
X403567Y577920D01*
X403280Y578082D01*
X403006Y578265D01*
X402931Y578280D01*
X402864Y578318D01*
X402537Y578359D01*
X402214Y578423D01*
X382549D01*
X382175Y578349D01*
X381798Y578282D01*
X381779Y578270D01*
X381757Y578265D01*
X381439Y578053D01*
X381117Y577848D01*
X375538Y572507D01*
X375525Y572488D01*
X375506Y572475D01*
X375294Y572158D01*
X375075Y571845D01*
X375070Y571822D01*
X375057Y571803D01*
X374982Y571429D01*
X374900Y571055D01*
X374904Y571033D01*
X374899Y571010D01*
Y433979D01*
X374899Y433978D01*
X375057Y433186D01*
X375506Y432513D01*
X375506Y432513D01*
X383298Y424722D01*
X383298Y424722D01*
X383970Y424272D01*
X384763Y424115D01*
X384763Y424115D01*
X400126Y424115D01*
X400919Y424272D01*
X401591Y424722D01*
X401591Y424722D01*
X411624Y434755D01*
X412073Y435427D01*
X412231Y436220D01*
X412231Y436220D01*
Y567721D01*
X427838Y583328D01*
X430983D01*
Y566085D01*
X450347D01*
Y581848D01*
X450428Y581872D01*
X451674Y580915D01*
Y488595D01*
X451674Y488594D01*
X451832Y487802D01*
X452281Y487129D01*
X452281Y487129D01*
X459139Y480271D01*
X459811Y479822D01*
X460604Y479665D01*
X460604Y479665D01*
X472491D01*
X473284Y479822D01*
X473956Y480271D01*
X473956Y480271D01*
X479569Y485885D01*
X480018Y486557D01*
X480176Y487350D01*
X480176Y487350D01*
Y582701D01*
X480176Y582701D01*
X480018Y583494D01*
X479569Y584166D01*
X479569Y584166D01*
X478001Y585734D01*
X554965Y662698D01*
X593573D01*
X595356Y663053D01*
X596869Y664063D01*
X605302Y672496D01*
X606312Y674008D01*
X606667Y675792D01*
Y797607D01*
X606312Y799391D01*
X605302Y800903D01*
X596614Y809590D01*
X595102Y810601D01*
X593318Y810956D01*
X527681D01*
Y829687D01*
X508537D01*
Y824752D01*
X488518D01*
Y828243D01*
X482546D01*
X482060Y829417D01*
X483173Y830529D01*
X488518D01*
Y842583D01*
X508878D01*
X509189Y841421D01*
X510450Y839238D01*
X512232Y837456D01*
X514414Y836196D01*
X516849Y835543D01*
X519369D01*
X521804Y836196D01*
X523987Y837456D01*
X525769Y839238D01*
X527029Y841421D01*
X527681Y843855D01*
Y846375D01*
X527029Y848810D01*
X525769Y850993D01*
X523987Y852775D01*
X521804Y854035D01*
X519369Y854687D01*
D02*
G37*
G36*
X584205Y762073D02*
X572141D01*
Y748009D01*
X584205D01*
Y762073D01*
D02*
G37*
G36*
X564205D02*
X552141D01*
Y748009D01*
X564205D01*
Y762073D01*
D02*
G37*
G36*
X534289Y747010D02*
X520573D01*
Y735072D01*
X534289D01*
Y737933D01*
X541141D01*
Y735509D01*
X560205D01*
Y746573D01*
X541141D01*
Y744148D01*
X534289D01*
Y747010D01*
D02*
G37*
G36*
X569033Y740073D02*
X567313D01*
X565651Y739628D01*
X564162Y738767D01*
X562946Y737551D01*
X562086Y736062D01*
X561641Y734400D01*
Y732681D01*
X562086Y731019D01*
X562946Y729530D01*
X564162Y728314D01*
X565651Y727454D01*
X567313Y727009D01*
X569033D01*
X570694Y727454D01*
X572183Y728314D01*
X573400Y729530D01*
X574259Y731019D01*
X574705Y732681D01*
Y734400D01*
X574259Y736062D01*
X573400Y737551D01*
X572183Y738767D01*
X570694Y739628D01*
X569033Y740073D01*
D02*
G37*
G36*
Y710073D02*
X567313D01*
X565651Y709628D01*
X564162Y708767D01*
X562946Y707551D01*
X562086Y706062D01*
X561641Y704400D01*
Y702681D01*
X562086Y701019D01*
X562946Y699530D01*
X564162Y698314D01*
X565651Y697454D01*
X567313Y697009D01*
X569033D01*
X570694Y697454D01*
X572183Y698314D01*
X573400Y699530D01*
X574259Y701019D01*
X574705Y702681D01*
Y704400D01*
X574259Y706062D01*
X573400Y707551D01*
X572183Y708767D01*
X570694Y709628D01*
X569033Y710073D01*
D02*
G37*
G36*
X584205Y689073D02*
X572141D01*
Y675009D01*
X584205D01*
Y689073D01*
D02*
G37*
G36*
X564205D02*
X552141D01*
Y675009D01*
X564205D01*
Y689073D01*
D02*
G37*
G36*
X111115Y686082D02*
X108595D01*
X106160Y685430D01*
X103978Y684169D01*
X102196Y682387D01*
X100935Y680205D01*
X100283Y677770D01*
Y675250D01*
X100935Y672815D01*
X102196Y670633D01*
X103978Y668850D01*
X106160Y667590D01*
X108595Y666938D01*
X111115D01*
X113550Y667590D01*
X115732Y668850D01*
X117514Y670633D01*
X118775Y672815D01*
X118863Y673143D01*
X132544D01*
X133172Y673268D01*
X133261D01*
X133343Y673302D01*
X133832Y673400D01*
X134247Y673677D01*
X134474Y673771D01*
X134649Y673945D01*
X134924Y674129D01*
X134985Y674190D01*
X135169Y674465D01*
X135403Y674700D01*
X135530Y675006D01*
X135714Y675282D01*
X135779Y675607D01*
X135906Y675913D01*
Y676245D01*
X135971Y676570D01*
X135906Y676896D01*
Y677227D01*
X135779Y677533D01*
X135714Y677859D01*
X135530Y678134D01*
X135403Y678441D01*
X135169Y678675D01*
X134985Y678951D01*
X134709Y679135D01*
X134474Y679370D01*
X134168Y679497D01*
X133892Y679681D01*
X133567Y679745D01*
X133261Y679872D01*
X132929D01*
X132604Y679937D01*
X132301Y679877D01*
X118863D01*
X118775Y680205D01*
X117514Y682387D01*
X115732Y684169D01*
X113550Y685430D01*
X111115Y686082D01*
D02*
G37*
G36*
Y661082D02*
X108595D01*
X106160Y660430D01*
X103978Y659169D01*
X102196Y657387D01*
X100935Y655205D01*
X100283Y652770D01*
Y650250D01*
X100935Y647815D01*
X102196Y645633D01*
X103978Y643850D01*
X106160Y642590D01*
X108595Y641938D01*
X111115D01*
X113550Y642590D01*
X115732Y643850D01*
X117514Y645633D01*
X118775Y647815D01*
X118863Y648143D01*
X132308D01*
X132436Y648118D01*
X132761Y648183D01*
X133092D01*
X133399Y648309D01*
X133724Y648374D01*
X134000Y648558D01*
X134306Y648685D01*
X134541Y648920D01*
X134816Y649104D01*
X135000Y649380D01*
X135235Y649614D01*
X135362Y649921D01*
X135546Y650196D01*
X135611Y650521D01*
X135738Y650828D01*
Y651159D01*
X135802Y651485D01*
X135738Y651810D01*
Y652141D01*
X135611Y652448D01*
X135546Y652773D01*
X135362Y653049D01*
X135235Y653355D01*
X135000Y653589D01*
X134816Y653865D01*
X134791Y653891D01*
X134515Y654075D01*
X134306Y654284D01*
X134033Y654397D01*
X133699Y654620D01*
X133304Y654699D01*
X133092Y654787D01*
X132863D01*
X132410Y654877D01*
X118863D01*
X118775Y655205D01*
X117514Y657387D01*
X115732Y659169D01*
X113550Y660430D01*
X111115Y661082D01*
D02*
G37*
G36*
X336575Y599770D02*
X322859D01*
Y597168D01*
X319174D01*
X317569Y598773D01*
X317293Y598957D01*
X317059Y599191D01*
X316753Y599318D01*
X316477Y599502D01*
X316152Y599567D01*
X315845Y599694D01*
X315514D01*
X315189Y599759D01*
X314863Y599694D01*
X314532D01*
X314225Y599567D01*
X313900Y599502D01*
X313625Y599318D01*
X313318Y599191D01*
X313084Y598957D01*
X312808Y598773D01*
X312624Y598497D01*
X312389Y598262D01*
X312262Y597956D01*
X312078Y597680D01*
X312013Y597355D01*
X311887Y597049D01*
Y596717D01*
X311822Y596392D01*
X311887Y596067D01*
Y595735D01*
X312013Y595429D01*
X312078Y595104D01*
X312262Y594828D01*
X312389Y594522D01*
X312624Y594287D01*
X312808Y594011D01*
X315399Y591421D01*
X316491Y590691D01*
X317779Y590434D01*
X322859D01*
Y587832D01*
X336575D01*
Y599770D01*
D02*
G37*
G36*
X248945D02*
X235229D01*
Y597168D01*
X232636D01*
X231565Y598239D01*
X231289Y598423D01*
X231055Y598658D01*
X230748Y598785D01*
X230473Y598969D01*
X230147Y599034D01*
X229841Y599161D01*
X229509D01*
X229184Y599225D01*
X228859Y599161D01*
X228527D01*
X228221Y599034D01*
X227896Y598969D01*
X227620Y598785D01*
X227314Y598658D01*
X227079Y598423D01*
X226804Y598239D01*
X226619Y597963D01*
X226385Y597729D01*
X226258Y597423D01*
X226074Y597147D01*
X226009Y596822D01*
X225882Y596515D01*
Y596184D01*
X225818Y595859D01*
X225882Y595533D01*
Y595202D01*
X226009Y594895D01*
X226074Y594570D01*
X226258Y594295D01*
X226385Y593988D01*
X226619Y593754D01*
X226804Y593478D01*
X228861Y591421D01*
X229953Y590691D01*
X231242Y590434D01*
X235229D01*
Y587832D01*
X248945D01*
Y599770D01*
D02*
G37*
G36*
X392120Y618843D02*
X381056D01*
Y601779D01*
X383481D01*
Y599770D01*
X379501D01*
Y587832D01*
X393217D01*
Y599770D01*
X389696D01*
Y601779D01*
X392120D01*
Y618843D01*
D02*
G37*
G36*
X351480D02*
X340416D01*
Y601779D01*
X342841D01*
Y599770D01*
X338861D01*
Y587832D01*
X352577D01*
Y595867D01*
X353797Y595989D01*
X353923Y595683D01*
X353988Y595358D01*
X354172Y595082D01*
X354299Y594776D01*
X354534Y594541D01*
X354718Y594265D01*
X357563Y591421D01*
X358655Y590691D01*
X359943Y590434D01*
X363499D01*
Y587832D01*
X377215D01*
Y599770D01*
X363499D01*
Y597168D01*
X361338D01*
X359479Y599027D01*
X359203Y599211D01*
X358969Y599445D01*
X358663Y599572D01*
X358387Y599756D01*
X358062Y599821D01*
X357755Y599948D01*
X357424D01*
X357099Y600013D01*
X356773Y599948D01*
X356442D01*
X356135Y599821D01*
X355810Y599756D01*
X355535Y599572D01*
X355228Y599445D01*
X354994Y599211D01*
X354718Y599027D01*
X354534Y598751D01*
X354299Y598516D01*
X354172Y598210D01*
X353988Y597934D01*
X353923Y597609D01*
X353797Y597303D01*
X352577Y597425D01*
Y599770D01*
X349056D01*
Y601779D01*
X351480D01*
Y618843D01*
D02*
G37*
G36*
X308300D02*
X297236D01*
Y601779D01*
X299661D01*
Y599770D01*
X295681D01*
Y587832D01*
X309397D01*
Y599770D01*
X305876D01*
Y601779D01*
X308300D01*
Y618843D01*
D02*
G37*
G36*
X271270Y602199D02*
X270945Y602134D01*
X270613D01*
X270307Y602007D01*
X269982Y601942D01*
X269706Y601758D01*
X269400Y601631D01*
X269165Y601397D01*
X268890Y601213D01*
X268706Y600937D01*
X268471Y600703D01*
X268344Y600396D01*
X268160Y600120D01*
X268095Y599795D01*
X267968Y599489D01*
Y599157D01*
X267904Y598832D01*
X267968Y598507D01*
Y598175D01*
X268095Y597869D01*
X268160Y597544D01*
X268344Y597268D01*
X268471Y596962D01*
X268706Y596727D01*
X268890Y596451D01*
X273921Y591421D01*
X275013Y590691D01*
X276301Y590434D01*
X279679D01*
Y587832D01*
X293395D01*
Y599770D01*
X279679D01*
Y597168D01*
X277696D01*
X273651Y601213D01*
X273375Y601397D01*
X273141Y601631D01*
X272834Y601758D01*
X272559Y601942D01*
X272234Y602007D01*
X271927Y602134D01*
X271595D01*
X271270Y602199D01*
D02*
G37*
G36*
X263850Y618843D02*
X252786D01*
Y601779D01*
X255211D01*
Y599770D01*
X251231D01*
Y587832D01*
X264947D01*
Y599770D01*
X261426D01*
Y601779D01*
X263850D01*
Y618843D01*
D02*
G37*
G36*
X329311Y572099D02*
X329311Y572099D01*
X307924D01*
X307924Y572099D01*
X307131Y571941D01*
X306459Y571492D01*
X306459Y571492D01*
X277881Y542914D01*
X276579D01*
X275514Y543408D01*
X275514Y544184D01*
Y557124D01*
X263576D01*
Y557124D01*
X262814D01*
Y557124D01*
X250876D01*
Y543408D01*
X252335D01*
Y539786D01*
X251562Y539269D01*
X250755Y538061D01*
X250471Y536637D01*
Y520177D01*
X250755Y518752D01*
X251562Y517544D01*
X252770Y516736D01*
X254195Y516453D01*
X256955D01*
X258380Y516736D01*
X259588Y517544D01*
X260395Y518752D01*
X260532Y519439D01*
X260588Y519468D01*
X261775Y519647D01*
X261865Y519631D01*
X262065Y519332D01*
X277709Y503687D01*
Y492252D01*
X277867Y491459D01*
X278316Y490787D01*
X278316Y490787D01*
X281829Y487274D01*
X281356Y486004D01*
X281356D01*
Y482273D01*
X273378D01*
Y487137D01*
X273095Y488562D01*
X272288Y489770D01*
X271080Y490577D01*
X269655Y490860D01*
X266895D01*
X265470Y490577D01*
X264262Y489770D01*
X263455Y488562D01*
X263171Y487137D01*
Y470677D01*
X263455Y469252D01*
X264262Y468044D01*
X265470Y467237D01*
X266895Y466953D01*
X269655D01*
X271080Y467237D01*
X272288Y468044D01*
X273095Y469252D01*
X273378Y470677D01*
Y475540D01*
X281356D01*
Y472288D01*
X293294D01*
Y483878D01*
X294467Y484364D01*
X309939Y468892D01*
X310611Y468443D01*
X311404Y468285D01*
X311404Y468285D01*
X327558D01*
X327558Y468285D01*
X328351Y468443D01*
X329023Y468892D01*
X337710Y477579D01*
X338159Y478251D01*
X338317Y479044D01*
X338317Y479044D01*
Y563092D01*
X338317Y563092D01*
X338159Y563885D01*
X337710Y564557D01*
X337710Y564558D01*
X330776Y571492D01*
X330776Y571492D01*
X330104Y571941D01*
X329311Y572099D01*
D02*
G37*
G36*
X272239Y576795D02*
X271914Y576731D01*
X271582D01*
X271276Y576604D01*
X270951Y576539D01*
X270675Y576355D01*
X270368Y576228D01*
X270134Y575994D01*
X269858Y575809D01*
X269831Y575782D01*
X269647Y575507D01*
X269440Y575299D01*
X269327Y575028D01*
X269101Y574690D01*
X269022Y574291D01*
X268937Y574086D01*
Y573863D01*
X268845Y573402D01*
Y573126D01*
X263576D01*
Y559410D01*
X275514D01*
Y568609D01*
X275578Y568935D01*
Y573293D01*
X275606Y573429D01*
X275541Y573754D01*
Y574086D01*
X275414Y574392D01*
X275349Y574717D01*
X275165Y574993D01*
X275038Y575299D01*
X274804Y575534D01*
X274620Y575809D01*
X274344Y575994D01*
X274109Y576228D01*
X273803Y576355D01*
X273527Y576539D01*
X273202Y576604D01*
X272896Y576731D01*
X272564D01*
X272239Y576795D01*
D02*
G37*
G36*
X236144Y573126D02*
Y573126D01*
X235673Y573126D01*
X224206D01*
Y559410D01*
X236144D01*
Y559409D01*
X236906D01*
Y559410D01*
X248844D01*
Y573126D01*
X237377D01*
X236906Y573126D01*
Y573126D01*
X236144D01*
D02*
G37*
G36*
X450347Y557509D02*
X430983D01*
Y538145D01*
X450347D01*
Y557509D01*
D02*
G37*
G36*
X248844Y557124D02*
X236906D01*
Y543408D01*
X239508D01*
Y539701D01*
X238862Y539269D01*
X238055Y538061D01*
X237949Y537528D01*
X236654Y537528D01*
X236559Y538003D01*
X236110Y538675D01*
X236110Y538675D01*
X230776Y544009D01*
X230104Y544458D01*
X229311Y544616D01*
X229311Y544616D01*
X198730D01*
X198640Y544598D01*
X198550Y544608D01*
X198246Y544520D01*
X197937Y544458D01*
X197861Y544408D01*
X197773Y544382D01*
X197527Y544184D01*
X197265Y544009D01*
X197214Y543933D01*
X197143Y543876D01*
X193977Y540106D01*
X193218D01*
Y539202D01*
X192202Y537992D01*
X191712Y538030D01*
X190932Y538389D01*
Y540106D01*
X177216D01*
Y528168D01*
X179412D01*
Y494360D01*
X179767Y492576D01*
X180778Y491064D01*
X200037Y471805D01*
X108926Y380694D01*
X105757Y383862D01*
X105085Y384311D01*
X104292Y384469D01*
X104292Y384469D01*
X93320D01*
X93320Y384469D01*
X92527Y384311D01*
X91855Y383862D01*
X84942Y376950D01*
X83672Y377118D01*
X83453Y377118D01*
X64308D01*
Y357754D01*
X82840D01*
X83672Y357754D01*
X84110Y356666D01*
Y351537D01*
X83672Y350448D01*
X82840Y350448D01*
X64308D01*
Y331084D01*
X82840D01*
X83672Y331084D01*
X84110Y329996D01*
Y324867D01*
X83672Y323778D01*
X82840Y323778D01*
X64308D01*
Y304414D01*
X82840D01*
X83672Y304414D01*
X84110Y303326D01*
Y298197D01*
X83672Y297108D01*
X82840Y297108D01*
X64308D01*
Y277744D01*
X83672D01*
Y279864D01*
X84066Y280132D01*
X84942Y280352D01*
X91575Y273719D01*
X92247Y273270D01*
X93040Y273112D01*
X93040Y273112D01*
X104927D01*
X105720Y273270D01*
X106392Y273719D01*
X106392Y273719D01*
X112006Y279332D01*
X112455Y280004D01*
X112613Y280797D01*
X112613Y280797D01*
Y371196D01*
X209925Y468509D01*
X209925Y468509D01*
X210180Y468891D01*
X210505Y469215D01*
X210681Y469639D01*
X210936Y470021D01*
X211025Y470471D01*
X211201Y470896D01*
Y471355D01*
X211291Y471805D01*
X211201Y472255D01*
Y472714D01*
X211025Y473139D01*
X210936Y473589D01*
X210681Y473971D01*
X210505Y474395D01*
X210180Y474719D01*
X209925Y475101D01*
X209925Y475101D01*
X188735Y496291D01*
Y527270D01*
X189633Y528168D01*
X190932Y528168D01*
X191603Y527176D01*
Y521894D01*
X191603Y521894D01*
X191761Y521101D01*
X192210Y520429D01*
X192210Y520429D01*
X196807Y515831D01*
X197479Y515382D01*
X198272Y515225D01*
X198272Y515225D01*
X231216Y515225D01*
X232009Y515382D01*
X232681Y515831D01*
X232681Y515831D01*
X236110Y519260D01*
X236533Y519893D01*
X236715Y519922D01*
X237837Y519846D01*
X238055Y518752D01*
X238862Y517544D01*
X240070Y516736D01*
X241495Y516453D01*
X244255D01*
X245680Y516736D01*
X246888Y517544D01*
X247695Y518752D01*
X247978Y520177D01*
Y536637D01*
X247695Y538061D01*
X246888Y539269D01*
X246241Y539701D01*
Y543408D01*
X248844D01*
Y557124D01*
D02*
G37*
G36*
X66451Y539162D02*
X54387D01*
Y525098D01*
X66451D01*
Y539162D01*
D02*
G37*
G36*
X46451D02*
X34387D01*
Y525098D01*
X46451D01*
Y539162D01*
D02*
G37*
G36*
X450347Y530839D02*
X430983D01*
Y511475D01*
X450347D01*
Y530839D01*
D02*
G37*
G36*
X51279Y517162D02*
X49559D01*
X47898Y516717D01*
X46408Y515857D01*
X45192Y514641D01*
X44332Y513152D01*
X43887Y511490D01*
Y509770D01*
X44332Y508109D01*
X45192Y506619D01*
X46408Y505403D01*
X47898Y504543D01*
X49559Y504098D01*
X51279D01*
X52940Y504543D01*
X54430Y505403D01*
X55646Y506619D01*
X56506Y508109D01*
X56951Y509770D01*
Y511490D01*
X56506Y513152D01*
X55646Y514641D01*
X54430Y515857D01*
X52940Y516717D01*
X51279Y517162D01*
D02*
G37*
G36*
X450347Y502899D02*
X430983D01*
Y483535D01*
X450347D01*
Y502899D01*
D02*
G37*
G36*
X51279Y487162D02*
X49559D01*
X47898Y486717D01*
X46408Y485857D01*
X45192Y484641D01*
X44332Y483152D01*
X43887Y481490D01*
Y479770D01*
X44332Y478109D01*
X45192Y476619D01*
X46408Y475403D01*
X47898Y474543D01*
X49559Y474098D01*
X51279D01*
X52940Y474543D01*
X54430Y475403D01*
X55646Y476619D01*
X56506Y478109D01*
X56951Y479770D01*
Y481490D01*
X56506Y483152D01*
X55646Y484641D01*
X54430Y485857D01*
X52940Y486717D01*
X51279Y487162D01*
D02*
G37*
G36*
X256955Y490860D02*
X254195D01*
X252770Y490577D01*
X251562Y489770D01*
X250755Y488562D01*
X250471Y487137D01*
Y471525D01*
X249186Y470240D01*
X248334Y470548D01*
X247978Y470828D01*
Y487137D01*
X247695Y488562D01*
X246888Y489770D01*
X245680Y490577D01*
X244255Y490860D01*
X241495D01*
X240070Y490577D01*
X238862Y489770D01*
X238055Y488562D01*
X237771Y487137D01*
Y470677D01*
X238055Y469252D01*
X238862Y468044D01*
X239508Y467612D01*
Y456286D01*
X237668D01*
Y444348D01*
X251384D01*
Y456286D01*
X246241D01*
Y466505D01*
X246417Y466724D01*
X246571Y466728D01*
X247687Y465942D01*
Y463931D01*
X247752Y463606D01*
Y463274D01*
X247878Y462968D01*
X247943Y462643D01*
X248127Y462367D01*
X248254Y462061D01*
X248489Y461826D01*
X248673Y461550D01*
X248949Y461366D01*
X249183Y461132D01*
X249489Y461005D01*
X249765Y460821D01*
X250090Y460756D01*
X250397Y460629D01*
X250728D01*
X251054Y460564D01*
X251379Y460629D01*
X251710D01*
X252017Y460756D01*
X252342Y460821D01*
X252618Y461005D01*
X252738Y461055D01*
X253491Y460759D01*
X253980Y460438D01*
X254008Y460406D01*
Y437489D01*
X250843D01*
Y417425D01*
X251418D01*
Y401096D01*
X244407D01*
Y365832D01*
X270971D01*
Y401096D01*
X263331D01*
Y417425D01*
X263907D01*
Y437489D01*
X260742D01*
Y470067D01*
X260649Y470531D01*
X260678Y470677D01*
Y487137D01*
X260395Y488562D01*
X259588Y489770D01*
X258380Y490577D01*
X256955Y490860D01*
D02*
G37*
G36*
X77451Y478662D02*
X58387D01*
Y467598D01*
X77451D01*
Y478662D01*
D02*
G37*
G36*
X136988Y476552D02*
X136663Y476487D01*
X136331D01*
X136025Y476360D01*
X135699Y476296D01*
X135424Y476111D01*
X135117Y475985D01*
X134883Y475750D01*
X134607Y475566D01*
X134423Y475290D01*
X134188Y475056D01*
X134062Y474749D01*
X133877Y474474D01*
X133813Y474148D01*
X133686Y473842D01*
Y473511D01*
X133621Y473185D01*
X133686Y472860D01*
Y472528D01*
X133813Y472222D01*
X133877Y471897D01*
X134062Y471621D01*
X134188Y471315D01*
X134423Y471080D01*
X134607Y470805D01*
X134607Y470805D01*
X140397Y465015D01*
Y456819D01*
X136906D01*
Y454217D01*
X120091D01*
X120007Y454529D01*
X118752Y456703D01*
X116978Y458478D01*
X114804Y459732D01*
X112380Y460382D01*
X109870D01*
X107446Y459732D01*
X105272Y458478D01*
X103497Y456703D01*
X102243Y454529D01*
X101593Y452105D01*
Y449595D01*
X102243Y447171D01*
X103497Y444997D01*
X105272Y443223D01*
X107446Y441968D01*
X109870Y441318D01*
X112380D01*
X114804Y441968D01*
X116978Y443223D01*
X118752Y444997D01*
X120007Y447171D01*
X120091Y447483D01*
X136906D01*
Y444881D01*
X150622D01*
Y456819D01*
X147131D01*
Y466409D01*
X146874Y467697D01*
X146145Y468790D01*
X139368Y475566D01*
X139093Y475750D01*
X138858Y475985D01*
X138552Y476111D01*
X138276Y476296D01*
X137951Y476360D01*
X137645Y476487D01*
X137313D01*
X136988Y476552D01*
D02*
G37*
G36*
X66451Y466162D02*
X54387D01*
Y452098D01*
X66451D01*
Y466162D01*
D02*
G37*
G36*
X46451D02*
X34387D01*
Y452098D01*
X46451D01*
Y466162D01*
D02*
G37*
G36*
X547009Y456692D02*
X511145D01*
Y451677D01*
X506829D01*
X504920Y453586D01*
X504644Y453770D01*
X504409Y454005D01*
X504103Y454132D01*
X503827Y454316D01*
X503502Y454381D01*
X503196Y454508D01*
X502864D01*
X502539Y454572D01*
X502214Y454508D01*
X501882D01*
X501576Y454381D01*
X501251Y454316D01*
X500975Y454132D01*
X500669Y454005D01*
X500434Y453770D01*
X500158Y453586D01*
X499974Y453311D01*
X499740Y453076D01*
X499613Y452770D01*
X499429Y452494D01*
X499364Y452169D01*
X499237Y451862D01*
Y451531D01*
X499172Y451206D01*
X499237Y450880D01*
Y450549D01*
X499364Y450242D01*
X499429Y449917D01*
X499613Y449642D01*
X499740Y449335D01*
X499974Y449101D01*
X500158Y448825D01*
X503054Y445929D01*
X504146Y445200D01*
X505435Y444943D01*
X511145D01*
Y439928D01*
X547009D01*
Y456692D01*
D02*
G37*
G36*
X492409D02*
X456545D01*
Y451677D01*
X445056D01*
X441724Y455009D01*
X441449Y455193D01*
X441214Y455427D01*
X440908Y455554D01*
X440632Y455738D01*
X440307Y455803D01*
X440001Y455930D01*
X439669D01*
X439344Y455995D01*
X439019Y455930D01*
X438687D01*
X438381Y455803D01*
X438055Y455738D01*
X437780Y455554D01*
X437473Y455427D01*
X437239Y455193D01*
X436963Y455009D01*
X436779Y454733D01*
X436544Y454498D01*
X436418Y454192D01*
X436233Y453916D01*
X436169Y453591D01*
X436042Y453285D01*
Y452953D01*
X435977Y452628D01*
X436042Y452303D01*
Y451971D01*
X436169Y451665D01*
X436233Y451340D01*
X436418Y451064D01*
X436544Y450758D01*
X436779Y450523D01*
X436963Y450247D01*
X441281Y445929D01*
X442373Y445200D01*
X443662Y444943D01*
X456545D01*
Y439928D01*
X492409D01*
Y456692D01*
D02*
G37*
G36*
X547009Y431292D02*
X511145D01*
Y426277D01*
X508531D01*
X506444Y428364D01*
X506168Y428548D01*
X505933Y428783D01*
X505627Y428910D01*
X505351Y429094D01*
X505026Y429159D01*
X504720Y429285D01*
X504388D01*
X504063Y429350D01*
X503738Y429285D01*
X503406D01*
X503100Y429159D01*
X502775Y429094D01*
X502499Y428910D01*
X502193Y428783D01*
X501958Y428548D01*
X501682Y428364D01*
X501498Y428088D01*
X501264Y427854D01*
X501137Y427547D01*
X500953Y427272D01*
X500888Y426947D01*
X500761Y426640D01*
Y426309D01*
X500696Y425983D01*
X500761Y425658D01*
Y425327D01*
X500888Y425020D01*
X500953Y424695D01*
X501137Y424419D01*
X501264Y424113D01*
X501498Y423879D01*
X501682Y423603D01*
X504756Y420529D01*
X505848Y419800D01*
X507136Y419543D01*
X511145D01*
Y414528D01*
X547009D01*
Y431292D01*
D02*
G37*
G36*
X492409D02*
X456545D01*
Y426277D01*
X443050D01*
X441216Y428110D01*
X440941Y428294D01*
X440706Y428529D01*
X440400Y428656D01*
X440124Y428840D01*
X439799Y428904D01*
X439493Y429031D01*
X439161D01*
X438836Y429096D01*
X438511Y429031D01*
X438179D01*
X437873Y428904D01*
X437547Y428840D01*
X437272Y428656D01*
X436965Y428529D01*
X436731Y428294D01*
X436455Y428110D01*
X436271Y427834D01*
X436036Y427600D01*
X435910Y427293D01*
X435725Y427018D01*
X435661Y426693D01*
X435534Y426386D01*
Y426055D01*
X435469Y425729D01*
X435534Y425404D01*
Y425073D01*
X435661Y424766D01*
X435725Y424441D01*
X435910Y424165D01*
X436036Y423859D01*
X436271Y423624D01*
X436455Y423349D01*
X439275Y420529D01*
X440367Y419800D01*
X441655Y419543D01*
X456545D01*
Y414528D01*
X492409D01*
Y431292D01*
D02*
G37*
G36*
X120657Y434982D02*
X101593D01*
Y415918D01*
X120657D01*
Y434982D01*
D02*
G37*
G36*
X199593Y405830D02*
X199593Y405830D01*
X178105D01*
X178105Y405830D01*
X177312Y405672D01*
X176640Y405223D01*
X176640Y405223D01*
X166810Y395394D01*
X166589Y395063D01*
X166366Y394733D01*
X166364Y394726D01*
X166361Y394721D01*
X166283Y394329D01*
X166203Y393941D01*
X165740Y313403D01*
X165741Y313398D01*
X165740Y313392D01*
X165818Y312999D01*
X165893Y312610D01*
X165896Y312605D01*
X165897Y312599D01*
X166118Y312268D01*
X166338Y311935D01*
X166343Y311932D01*
X166346Y311927D01*
X177757Y300516D01*
X178430Y300067D01*
X179222Y299909D01*
X179223Y299909D01*
X196469D01*
X196469Y299909D01*
X197262Y300067D01*
X197934Y300516D01*
X210888Y313470D01*
X211337Y314142D01*
X211495Y314935D01*
X211495Y314935D01*
Y393928D01*
X211495Y393929D01*
X211337Y394721D01*
X210888Y395394D01*
X210888Y395394D01*
X201058Y405223D01*
X200386Y405672D01*
X199593Y405830D01*
D02*
G37*
G36*
X547009Y405892D02*
X511145D01*
Y400877D01*
X508709D01*
X504920Y404666D01*
X504644Y404850D01*
X504409Y405084D01*
X504103Y405211D01*
X503827Y405396D01*
X503502Y405460D01*
X503196Y405587D01*
X502864D01*
X502539Y405652D01*
X502214Y405587D01*
X501882D01*
X501576Y405460D01*
X501251Y405396D01*
X500975Y405211D01*
X500669Y405084D01*
X500434Y404850D01*
X500158Y404666D01*
X499974Y404390D01*
X499740Y404156D01*
X499613Y403849D01*
X499429Y403574D01*
X499364Y403248D01*
X499237Y402942D01*
Y402610D01*
X499172Y402285D01*
X499237Y401960D01*
Y401628D01*
X499364Y401322D01*
X499429Y400997D01*
X499613Y400721D01*
X499740Y400415D01*
X499974Y400180D01*
X500158Y399905D01*
X504934Y395129D01*
X506026Y394400D01*
X507314Y394143D01*
X511145D01*
Y389128D01*
X547009D01*
Y405892D01*
D02*
G37*
G36*
X492409D02*
X456545D01*
Y400877D01*
X446021D01*
X444010Y402888D01*
X443735Y403072D01*
X443500Y403307D01*
X443194Y403433D01*
X442918Y403618D01*
X442593Y403682D01*
X442287Y403809D01*
X441955D01*
X441630Y403874D01*
X441305Y403809D01*
X440973D01*
X440667Y403682D01*
X440341Y403618D01*
X440066Y403433D01*
X439759Y403307D01*
X439525Y403072D01*
X439249Y402888D01*
X439065Y402612D01*
X438830Y402378D01*
X438704Y402071D01*
X438519Y401796D01*
X438455Y401470D01*
X438328Y401164D01*
Y400832D01*
X438263Y400507D01*
X438328Y400182D01*
Y399850D01*
X438455Y399544D01*
X438519Y399219D01*
X438704Y398943D01*
X438830Y398637D01*
X439065Y398402D01*
X439249Y398127D01*
X442246Y395129D01*
X443339Y394400D01*
X444627Y394143D01*
X456545D01*
Y389128D01*
X492409D01*
Y405892D01*
D02*
G37*
%LPD*%
G36*
X321325Y942594D02*
X322861Y942288D01*
X324282Y942571D01*
X324607Y942524D01*
X325552Y942019D01*
Y939317D01*
X325781Y939089D01*
Y938809D01*
X326060D01*
X327685Y937184D01*
X342874D01*
X344551Y935508D01*
Y926643D01*
X342875Y924966D01*
X334569D01*
X319917Y939618D01*
Y942007D01*
X321187Y942686D01*
X321325Y942594D01*
D02*
G37*
G36*
X378765Y900887D02*
Y872515D01*
X383718Y867562D01*
X393395D01*
X397281Y863676D01*
Y858139D01*
X394183Y855040D01*
X385293D01*
X378866Y861466D01*
X368122Y872211D01*
X362081Y878251D01*
X361671Y901522D01*
X365404Y905256D01*
Y905561D01*
X374091D01*
X378765Y900887D01*
D02*
G37*
G36*
X370116Y864907D02*
X370138Y860442D01*
X367871Y858164D01*
X352958D01*
X342544Y847750D01*
Y839140D01*
X339471Y836066D01*
X331571D01*
X327609Y840029D01*
Y864794D01*
X331698Y868883D01*
X366141D01*
X370116Y864907D01*
D02*
G37*
G36*
X255600Y883291D02*
Y876757D01*
X264555D01*
X267698Y873615D01*
X268790Y872885D01*
X270078Y872628D01*
X300316D01*
Y848198D01*
X297039Y844921D01*
X296309Y843829D01*
X296053Y842541D01*
Y833291D01*
X295938Y833069D01*
X295144Y832256D01*
X294816D01*
X294783Y832262D01*
X294488Y832321D01*
X294162Y832256D01*
X293831D01*
X293524Y832130D01*
X293199Y832065D01*
X292924Y831881D01*
X292617Y831754D01*
X292383Y831519D01*
X292107Y831335D01*
X292039Y831267D01*
X291855Y830991D01*
X291688Y830825D01*
X291598Y830607D01*
X291309Y830175D01*
X291208Y829665D01*
X291186Y829611D01*
Y829554D01*
X291053Y828886D01*
Y828274D01*
X289783Y827732D01*
X289090Y828195D01*
X287802Y828452D01*
X268258D01*
X267510Y829199D01*
Y835502D01*
X250446D01*
Y827753D01*
X249273Y827266D01*
X247167Y829372D01*
Y836549D01*
X243676D01*
Y839851D01*
X247167D01*
Y851789D01*
X243676D01*
Y873026D01*
X254427Y883777D01*
X255600Y883291D01*
D02*
G37*
G36*
X152053Y822082D02*
X151567Y820909D01*
X141986D01*
Y818048D01*
X130475D01*
X130006Y818242D01*
X128693D01*
X128224Y818048D01*
X118932D01*
X118775Y818635D01*
X117514Y820817D01*
X115732Y822599D01*
X113550Y823860D01*
X111115Y824512D01*
X108595D01*
X106160Y823860D01*
X103978Y822599D01*
X102196Y820817D01*
X100935Y818635D01*
X100283Y816200D01*
Y813680D01*
X100935Y811245D01*
X102196Y809063D01*
X103978Y807281D01*
X106160Y806020D01*
X108595Y805368D01*
X111115D01*
X113550Y806020D01*
X115732Y807281D01*
X117514Y809063D01*
X118775Y811245D01*
X118932Y811832D01*
X128224D01*
X128693Y811638D01*
X130006D01*
X130475Y811832D01*
X141986D01*
Y808971D01*
X155702D01*
Y816774D01*
X156875Y817260D01*
X157988Y816148D01*
Y808971D01*
X161479D01*
Y795909D01*
X157988D01*
Y783971D01*
X161479D01*
Y759578D01*
X154504D01*
Y747640D01*
X168220D01*
Y747640D01*
X169235Y748060D01*
X171329Y745966D01*
Y741233D01*
X171566Y740044D01*
X172239Y739036D01*
X175836Y735439D01*
X175350Y734266D01*
X172341D01*
X167843Y738764D01*
Y746307D01*
X154127D01*
Y734369D01*
X163006D01*
X163399Y733857D01*
X162773Y732587D01*
X154127D01*
Y720649D01*
X154127D01*
Y719887D01*
X154127D01*
Y707949D01*
X154127D01*
Y707187D01*
X154127D01*
Y695249D01*
X157619D01*
Y685823D01*
X157610Y685814D01*
X148490D01*
X130414Y703891D01*
X129321Y704620D01*
X128033Y704877D01*
X119427D01*
Y711082D01*
X106875D01*
X74080Y743878D01*
Y797572D01*
X106875Y830368D01*
X119427D01*
Y836573D01*
X137563D01*
X152053Y822082D01*
D02*
G37*
G36*
X460463Y785043D02*
X459977Y783869D01*
X448945D01*
Y776693D01*
X441658Y769405D01*
X415005D01*
Y783892D01*
X410313D01*
X409624Y784924D01*
X408573Y785975D01*
X409059Y787148D01*
X415005D01*
Y804212D01*
X408702D01*
X398533Y814381D01*
X399019Y815555D01*
X429951D01*
X460463Y785043D01*
D02*
G37*
G36*
X254203Y812814D02*
X255295Y812084D01*
X256584Y811828D01*
X280941D01*
Y808195D01*
X281126Y807265D01*
X281652Y806478D01*
X282440Y805951D01*
X283370Y805766D01*
X285470D01*
X286399Y805951D01*
X286920Y806299D01*
X287440Y805951D01*
X288370Y805766D01*
X290470D01*
X291399Y805951D01*
X291920Y806299D01*
X292440Y805951D01*
X293370Y805766D01*
X295470D01*
X296399Y805951D01*
X296920Y806299D01*
X297440Y805951D01*
X298370Y805766D01*
X300470D01*
X301399Y805951D01*
X301920Y806299D01*
X302440Y805951D01*
X303370Y805766D01*
X305470D01*
X306399Y805951D01*
X306920Y806299D01*
X307440Y805951D01*
X308370Y805766D01*
X310470D01*
X311399Y805951D01*
X311920Y806299D01*
X312440Y805951D01*
X313370Y805766D01*
X315470D01*
X316399Y805951D01*
X316920Y806299D01*
X317440Y805951D01*
X318370Y805766D01*
X320470D01*
X321399Y805951D01*
X321920Y806299D01*
X322440Y805951D01*
X323370Y805766D01*
X325470D01*
X326399Y805951D01*
X326920Y806299D01*
X327440Y805951D01*
X328370Y805766D01*
X330470D01*
X331399Y805951D01*
X331920Y806299D01*
X332440Y805951D01*
X333370Y805766D01*
X335470D01*
X336399Y805951D01*
X336920Y806299D01*
X337440Y805951D01*
X338370Y805766D01*
X340470D01*
X341399Y805951D01*
X341920Y806299D01*
X342440Y805951D01*
X343370Y805766D01*
X345470D01*
X346399Y805951D01*
X346920Y806299D01*
X347440Y805951D01*
X348370Y805766D01*
X350470D01*
X351399Y805951D01*
X351920Y806299D01*
X352440Y805951D01*
X353370Y805766D01*
X355470D01*
X356399Y805951D01*
X356816Y806230D01*
X357235Y806088D01*
X357440Y805951D01*
X357921Y805855D01*
X358013Y805824D01*
X358575Y804611D01*
X308326Y754361D01*
X275127D01*
X274648Y754945D01*
Y757045D01*
X274463Y757974D01*
X274116Y758495D01*
X274463Y759015D01*
X274648Y759945D01*
Y762045D01*
X274463Y762974D01*
X274116Y763495D01*
X274463Y764015D01*
X274648Y764945D01*
Y767045D01*
X274463Y767974D01*
X274116Y768495D01*
X274463Y769015D01*
X274648Y769945D01*
Y772045D01*
X274463Y772974D01*
X274116Y773495D01*
X274463Y774015D01*
X274648Y774945D01*
Y777045D01*
X274463Y777974D01*
X274116Y778495D01*
X274463Y779015D01*
X274648Y779945D01*
Y782045D01*
X274463Y782974D01*
X274116Y783495D01*
X274463Y784015D01*
X274648Y784945D01*
Y787045D01*
X274463Y787974D01*
X274116Y788495D01*
X274463Y789015D01*
X274648Y789945D01*
Y792045D01*
X274463Y792974D01*
X274116Y793495D01*
X274463Y794015D01*
X274648Y794945D01*
Y797045D01*
X274463Y797974D01*
X273937Y798762D01*
X273149Y799289D01*
X272220Y799473D01*
X260552D01*
X259932Y800094D01*
Y801675D01*
X259867Y802000D01*
Y802332D01*
X259741Y802638D01*
X259676Y802963D01*
X259492Y803239D01*
X259365Y803545D01*
X259130Y803780D01*
X258946Y804055D01*
X258670Y804240D01*
X258436Y804474D01*
X258130Y804601D01*
X257854Y804785D01*
X257529Y804850D01*
X257222Y804977D01*
X256891D01*
X256565Y805042D01*
X256240Y804977D01*
X255909D01*
X255602Y804850D01*
X255277Y804785D01*
X255001Y804601D01*
X254695Y804474D01*
X254461Y804240D01*
X254210Y804073D01*
X254177Y804055D01*
X253207Y804015D01*
X252787Y804139D01*
X252733Y804172D01*
X252433Y804621D01*
X248426Y808627D01*
X247334Y809357D01*
X246046Y809613D01*
X242095D01*
X240807Y809357D01*
X239715Y808627D01*
X238620Y807533D01*
X237447Y808019D01*
Y823845D01*
X238213Y824611D01*
X242406D01*
X254203Y812814D01*
D02*
G37*
G36*
X483692Y781736D02*
X483692Y761594D01*
Y755117D01*
X482016Y753440D01*
X474878Y753440D01*
X469914Y758404D01*
X459601D01*
X459145Y759485D01*
X459145Y759485D01*
X459145D01*
X459145Y759485D01*
Y762589D01*
X459210Y762914D01*
Y764568D01*
X465150Y770509D01*
Y783666D01*
X466763Y785279D01*
X479869Y785559D01*
X483692Y781736D01*
D02*
G37*
G36*
X208184Y892613D02*
X209697Y891602D01*
X211480Y891247D01*
X250716D01*
X251202Y890074D01*
X237929Y876801D01*
X237199Y875709D01*
X236943Y874420D01*
Y851789D01*
X233451D01*
Y839851D01*
X236943D01*
Y836549D01*
X233451D01*
Y829372D01*
X231700Y827620D01*
X230970Y826528D01*
X230714Y825240D01*
Y769343D01*
X230911Y768350D01*
X230210Y767080D01*
X221717D01*
Y754996D01*
X220967Y754495D01*
X214373Y747901D01*
X212995Y748319D01*
X212972Y748433D01*
X212462Y749196D01*
X211699Y749706D01*
X210799Y749885D01*
X209149D01*
X208249Y749706D01*
X207974Y749522D01*
X207699Y749706D01*
X206799Y749885D01*
X205149D01*
X204249Y749706D01*
X203974Y749522D01*
X203699Y749706D01*
X202799Y749885D01*
X201149D01*
X200249Y749706D01*
X199974Y749522D01*
X199699Y749706D01*
X198799Y749885D01*
X197149D01*
X196249Y749706D01*
X195974Y749522D01*
X195699Y749706D01*
X194799Y749885D01*
X193149D01*
X192249Y749706D01*
X191974Y749522D01*
X191699Y749706D01*
X190799Y749885D01*
X189149D01*
X188249Y749706D01*
X187486Y749196D01*
X186976Y748433D01*
X186797Y747533D01*
Y742335D01*
X181599D01*
X180699Y742156D01*
X179936Y741646D01*
X178413Y741652D01*
X177544Y742521D01*
Y747253D01*
X177308Y748442D01*
X176634Y749451D01*
X170279Y755806D01*
X169270Y756480D01*
X168220Y756689D01*
Y759578D01*
X168213D01*
Y783971D01*
X171704D01*
Y795909D01*
X168213D01*
Y808971D01*
X171704D01*
Y820909D01*
X162749D01*
X141338Y842321D01*
X140245Y843050D01*
X138957Y843307D01*
X119427D01*
Y849512D01*
X106875D01*
X86132Y870255D01*
Y948055D01*
X106875Y968798D01*
X119427D01*
Y974280D01*
X126517D01*
X208184Y892613D01*
D02*
G37*
G36*
X208249Y739510D02*
X209149Y739331D01*
X210147D01*
Y738333D01*
X210326Y737433D01*
X210510Y737158D01*
X210326Y736883D01*
X210147Y735983D01*
Y734333D01*
X210326Y733433D01*
X210510Y733158D01*
X210326Y732883D01*
X210147Y731983D01*
Y730333D01*
X210326Y729433D01*
X210510Y729158D01*
X210326Y728883D01*
X210147Y727983D01*
Y726333D01*
X210326Y725433D01*
X210836Y724670D01*
X211599Y724160D01*
X212499Y723981D01*
X218349D01*
X218406Y723934D01*
Y713231D01*
X218642Y712042D01*
X219316Y711033D01*
X220131Y710218D01*
X219605Y708948D01*
X209876D01*
X209594Y709239D01*
X209039Y710218D01*
X209151Y710783D01*
Y716633D01*
X208972Y717533D01*
X208462Y718296D01*
X207699Y718806D01*
X206799Y718985D01*
X205149D01*
X204249Y718806D01*
X203974Y718622D01*
X203699Y718806D01*
X202799Y718985D01*
X201149D01*
X200249Y718806D01*
X199974Y718622D01*
X199699Y718806D01*
X198799Y718985D01*
X197149D01*
X196759Y718907D01*
X195741Y719734D01*
X195658Y719885D01*
X195690Y720047D01*
Y730830D01*
X195454Y732020D01*
X194780Y733028D01*
X190537Y737271D01*
X189701Y737830D01*
X189801Y738333D01*
Y739331D01*
X190799D01*
X191699Y739510D01*
X191974Y739693D01*
X192249Y739510D01*
X193149Y739331D01*
X194799D01*
X195699Y739510D01*
X195974Y739693D01*
X196249Y739510D01*
X197149Y739331D01*
X198799D01*
X199699Y739510D01*
X199974Y739693D01*
X200249Y739510D01*
X201149Y739331D01*
X202799D01*
X203699Y739510D01*
X203974Y739693D01*
X204249Y739510D01*
X205149Y739331D01*
X206799D01*
X207699Y739510D01*
X207974Y739693D01*
X208249Y739510D01*
D02*
G37*
G36*
X420116Y756248D02*
Y749071D01*
X433832D01*
Y751674D01*
X447040D01*
Y746738D01*
X447102D01*
Y738118D01*
X444500D01*
Y726449D01*
X439564D01*
X418100Y747913D01*
X417830Y749071D01*
X417830Y749071D01*
X417830Y749072D01*
Y756875D01*
X419003Y757361D01*
X420116Y756248D01*
D02*
G37*
G36*
X369191Y742045D02*
Y739945D01*
X369376Y739015D01*
X369724Y738495D01*
X369376Y737974D01*
X369191Y737045D01*
Y734945D01*
X369376Y734015D01*
X369724Y733495D01*
X369376Y732974D01*
X369191Y732045D01*
Y729945D01*
X369376Y729015D01*
X369902Y728227D01*
X370690Y727701D01*
X371620Y727516D01*
X385620D01*
X385981Y727588D01*
X386038D01*
X388091Y725535D01*
X387605Y724361D01*
X386183D01*
X385620Y724473D01*
X371620D01*
X370690Y724289D01*
X369902Y723762D01*
X369376Y722974D01*
X369330Y722747D01*
X367952Y722329D01*
X361939Y728343D01*
Y737263D01*
X367304Y742628D01*
X368712D01*
X369191Y742045D01*
D02*
G37*
G36*
X391909Y717761D02*
X392924Y717075D01*
Y715289D01*
X392989Y714964D01*
Y705764D01*
X404927D01*
Y713358D01*
X406100Y713844D01*
X409078Y710865D01*
Y689082D01*
X400412D01*
X399322Y688866D01*
X398398Y688248D01*
X397780Y687324D01*
X397563Y686233D01*
Y682940D01*
X396293Y682414D01*
X390691Y688016D01*
Y698195D01*
X390435Y699484D01*
X389705Y700576D01*
X373938Y716343D01*
X374424Y717516D01*
X385620D01*
X386183Y717628D01*
X390293D01*
X390500Y717587D01*
X391032Y717693D01*
X391115D01*
X391192Y717725D01*
X391654Y717816D01*
X391909Y717761D01*
D02*
G37*
G36*
X233654Y737362D02*
X234417Y737057D01*
Y737057D01*
X234798Y737057D01*
X242849D01*
X247866Y732040D01*
X248874Y731367D01*
X250063Y731130D01*
X250574D01*
X250739Y730883D01*
X250060Y729613D01*
X241890D01*
Y724447D01*
X239116D01*
X238663Y724357D01*
X238433D01*
X238221Y724269D01*
X237827Y724191D01*
X237493Y723968D01*
X237220Y723855D01*
X237011Y723645D01*
X236735Y723461D01*
X236710Y723436D01*
X236525Y723160D01*
X236291Y722926D01*
X236164Y722619D01*
X235980Y722344D01*
X235915Y722018D01*
X235788Y721712D01*
Y721380D01*
X235723Y721055D01*
X235788Y720730D01*
Y720398D01*
X235915Y720092D01*
X235980Y719767D01*
X236164Y719491D01*
X236291Y719185D01*
X236525Y718950D01*
X236710Y718675D01*
X236985Y718490D01*
X237220Y718256D01*
X237526Y718129D01*
X237802Y717945D01*
X238127Y717880D01*
X238433Y717753D01*
X238765D01*
X239090Y717689D01*
X239218Y717714D01*
X241890D01*
Y712860D01*
X227805D01*
X226426Y714238D01*
X225418Y714912D01*
X224621Y715070D01*
Y726477D01*
X229883Y731739D01*
X230557Y732747D01*
X230793Y733936D01*
Y737362D01*
X233654D01*
X233654Y737362D01*
D02*
G37*
G36*
X378853Y696039D02*
Y672791D01*
X378764Y672633D01*
X378450Y672314D01*
X377618Y671906D01*
X377287D01*
X376961Y671971D01*
X371475D01*
X370187Y671715D01*
X369094Y670985D01*
X361978Y663868D01*
X351079D01*
Y667360D01*
X347786D01*
Y683739D01*
X347918Y683980D01*
X348720Y684757D01*
X349052D01*
X349377Y684692D01*
X349702Y684757D01*
X350034D01*
X350340Y684884D01*
X350665Y684949D01*
X350941Y685133D01*
X351247Y685260D01*
X351482Y685494D01*
X351758Y685678D01*
X351800Y685721D01*
X352764Y685515D01*
X353071Y685388D01*
X353346Y685204D01*
X353672Y685139D01*
X353978Y685013D01*
X354310D01*
X354635Y684948D01*
X354960Y685013D01*
X355292D01*
X355598Y685139D01*
X355923Y685204D01*
X356199Y685388D01*
X356505Y685515D01*
X356740Y685750D01*
X357015Y685934D01*
X358131Y685474D01*
X358456Y685409D01*
X358763Y685282D01*
X359094D01*
X359420Y685218D01*
X359745Y685282D01*
X360076D01*
X360383Y685409D01*
X360708Y685474D01*
X360984Y685658D01*
X361290Y685785D01*
X361525Y686020D01*
X361800Y686204D01*
X361984Y686479D01*
X362219Y686714D01*
X362346Y687020D01*
X362530Y687296D01*
X362595Y687621D01*
X362722Y687928D01*
Y688259D01*
X362786Y688584D01*
Y694232D01*
X362898Y694795D01*
Y708795D01*
X362713Y709724D01*
X362187Y710512D01*
X361399Y711039D01*
X360470Y711224D01*
X358370D01*
X357440Y711039D01*
X356920Y710691D01*
X356399Y711039D01*
X355470Y711224D01*
X353370D01*
X352440Y711039D01*
X351920Y710691D01*
X351399Y711039D01*
X350470Y711224D01*
X348370D01*
X347440Y711039D01*
X346920Y710691D01*
X346399Y711039D01*
X345470Y711224D01*
X343370D01*
X342440Y711039D01*
X341652Y710512D01*
X341126Y709724D01*
X340941Y708795D01*
Y694795D01*
X341053Y694232D01*
Y691954D01*
X340270Y691532D01*
X339783Y691513D01*
X339718Y691610D01*
X339442Y691794D01*
X339208Y692028D01*
X339153Y692051D01*
X337786Y693418D01*
Y694232D01*
X337898Y694795D01*
Y708795D01*
X337713Y709724D01*
X337187Y710512D01*
X336399Y711039D01*
X335470Y711224D01*
X333370D01*
X332440Y711039D01*
X331920Y710691D01*
X331399Y711039D01*
X330470Y711224D01*
X328370D01*
X327440Y711039D01*
X326920Y710691D01*
X326399Y711039D01*
X325470Y711224D01*
X323370D01*
X322440Y711039D01*
X321233Y711513D01*
X318864Y713882D01*
X317622Y715125D01*
X316614Y715798D01*
X315424Y716035D01*
X279679D01*
X278490Y715798D01*
X278072Y715519D01*
X277262Y716505D01*
X279032Y718275D01*
X279706Y719283D01*
X279942Y720473D01*
Y734420D01*
X279706Y735610D01*
X279206Y736358D01*
X279632Y737628D01*
X337263D01*
X378853Y696039D01*
D02*
G37*
G36*
X398261Y758608D02*
X404114D01*
Y749071D01*
X410312D01*
X411074Y747899D01*
Y746586D01*
X411576Y745372D01*
X412505Y744443D01*
X412974Y744249D01*
X436079Y721144D01*
X437088Y720470D01*
X438277Y720234D01*
X457663D01*
X458852Y720470D01*
X459860Y721144D01*
X463119Y724402D01*
X470662D01*
Y738118D01*
X463485D01*
X459210Y742394D01*
Y743737D01*
X464145D01*
Y750595D01*
X459210D01*
Y753330D01*
X462125Y756246D01*
X462153D01*
X462589Y756332D01*
X469056D01*
X473413Y751975D01*
X473413Y751975D01*
X474086Y751526D01*
X474407Y751462D01*
Y689082D01*
X473213D01*
X472122Y688866D01*
X471198Y688248D01*
X470580Y687324D01*
X470363Y686233D01*
Y681658D01*
X470580Y680568D01*
X471198Y679644D01*
X472122Y679026D01*
X473213Y678809D01*
X477533D01*
Y676383D01*
X473213D01*
X472122Y676166D01*
X471198Y675548D01*
X469664Y675539D01*
X394785Y750418D01*
X394785Y750611D01*
X394946Y751143D01*
X395237Y751762D01*
X395425Y751840D01*
X395750Y751905D01*
X396026Y752089D01*
X396332Y752216D01*
X396567Y752450D01*
X396843Y752634D01*
X397027Y752910D01*
X397261Y753145D01*
X397388Y753451D01*
X397572Y753727D01*
X397637Y754052D01*
X397764Y754358D01*
Y754690D01*
X397829Y755015D01*
X397764Y755340D01*
Y755672D01*
X397637Y755978D01*
X397572Y756303D01*
X397388Y756579D01*
X397261Y756885D01*
X397027Y757120D01*
X396843Y757396D01*
X396470Y757768D01*
X396615Y758083D01*
X397219Y758815D01*
X398261Y758608D01*
D02*
G37*
G36*
X457745Y667946D02*
Y660034D01*
X458001Y658745D01*
X458731Y657653D01*
X460219Y656165D01*
X461311Y655435D01*
X462599Y655179D01*
X470578D01*
X470580Y655168D01*
X471198Y654244D01*
X472122Y653626D01*
X473213Y653409D01*
X487306D01*
X487832Y652139D01*
X486675Y650983D01*
X473213D01*
X472122Y650766D01*
X471198Y650148D01*
X470580Y649224D01*
X470363Y648133D01*
Y643558D01*
X469980Y643091D01*
X433716D01*
X418637Y658170D01*
Y660833D01*
X418420Y661924D01*
X417802Y662848D01*
X416878Y663466D01*
X415788Y663682D01*
X400412D01*
X399322Y663466D01*
X398398Y662848D01*
X397780Y661924D01*
X397563Y660833D01*
Y656258D01*
X397780Y655168D01*
X398398Y654244D01*
X399322Y653626D01*
X400412Y653409D01*
X413876D01*
X427084Y640200D01*
X426598Y639027D01*
X403299D01*
X385586Y656740D01*
Y681939D01*
X386759Y682425D01*
X397563Y671621D01*
Y668958D01*
X397780Y667868D01*
X398398Y666944D01*
X399322Y666326D01*
X400412Y666109D01*
X415788D01*
X416878Y666326D01*
X417802Y666944D01*
X418420Y667868D01*
X418637Y668958D01*
Y673533D01*
X418420Y674624D01*
X417802Y675548D01*
X416878Y676166D01*
X415788Y676383D01*
X402324D01*
X401168Y677539D01*
X401694Y678809D01*
X415788D01*
X416878Y679026D01*
X417802Y679644D01*
X418420Y680568D01*
X418637Y681658D01*
Y686233D01*
X418420Y687324D01*
X417802Y688248D01*
X416878Y688866D01*
X415812Y689078D01*
Y708220D01*
X416985Y708706D01*
X457745Y667946D01*
D02*
G37*
G36*
X333752Y668523D02*
X333226Y667253D01*
X322387D01*
Y663762D01*
X316869D01*
Y667427D01*
X315703D01*
Y678527D01*
X315447Y679815D01*
X314717Y680907D01*
X312786Y682838D01*
Y687829D01*
X313960Y688315D01*
X333752Y668523D01*
D02*
G37*
%LPC*%
G36*
X111115Y799512D02*
X108595D01*
X106160Y798860D01*
X103978Y797599D01*
X102196Y795817D01*
X100935Y793635D01*
X100283Y791200D01*
Y788680D01*
X100935Y786245D01*
X102196Y784063D01*
X103978Y782281D01*
X106160Y781020D01*
X108595Y780368D01*
X111115D01*
X113550Y781020D01*
X115732Y782281D01*
X117514Y784063D01*
X118775Y786245D01*
X118932Y786832D01*
X128224D01*
X128693Y786638D01*
X130006D01*
X130475Y786832D01*
X141986D01*
Y783971D01*
X155702D01*
Y795909D01*
X141986D01*
Y793048D01*
X130475D01*
X130006Y793242D01*
X128693D01*
X128224Y793048D01*
X118932D01*
X118775Y793635D01*
X117514Y795817D01*
X115732Y797599D01*
X113550Y798860D01*
X111115Y799512D01*
D02*
G37*
G36*
Y962942D02*
X108595D01*
X106160Y962290D01*
X103978Y961030D01*
X102196Y959247D01*
X100935Y957065D01*
X100283Y954630D01*
Y952110D01*
X100935Y949675D01*
X102196Y947493D01*
X103978Y945711D01*
X106160Y944450D01*
X108595Y943798D01*
X111115D01*
X113550Y944450D01*
X115732Y945711D01*
X117514Y947493D01*
X118775Y949675D01*
X118863Y950003D01*
X135846D01*
X136266Y950087D01*
X136521D01*
X136757Y950185D01*
X137134Y950260D01*
X137453Y950473D01*
X137735Y950590D01*
X137950Y950805D01*
X138226Y950989D01*
X138245Y951008D01*
X138429Y951284D01*
X138664Y951519D01*
X138791Y951825D01*
X138975Y952101D01*
X139040Y952426D01*
X139167Y952732D01*
Y953064D01*
X139231Y953389D01*
X139167Y953714D01*
Y954046D01*
X139040Y954352D01*
X138975Y954677D01*
X138791Y954953D01*
X138664Y955259D01*
X138429Y955494D01*
X138245Y955770D01*
X137970Y955954D01*
X137735Y956188D01*
X137429Y956315D01*
X137153Y956499D01*
X136828Y956564D01*
X136521Y956691D01*
X136190D01*
X135865Y956756D01*
X135769Y956737D01*
X118863D01*
X118775Y957065D01*
X117514Y959247D01*
X115732Y961030D01*
X113550Y962290D01*
X111115Y962942D01*
D02*
G37*
G36*
Y937942D02*
X108595D01*
X106160Y937290D01*
X103978Y936030D01*
X102196Y934247D01*
X100935Y932065D01*
X100283Y929630D01*
Y927110D01*
X100935Y924675D01*
X102196Y922493D01*
X103978Y920711D01*
X106160Y919450D01*
X108595Y918798D01*
X111115D01*
X113550Y919450D01*
X115732Y920711D01*
X117514Y922493D01*
X118775Y924675D01*
X118863Y925003D01*
X135582D01*
X136220Y924876D01*
X137509Y925133D01*
X138601Y925862D01*
X139331Y926955D01*
X139587Y928243D01*
X139331Y929531D01*
X138951Y930100D01*
X138892Y930240D01*
X138785Y930348D01*
X138601Y930624D01*
X138474Y930751D01*
X138198Y930935D01*
X137964Y931169D01*
X137657Y931296D01*
X137382Y931480D01*
X137056Y931545D01*
X136750Y931672D01*
X136418D01*
X136093Y931737D01*
X118863D01*
X118775Y932065D01*
X117514Y934247D01*
X115732Y936030D01*
X113550Y937290D01*
X111115Y937942D01*
D02*
G37*
%LPD*%
G36*
X508537Y810956D02*
X483163D01*
X480765Y813354D01*
X481251Y814527D01*
X488518D01*
Y818018D01*
X508537D01*
Y810956D01*
D02*
G37*
G36*
X478104Y582701D02*
Y487350D01*
X472491Y481736D01*
X460604D01*
X453746Y488594D01*
Y581812D01*
X460883Y588950D01*
X471856D01*
X478104Y582701D01*
D02*
G37*
G36*
X410159Y569493D02*
Y436220D01*
X400126Y426187D01*
X384763Y426187D01*
X376971Y433978D01*
Y571010D01*
X382549Y576351D01*
X402214D01*
X410159Y569493D01*
D02*
G37*
G36*
X336245Y563092D02*
Y479044D01*
X327558Y470357D01*
X311404D01*
X293700Y488061D01*
X283972D01*
X279781Y492252D01*
Y504546D01*
X263530Y520797D01*
X263347Y536778D01*
X267411Y540842D01*
X278740D01*
X307924Y570027D01*
X329311D01*
X336245Y563092D01*
D02*
G37*
G36*
X234645Y537210D02*
Y520725D01*
X231216Y517296D01*
X198272Y517296D01*
X193675Y521894D01*
Y536524D01*
X198730Y542544D01*
X229311D01*
X234645Y537210D01*
D02*
G37*
G36*
X110541Y376149D02*
Y280797D01*
X104927Y275184D01*
X93040D01*
X86182Y282042D01*
Y375260D01*
X93320Y382397D01*
X104292D01*
X110541Y376149D01*
D02*
G37*
G36*
X209423Y393929D02*
Y314935D01*
X196469Y301981D01*
X179222D01*
X167811Y313392D01*
X168275Y393929D01*
X178105Y403758D01*
X199593D01*
X209423Y393929D01*
D02*
G37*
D15*
X247422Y721081D02*
X247508Y720995D01*
X265220D01*
X358572Y726948D02*
X387325Y698195D01*
Y686621D02*
Y698195D01*
X358572Y726948D02*
Y738658D01*
X338658Y740995D02*
X382219Y697433D01*
Y655345D02*
Y697433D01*
X265220Y740995D02*
X338658D01*
X147320Y510591D02*
X156489Y519760D01*
X499466Y635660D02*
X529819Y666013D01*
X523697Y687095D02*
X529819Y680974D01*
Y666013D02*
Y680974D01*
X460731Y759612D02*
X462153D01*
X324420Y689167D02*
Y701795D01*
X329420Y690635D02*
X333273Y686781D01*
X329420Y690635D02*
Y701795D01*
X333273Y683158D02*
Y686781D01*
X314550Y692486D02*
X337978Y669058D01*
X314550Y692486D02*
Y701665D01*
X337978Y635497D02*
Y669058D01*
X334420Y692023D02*
Y701795D01*
X337214Y689229D02*
X337337D01*
X334420Y692023D02*
X337214Y689229D01*
X314420Y701795D02*
X314550Y701665D01*
X382219Y655345D02*
X401904Y635660D01*
X499466D01*
X371475Y668604D02*
X376961D01*
X363372Y660502D02*
X371475Y668604D01*
X432321Y639724D02*
X490652D01*
X505003Y654075D01*
X413500Y658546D02*
X432321Y639724D01*
X505003Y654075D02*
Y670535D01*
X495173Y654719D02*
Y660806D01*
X471739Y665402D02*
X490578D01*
X495173Y660806D01*
X486300Y645846D02*
X495173Y654719D01*
X462599Y658546D02*
X480900D01*
X461112Y660034D02*
Y669341D01*
X412445Y685726D02*
Y712260D01*
X389458Y740995D02*
X461112Y669341D01*
Y660034D02*
X462599Y658546D01*
X378620Y740995D02*
X389458D01*
X378750Y735865D02*
X388840D01*
X412445Y712260D01*
X389577Y750865D02*
X468706Y671735D01*
Y668435D02*
Y671735D01*
X480900Y645846D02*
X486300D01*
X468706Y668435D02*
X471739Y665402D01*
X378750Y750865D02*
X389577D01*
X358572Y738658D02*
X365909Y745995D01*
X378620D01*
X378750Y761125D02*
X386246D01*
X378620Y760995D02*
X378750Y761125D01*
X386246D02*
X388565Y763444D01*
X392557D01*
X393482Y755995D02*
X394462Y755015D01*
X378620Y755995D02*
X393482D01*
X403179Y767526D02*
X404667Y766039D01*
X403179Y767526D02*
Y779013D01*
X404667Y766039D02*
X443052D01*
X394111Y780995D02*
X396773Y778332D01*
Y763463D02*
Y778332D01*
Y763463D02*
X398261Y761975D01*
X419151D01*
X426085Y755040D01*
X443052Y766039D02*
X454914Y777900D01*
X396197Y785995D02*
X403179Y779013D01*
X378620Y780995D02*
X394111D01*
X407243Y780590D02*
X409473Y778360D01*
X407243Y780590D02*
Y782544D01*
X378620Y790995D02*
X398792D01*
X407243Y782544D01*
X409473Y775360D02*
Y778360D01*
X396138Y837413D02*
X411277D01*
X265220Y750995D02*
X309721D01*
X396138Y837413D01*
X238144Y802296D02*
X242095Y806247D01*
X234080Y769343D02*
Y825240D01*
X239420Y830580D01*
X242095Y806247D02*
X246046D01*
X238144Y801218D02*
Y802296D01*
X239420Y830580D02*
X240309D01*
X240135Y770995D02*
X265220D01*
X240055Y770915D02*
X240135Y770995D01*
X278769Y690194D02*
X284290Y695715D01*
X269186Y660395D02*
Y680691D01*
X278689Y690194D02*
X278769D01*
X284290Y701665D02*
X284420Y701795D01*
X269186Y680691D02*
X278689Y690194D01*
X284290Y695715D02*
Y701665D01*
X293096Y936346D02*
X298272D01*
X291609Y937833D02*
X293096Y936346D01*
X301953Y939176D02*
Y941262D01*
Y927315D02*
Y939176D01*
X306104Y950493D02*
X306358Y950239D01*
X306104Y950493D02*
Y952561D01*
X298606Y954557D02*
X304108D01*
X306104Y952561D01*
X296610Y950493D02*
Y952561D01*
X298606Y954557D01*
X296356Y950239D02*
X296610Y950493D01*
X306358Y946302D02*
Y950239D01*
X296356Y946302D02*
Y950239D01*
X307492Y845226D02*
Y873911D01*
X299420Y842541D02*
X303682Y846804D01*
X304290Y842023D02*
X307492Y845226D01*
Y873911D02*
X310872Y877291D01*
X302194Y875995D02*
X303682Y874507D01*
Y846804D02*
Y874507D01*
X270078Y875995D02*
X302194D01*
X304290Y815325D02*
Y842023D01*
X263347Y882726D02*
X270078Y875995D01*
X304290Y815325D02*
X304420Y815195D01*
X299420D02*
Y842541D01*
X251054Y463931D02*
Y467346D01*
X254061Y470353D01*
X378620Y775995D02*
X390424D01*
X390449Y775970D01*
X387325Y686621D02*
X402700Y671246D01*
X408100D01*
X378620Y720995D02*
X390458D01*
X390500Y720954D01*
X387433Y730955D02*
X396291Y722097D01*
X378620Y730995D02*
X378660Y730955D01*
X387433D01*
X396291Y715289D02*
Y722097D01*
X345110Y660502D02*
X363372D01*
X344420Y661192D02*
Y701795D01*
Y661192D02*
X345110Y660502D01*
X349377Y688059D02*
X349420Y688102D01*
Y701795D01*
X354420Y688530D02*
X354635Y688315D01*
X354420Y688530D02*
Y701795D01*
X359420Y688584D02*
Y701795D01*
X408100Y658546D02*
X413500D01*
X245745Y754558D02*
X248361D01*
X240386Y759028D02*
X243053Y756361D01*
X243942D01*
X245745Y754558D01*
X240386Y759028D02*
Y759917D01*
X135846Y953370D02*
X135865Y953389D01*
X109855Y953370D02*
X135846D01*
X261798Y895909D02*
X262687D01*
X239116Y721081D02*
X247422D01*
X239090Y721055D02*
X239116Y721081D01*
X159004Y682447D02*
X160985Y684428D01*
Y701218D01*
X147096Y682447D02*
X159004D01*
X109855Y701510D02*
X128033D01*
X147096Y682447D01*
X162179Y753609D02*
X164846Y756276D01*
Y789940D01*
X163957Y814940D02*
X164846D01*
X109855Y839940D02*
X138957D01*
X163957Y814940D01*
X164846Y789940D02*
Y814940D01*
X240081Y760222D02*
X240386Y759917D01*
X237719Y762584D02*
X240081Y760222D01*
X234080Y769343D02*
X237719Y765705D01*
Y762584D02*
Y765705D01*
X240005Y775995D02*
X265220D01*
X240309Y845820D02*
Y874420D01*
X261798Y895909D01*
X227686Y760222D02*
X240081D01*
X480900Y671246D02*
X504292D01*
X505003Y670535D01*
X480900Y671246D02*
Y683946D01*
X477774Y685726D02*
X479554Y683946D01*
X480900D01*
X477774Y685726D02*
Y755472D01*
X479171Y760120D02*
X498251Y741041D01*
X478282Y760120D02*
X479171D01*
X498251Y741041D02*
X511429D01*
X455843Y740999D02*
X464693Y732149D01*
Y731260D02*
Y732149D01*
X455843Y740999D02*
Y747166D01*
X393217Y818921D02*
X431346D01*
X468249Y780567D02*
Y782018D01*
X431346Y818921D02*
X468249Y782018D01*
Y780567D02*
X470916Y777900D01*
X471805D01*
X455843Y754725D02*
X460731Y759612D01*
X455843Y747166D02*
Y754725D01*
X378620Y795995D02*
X409159D01*
X409473Y795680D01*
X393217Y814936D02*
Y818921D01*
Y814936D02*
X409473Y798680D01*
Y795680D02*
Y798680D01*
X411277Y837413D02*
X413944Y840080D01*
Y840969D01*
X426085Y755040D02*
X450469D01*
X256584Y815195D02*
X284420D01*
X240309Y830580D02*
X241198D01*
X256584Y815195D01*
X240309Y830580D02*
Y845820D01*
X175793Y634009D02*
X336490D01*
X337978Y635497D01*
X396291Y715289D02*
X398958Y712622D01*
X517274Y845950D02*
X518109Y845115D01*
X456704Y845950D02*
X517274D01*
X455869Y846785D02*
X456704Y845950D01*
X305968Y886584D02*
Y898144D01*
X306070Y898246D01*
X502539Y451206D02*
X505435Y448310D01*
X329401Y830005D02*
X329420Y829985D01*
Y815195D02*
Y829985D01*
X334420Y815195D02*
Y830329D01*
X334442Y830351D01*
X368221Y765995D02*
X378620D01*
X271270Y598832D02*
X276301Y593801D01*
X286537D01*
X317779D02*
X329717D01*
X315189Y596392D02*
X317779Y593801D01*
X229184Y595859D02*
X231242Y593801D01*
X242087D01*
X272212Y573402D02*
X272239Y573429D01*
X272212Y568935D02*
Y573402D01*
X269545Y566268D02*
X272212Y568935D01*
X439344Y452628D02*
X443662Y448310D01*
X474477D01*
X502539Y402285D02*
X507314Y397510D01*
X529077D01*
X504063Y425983D02*
X507136Y422910D01*
X529077D01*
X505435Y448310D02*
X529077D01*
X441630Y400507D02*
X444627Y397510D01*
X474477D01*
X438836Y425729D02*
X441655Y422910D01*
X474477D01*
X136988Y473185D02*
X136988D01*
X143764Y466409D01*
Y450850D02*
Y466409D01*
X257375Y383778D02*
X257689Y383464D01*
X257375Y427457D02*
Y470067D01*
X255575Y528407D02*
X255702Y528534D01*
Y549123D01*
X230175Y566268D02*
X242875D01*
Y528407D02*
Y550266D01*
X255702Y549123D02*
X256845Y550266D01*
X269545D01*
X268275Y478907D02*
X287086D01*
X287325Y479146D01*
X242875Y451968D02*
Y478907D01*
X255575Y471867D02*
X257375Y470067D01*
X254061Y477393D02*
X255575Y478907D01*
Y471867D02*
Y478907D01*
X254061Y470353D02*
Y477393D01*
X242875Y451968D02*
X244526Y450317D01*
X294420Y828886D02*
X294488Y828954D01*
X294420Y815195D02*
Y828886D01*
X364411Y770995D02*
X378620D01*
X339395Y830351D02*
X339420Y830327D01*
Y815195D02*
Y830327D01*
X314420Y829825D02*
X314599Y830005D01*
X309420Y815195D02*
Y829586D01*
X309524Y829691D01*
X314420Y815195D02*
Y829825D01*
X487782Y704837D02*
X505523Y687095D01*
X523697D01*
X487782Y704837D02*
Y724510D01*
X489313Y726041D01*
X550673D01*
X408100Y683946D02*
X410665D01*
X412445Y685726D01*
X378620Y735995D02*
X378750Y735865D01*
X378620Y750995D02*
X378750Y750865D01*
X312337Y660395D02*
Y678527D01*
X328356Y660395D02*
Y661284D01*
X309420Y681443D02*
Y701795D01*
Y681443D02*
X312337Y678527D01*
X144653Y501650D02*
X147320Y504317D01*
X111125Y501650D02*
X144653D01*
X147320Y504317D02*
Y510591D01*
X259270Y795995D02*
X265220D01*
X256565Y798699D02*
X259270Y795995D01*
X256565Y798699D02*
Y801675D01*
X112014Y570230D02*
X175793Y634009D01*
X111125Y570230D02*
X112014D01*
X254746Y755714D02*
X255027Y755995D01*
X250488Y765995D02*
X265220D01*
X250469Y766013D02*
X250488Y765995D01*
X359943Y593801D02*
X370357D01*
X357099Y596646D02*
X359943Y593801D01*
X378750Y785995D02*
X396197D01*
X255027Y755995D02*
X265220D01*
X252552Y761009D02*
X265205D01*
X265220Y760995D01*
X454914Y777900D02*
X455803D01*
X455843Y777860D01*
Y762914D02*
Y777860D01*
X289290Y815325D02*
X289420Y815195D01*
X287802Y825085D02*
X289290Y823597D01*
X266864Y825085D02*
X287802D01*
X289290Y815325D02*
Y823597D01*
X258978Y829970D02*
X261978D01*
X266864Y825085D01*
X340995Y843762D02*
X362698D01*
X340589Y844169D02*
X340995Y843762D01*
X503885Y929735D02*
X518668D01*
X498805Y954761D02*
X498831Y954735D01*
X518668D01*
X324420Y815195D02*
Y829944D01*
X319420Y815195D02*
Y829855D01*
X319340Y829935D02*
X319420Y829855D01*
X324420Y829944D02*
X324500Y830024D01*
X250053Y790002D02*
Y802240D01*
X243942Y786284D02*
Y801167D01*
X246046Y806247D02*
X250053Y802240D01*
X243942Y786284D02*
X249231Y780995D01*
X250053Y790002D02*
X254060Y785995D01*
X249231Y780995D02*
X265220D01*
X254060Y785995D02*
X265220D01*
X109855Y651510D02*
X132410D01*
X132436Y651485D01*
X132544Y676510D02*
X132604Y676570D01*
X109855Y676510D02*
X132544D01*
X136093Y928370D02*
X136220Y928243D01*
X109855Y928370D02*
X136093D01*
X301337Y678444D02*
X304420Y681526D01*
X301337Y660395D02*
Y678444D01*
X304420Y681526D02*
Y701795D01*
X312337Y660395D02*
X328356D01*
X285496D02*
X301337D01*
X342621Y877291D02*
X349098Y883768D01*
X349987D01*
X310872Y877291D02*
X342621D01*
X262458Y882726D02*
X263347D01*
X292277Y893775D02*
X296468Y889584D01*
X280822Y893775D02*
X292277D01*
X278689Y895909D02*
X280822Y893775D01*
X278460Y882726D02*
X279349D01*
X283207Y886584D02*
X296468D01*
X279349Y882726D02*
X283207Y886584D01*
X296468D02*
Y889584D01*
X298272Y936346D02*
X301103Y939176D01*
X291609Y937833D02*
Y946048D01*
X291355Y946302D02*
X291609Y946048D01*
X305763Y928893D02*
X307873Y926782D01*
Y921612D02*
X309361Y920124D01*
X307873Y921612D02*
Y926782D01*
X310021Y920124D02*
X311817Y918328D01*
X309361Y920124D02*
X310021D01*
X315468Y911584D02*
Y914584D01*
X311817Y918236D02*
X315468Y914584D01*
X302575Y920124D02*
X304063Y921612D01*
Y925204D01*
X301953Y927315D02*
X304063Y925204D01*
X296468Y914584D02*
X300120Y918236D01*
Y918328D01*
X296468Y911584D02*
Y914584D01*
X311817Y918236D02*
Y918328D01*
X300120D02*
X301916Y920124D01*
X302575D01*
X301611Y941603D02*
X301953Y941262D01*
X301611Y941603D02*
Y946048D01*
X301357Y946302D02*
X301611Y946048D01*
X306104D02*
X306358Y946302D01*
X305763Y928893D02*
Y941262D01*
X306104Y941603D01*
Y946048D01*
X311360Y937254D02*
X333096Y915518D01*
X311360Y937254D02*
Y946302D01*
X450469Y731260D02*
Y750040D01*
X111125Y450850D02*
X143764D01*
X71919Y488130D02*
X110839Y527050D01*
X111125D01*
X67919Y488130D02*
X71919D01*
X111125Y527050D02*
Y552450D01*
Y570230D01*
X414129Y856785D02*
X435569D01*
X413944Y856971D02*
X414129Y856785D01*
X435569D02*
Y871489D01*
X435254Y871804D02*
X435569Y871489D01*
X516839Y821385D02*
X518109Y820115D01*
X482549Y821385D02*
X516839D01*
X526644Y696041D02*
X550673D01*
X550673Y696041D01*
X315468Y885752D02*
X317452Y883768D01*
X315468Y885752D02*
Y886584D01*
X317452Y883768D02*
X333985D01*
X367157Y916128D02*
X368656Y914629D01*
X350876Y916128D02*
X367157D01*
X333096Y914629D02*
Y915518D01*
X281352Y914625D02*
Y946302D01*
X280619Y913892D02*
X281352Y914625D01*
D17*
X230175Y478907D02*
D03*
X268275Y528407D02*
D03*
X255575D02*
D03*
X242875D02*
D03*
X230175D02*
D03*
X242875Y478907D02*
D03*
X255575D02*
D03*
X268275D02*
D03*
D18*
X529077Y448310D02*
D03*
X474477D02*
D03*
Y397510D02*
D03*
X529077D02*
D03*
Y422910D02*
D03*
X474477D02*
D03*
D19*
X67919Y488130D02*
D03*
Y473130D02*
D03*
Y518130D02*
D03*
D20*
X60419Y459130D02*
D03*
X40419Y532130D02*
D03*
X60419D02*
D03*
X40419Y459130D02*
D03*
X578173Y682041D02*
D03*
Y755041D02*
D03*
X558173Y682041D02*
D03*
Y755041D02*
D03*
D21*
X111125Y552450D02*
D03*
X127127D02*
D03*
X240309Y845820D02*
D03*
X224307D02*
D03*
X240309Y830580D02*
D03*
X224307D02*
D03*
D22*
X127127Y570230D02*
D03*
X111125D02*
D03*
X244526Y450317D02*
D03*
X228524D02*
D03*
X143764Y450850D02*
D03*
X159766D02*
D03*
Y501650D02*
D03*
X143764D02*
D03*
X184074Y534137D02*
D03*
X200076D02*
D03*
X242087Y593801D02*
D03*
X258089D02*
D03*
X286537D02*
D03*
X302539D02*
D03*
X370357D02*
D03*
X386359D02*
D03*
X329717D02*
D03*
X345719D02*
D03*
X160985Y701218D02*
D03*
X144983D02*
D03*
X160985Y713918D02*
D03*
X144983D02*
D03*
X160985Y726618D02*
D03*
X144983D02*
D03*
X160985Y740338D02*
D03*
X144983D02*
D03*
X161362Y753609D02*
D03*
X145360D02*
D03*
X505003Y670535D02*
D03*
X521005D02*
D03*
X526644Y696041D02*
D03*
X510642D02*
D03*
X511429Y741041D02*
D03*
X527431D02*
D03*
X478282Y760120D02*
D03*
X494284D02*
D03*
X455803Y777900D02*
D03*
X471805D02*
D03*
X426974Y755040D02*
D03*
X410972D02*
D03*
X435254Y871804D02*
D03*
X451256D02*
D03*
X262458Y882726D02*
D03*
X278460D02*
D03*
X262687Y895909D02*
D03*
X278689D02*
D03*
X280619Y913892D02*
D03*
X264617D02*
D03*
X319430Y841858D02*
D03*
X335432D02*
D03*
X349987Y883768D02*
D03*
X333985D02*
D03*
X148844Y814940D02*
D03*
X164846D02*
D03*
X148844Y789940D02*
D03*
X164846D02*
D03*
D23*
X228375Y427457D02*
D03*
X257375D02*
D03*
X366805Y442697D02*
D03*
X395805D02*
D03*
D24*
X257689Y383464D02*
D03*
X188589D02*
D03*
D25*
X319075Y442937D02*
D03*
Y485637D02*
D03*
D26*
X287325Y495148D02*
D03*
Y479146D02*
D03*
X213665Y551409D02*
D03*
Y535407D02*
D03*
X269545Y566268D02*
D03*
Y550266D02*
D03*
X242875Y566268D02*
D03*
Y550266D02*
D03*
X230175D02*
D03*
Y566268D02*
D03*
X256845D02*
D03*
Y550266D02*
D03*
X240386Y743915D02*
D03*
Y759917D02*
D03*
X227686Y744220D02*
D03*
Y760222D02*
D03*
X464693Y731260D02*
D03*
Y715258D02*
D03*
X450469Y731260D02*
D03*
Y715258D02*
D03*
X482549Y837387D02*
D03*
Y821385D02*
D03*
X413944Y840969D02*
D03*
Y856971D02*
D03*
X368656Y898627D02*
D03*
Y914629D02*
D03*
X333096D02*
D03*
Y898627D02*
D03*
D27*
X319671Y543103D02*
D03*
X394171D02*
D03*
D28*
X386588Y610311D02*
D03*
X367588D02*
D03*
X345948D02*
D03*
X326948D02*
D03*
X302768D02*
D03*
X283768D02*
D03*
X258318D02*
D03*
X239318D02*
D03*
X247422Y721081D02*
D03*
X228422D02*
D03*
X409473Y775360D02*
D03*
X428473D02*
D03*
X409473Y795680D02*
D03*
X428473D02*
D03*
X387884Y881101D02*
D03*
X368884D02*
D03*
X317575Y860323D02*
D03*
X336575D02*
D03*
D29*
X345110Y660502D02*
D03*
Y644500D02*
D03*
X328356Y660395D02*
D03*
Y644393D02*
D03*
X285496Y660395D02*
D03*
Y644393D02*
D03*
X269186Y660395D02*
D03*
Y644393D02*
D03*
X398958Y712622D02*
D03*
Y696620D02*
D03*
D30*
X301337Y660395D02*
D03*
X312337D02*
D03*
D31*
X209974Y744608D02*
D03*
X205974D02*
D03*
X201974D02*
D03*
X197974D02*
D03*
X193974D02*
D03*
X189974D02*
D03*
Y713708D02*
D03*
X193974D02*
D03*
X197974D02*
D03*
X201974D02*
D03*
X205974D02*
D03*
X209974D02*
D03*
D32*
X184524Y739158D02*
D03*
Y735158D02*
D03*
Y731158D02*
D03*
Y727158D02*
D03*
Y723158D02*
D03*
Y719158D02*
D03*
X215424D02*
D03*
Y723158D02*
D03*
Y727158D02*
D03*
Y731158D02*
D03*
Y735158D02*
D03*
Y739158D02*
D03*
D33*
X408100Y645846D02*
D03*
X480900Y683946D02*
D03*
Y671246D02*
D03*
Y658546D02*
D03*
Y645846D02*
D03*
X408100Y658546D02*
D03*
Y671246D02*
D03*
Y683946D02*
D03*
D34*
X550673Y741041D02*
D03*
Y726041D02*
D03*
Y696041D02*
D03*
D35*
X466217Y760040D02*
D03*
X450469Y750040D02*
D03*
Y755040D02*
D03*
Y760040D02*
D03*
X466217Y750040D02*
D03*
Y755040D02*
D03*
D36*
X460843Y747166D02*
D03*
X455843D02*
D03*
Y762914D02*
D03*
X460843D02*
D03*
D37*
X435569Y836785D02*
D03*
X455869Y846785D02*
D03*
X435569Y856785D02*
D03*
D38*
X315468Y886584D02*
D03*
X305968D02*
D03*
X296468D02*
D03*
Y911584D02*
D03*
X315468D02*
D03*
X305968D02*
D03*
D39*
X350876Y916128D02*
D03*
Y897128D02*
D03*
X258978Y829970D02*
D03*
Y848970D02*
D03*
D40*
X362698Y853262D02*
D03*
X386398Y862762D02*
D03*
Y843762D02*
D03*
X362698D02*
D03*
Y862762D02*
D03*
D41*
X338403Y931443D02*
D03*
X354103D02*
D03*
D42*
X378620Y720995D02*
D03*
Y730995D02*
D03*
Y735995D02*
D03*
Y740995D02*
D03*
Y745995D02*
D03*
Y750995D02*
D03*
Y755995D02*
D03*
Y760995D02*
D03*
Y765995D02*
D03*
Y770995D02*
D03*
Y775995D02*
D03*
Y780995D02*
D03*
Y785995D02*
D03*
Y790995D02*
D03*
Y795995D02*
D03*
X265220D02*
D03*
Y790995D02*
D03*
Y785995D02*
D03*
Y780995D02*
D03*
Y775995D02*
D03*
Y770995D02*
D03*
Y765995D02*
D03*
Y760995D02*
D03*
Y755995D02*
D03*
Y750995D02*
D03*
Y745995D02*
D03*
Y740995D02*
D03*
Y735995D02*
D03*
Y730995D02*
D03*
Y720995D02*
D03*
Y725995D02*
D03*
X378620D02*
D03*
D43*
X284420Y701795D02*
D03*
X289420D02*
D03*
X294420D02*
D03*
X299420D02*
D03*
X304420D02*
D03*
X309420D02*
D03*
X319420D02*
D03*
X324420D02*
D03*
X329420D02*
D03*
X334420D02*
D03*
X344420D02*
D03*
X349420D02*
D03*
X354420D02*
D03*
X359420D02*
D03*
Y815195D02*
D03*
X354420D02*
D03*
X349420D02*
D03*
X344420D02*
D03*
X339420D02*
D03*
X334420D02*
D03*
X329420D02*
D03*
X324420D02*
D03*
X319420D02*
D03*
X314420D02*
D03*
X309420D02*
D03*
X304420D02*
D03*
X299420D02*
D03*
X294420D02*
D03*
X289420D02*
D03*
X284420D02*
D03*
X314420Y701795D02*
D03*
X339420D02*
D03*
D44*
X355056Y955763D02*
D03*
X242656Y955765D02*
D03*
D45*
X274852Y946302D02*
D03*
X322861D02*
D03*
X266851D02*
D03*
X330861D02*
D03*
D46*
X281352D02*
D03*
X286353D02*
D03*
X291355D02*
D03*
X296356D02*
D03*
X301357D02*
D03*
X306358D02*
D03*
X311360D02*
D03*
X316361D02*
D03*
D47*
X355056Y995763D02*
D03*
X242656Y995765D02*
D03*
D93*
X249225Y503657D02*
D03*
D94*
X256100Y725995D02*
X265220D01*
X251974Y730121D02*
X256100Y725995D01*
X240386Y743026D02*
Y743915D01*
X252886Y734238D02*
X255745Y731379D01*
X250063Y734238D02*
X252886D01*
X240386Y743026D02*
X243307Y740105D01*
X244196D01*
X250063Y734238D01*
X245847Y731545D02*
X247271Y730121D01*
X240386Y743026D02*
Y744804D01*
X247271Y730121D02*
X251974D01*
X264836Y731379D02*
X265220Y730995D01*
X255745Y731379D02*
X264836D01*
X224229Y712041D02*
X226517Y709752D01*
X184524Y710165D02*
X188849Y705841D01*
X226517Y709752D02*
X266114D01*
X188849Y705841D02*
X272593D01*
X266114Y709752D02*
X276835Y720473D01*
X272593Y705841D02*
X279679Y712927D01*
X276835Y720473D02*
Y734420D01*
X275644Y735611D02*
X276835Y734420D01*
X445952Y760040D02*
X450469D01*
X445008Y760984D02*
X445952Y760040D01*
X135477Y556096D02*
Y562770D01*
X128016Y570230D02*
X135477Y562770D01*
Y556096D02*
X161798Y529775D01*
Y503682D02*
Y529775D01*
X159766Y501650D02*
X161798Y503682D01*
X457663Y723341D02*
X464693Y730371D01*
X438277Y723341D02*
X457663D01*
X414376Y747243D02*
X438277Y723341D01*
X184524Y735158D02*
X184608Y735074D01*
X184440Y735242D02*
X184524Y735158D01*
X414376Y747243D02*
Y752119D01*
X223164Y752297D02*
X232893D01*
X215424Y744557D02*
X223164Y752297D01*
X215424Y739158D02*
Y744557D01*
X232893Y752297D02*
X240386Y744804D01*
X279679Y712927D02*
X315424D01*
X316667Y711685D01*
X316667D01*
X319036Y709316D01*
Y702179D02*
X319420Y701795D01*
X319036Y702179D02*
Y709316D01*
X265604Y735611D02*
X275644D01*
X222704Y712041D02*
X224229D01*
X221513Y713231D02*
X222704Y712041D01*
X221513Y727764D02*
X227686Y733936D01*
X221513Y713231D02*
Y727764D01*
X227686Y733936D02*
Y741835D01*
X184524Y710165D02*
Y719158D01*
X180428Y735242D02*
X184440D01*
X174437Y741233D02*
Y747253D01*
Y741233D02*
X180428Y735242D01*
X192583Y720047D02*
Y730830D01*
X188339Y735074D02*
X192583Y730830D01*
X184608Y735074D02*
X188339D01*
X190058Y716494D02*
X190334Y716770D01*
Y717799D02*
X192583Y720047D01*
X190058Y713792D02*
Y716494D01*
X189974Y713708D02*
X190058Y713792D01*
X190334Y716770D02*
Y717799D01*
X161525Y727158D02*
X184524D01*
X160985Y726618D02*
X161525Y727158D01*
X109855Y789940D02*
X129349D01*
X344907Y629346D02*
X345110Y629549D01*
X344907Y629209D02*
Y629346D01*
X345110Y629549D02*
Y644500D01*
X367462Y734187D02*
X367559Y734090D01*
Y728004D02*
Y734090D01*
X378505Y726110D02*
X378620Y725995D01*
X369453Y726110D02*
X378505D01*
X367559Y728004D02*
X369453Y726110D01*
X339420Y715340D02*
X342189Y718109D01*
X339420Y701795D02*
Y715340D01*
X128092Y570306D02*
X138963D01*
X128016Y570230D02*
X128092Y570306D01*
X127127Y570230D02*
X128016D01*
X464693Y730371D02*
Y731260D01*
X411455Y755040D02*
X414376Y752119D01*
X410972Y755040D02*
X411455D01*
X162179Y753609D02*
X168081D01*
X161362D02*
X162179D01*
X168081D02*
X174437Y747253D01*
X224765Y740410D02*
X226189Y741835D01*
X221093Y735242D02*
X224765Y738914D01*
Y740410D01*
X226189Y741835D02*
X227686D01*
X215508Y735242D02*
X221093D01*
X227686Y741835D02*
Y744220D01*
X258318Y594030D02*
Y610311D01*
X258089Y593801D02*
X258318Y594030D01*
X215424Y735158D02*
X215508Y735242D01*
X265220Y735995D02*
X265604Y735611D01*
X168990Y713918D02*
X178230Y723158D01*
X184524D01*
X160985Y713918D02*
X168990D01*
X129349Y814940D02*
X148844D01*
X109855D02*
X129349D01*
Y789940D02*
X148844D01*
X171054Y731158D02*
X184524D01*
X161874Y740338D02*
X171054Y731158D01*
X160985Y740338D02*
X161874D01*
X450469Y731260D02*
X450469Y731260D01*
X386588Y594030D02*
Y610311D01*
X386359Y593801D02*
X386588Y594030D01*
X345948D02*
Y610311D01*
X345719Y593801D02*
X345948Y594030D01*
X302539Y593801D02*
X302768Y594030D01*
Y610311D01*
X550673Y741041D02*
X550673Y741041D01*
X527431Y741041D02*
X550673D01*
D95*
X472415Y815111D02*
X481232Y806294D01*
X472415Y815111D02*
Y826364D01*
X481232Y806294D02*
X593318D01*
X472415Y826364D02*
X482549Y836498D01*
Y837387D01*
X110426Y978941D02*
X128448D01*
X109855Y978370D02*
X110426Y978941D01*
X128448D02*
X211480Y895909D01*
X252019D01*
X261798D01*
X69418Y741947D02*
Y799503D01*
Y741947D02*
X109855Y701510D01*
X69418Y799503D02*
X109855Y839940D01*
X81471Y868324D02*
Y949986D01*
Y868324D02*
X109855Y839940D01*
X81471Y949986D02*
X109855Y978370D01*
X376606Y899389D02*
X381952Y904735D01*
X518668D01*
X363804Y932104D02*
X363931Y932231D01*
X354763Y932104D02*
X363804D01*
X354103Y931443D02*
X354763Y932104D01*
X469818Y837573D02*
X482364D01*
X482549Y837387D01*
X366148Y843762D02*
X374066Y835844D01*
Y835609D02*
Y835844D01*
X362698Y843762D02*
X366148D01*
X593318Y806294D02*
X602005Y797607D01*
Y675792D02*
Y797607D01*
X593573Y667360D02*
X602005Y675792D01*
X553034Y667360D02*
X593573D01*
X471170Y585495D02*
X553034Y667360D01*
X460243Y587989D02*
X462585Y585648D01*
X394171Y556253D02*
X425907Y587989D01*
X394171Y543103D02*
Y556253D01*
X425907Y587989D02*
X460243D01*
X102260Y367436D02*
X206629Y471805D01*
X99390Y367436D02*
X102260D01*
X184074Y494360D02*
X206629Y471805D01*
X184074Y494360D02*
Y534137D01*
D96*
X313875Y961161D02*
X322353Y952684D01*
X283838Y961161D02*
X313875D01*
X275360Y952684D02*
X283838Y961161D01*
X322353Y946810D02*
X322861Y946302D01*
X275360Y946810D02*
Y952684D01*
X274852Y946302D02*
X275360Y946810D01*
X322353D02*
Y952684D01*
D97*
X257375Y383778D02*
Y427457D01*
D98*
X440665Y547827D02*
D03*
Y521157D02*
D03*
Y493217D02*
D03*
X73990Y287426D02*
D03*
Y314096D02*
D03*
Y340766D02*
D03*
Y367436D02*
D03*
X440665Y575767D02*
D03*
D99*
X466065Y547827D02*
D03*
X491465D02*
D03*
X466065Y521157D02*
D03*
X491465D02*
D03*
X466065Y493217D02*
D03*
X491465D02*
D03*
X99390Y287426D02*
D03*
X124790D02*
D03*
X99390Y314096D02*
D03*
X124790D02*
D03*
X99390Y340766D02*
D03*
X124790D02*
D03*
X99390Y367436D02*
D03*
X124790D02*
D03*
X491465Y575767D02*
D03*
X466065D02*
D03*
D100*
X239389Y324866D02*
D03*
X188589D02*
D03*
D101*
X111125Y425450D02*
D03*
D102*
Y450850D02*
D03*
Y501650D02*
D03*
Y527050D02*
D03*
Y476250D02*
D03*
D103*
X109855Y651510D02*
D03*
Y676510D02*
D03*
Y626510D02*
D03*
X518668Y929735D02*
D03*
Y954735D02*
D03*
Y979735D02*
D03*
X518109Y845115D02*
D03*
X109855Y789940D02*
D03*
Y814940D02*
D03*
Y764940D02*
D03*
Y953370D02*
D03*
Y928370D02*
D03*
Y903370D02*
D03*
D104*
Y701510D02*
D03*
X518668Y904735D02*
D03*
X518109Y820115D02*
D03*
X109855Y839940D02*
D03*
Y978370D02*
D03*
D105*
X355056Y955763D02*
D03*
Y995763D02*
D03*
X242656Y995765D02*
D03*
Y955765D02*
D03*
D106*
X274066Y847877D02*
D03*
X206248Y843255D02*
D03*
X240157Y715162D02*
D03*
X215595Y711352D02*
D03*
X142291Y713664D02*
D03*
X420751Y643230D02*
D03*
X406832Y691794D02*
D03*
X471500Y750265D02*
D03*
X435991Y771373D02*
D03*
X445008Y760984D02*
D03*
X502539Y451206D02*
D03*
X156489Y519760D02*
D03*
X324420Y689167D02*
D03*
X333273Y683158D02*
D03*
X376961Y668604D02*
D03*
X394462Y755015D02*
D03*
X392557Y763444D02*
D03*
X414376Y747243D02*
D03*
X238144Y801218D02*
D03*
X240055Y770915D02*
D03*
X278689Y690194D02*
D03*
X129349Y789940D02*
D03*
X257697Y506697D02*
D03*
X254918Y492322D02*
D03*
X258393D02*
D03*
X258161Y499452D02*
D03*
X254686D02*
D03*
X247115Y492322D02*
D03*
X254222Y506697D02*
D03*
X257581Y513537D02*
D03*
X246304D02*
D03*
X250686Y499452D02*
D03*
X250222Y506697D02*
D03*
X250107Y513537D02*
D03*
X250918Y492322D02*
D03*
X254106Y513537D02*
D03*
X246420Y506697D02*
D03*
X246883Y499452D02*
D03*
X251054Y463931D02*
D03*
X390449Y775970D02*
D03*
X223522Y513493D02*
D03*
X232463D02*
D03*
X228094D02*
D03*
X215902D02*
D03*
X242058D02*
D03*
X237796D02*
D03*
X219712D02*
D03*
X210898D02*
D03*
X223638Y506653D02*
D03*
X232579D02*
D03*
X228210D02*
D03*
X216018D02*
D03*
X242174D02*
D03*
X237912D02*
D03*
X219828D02*
D03*
X211014D02*
D03*
X224102Y499407D02*
D03*
X233042D02*
D03*
X228674D02*
D03*
X216482D02*
D03*
X242638D02*
D03*
X238376D02*
D03*
X220292D02*
D03*
X211478D02*
D03*
X211710Y492277D02*
D03*
X220523D02*
D03*
X238608D02*
D03*
X242869D02*
D03*
X216713D02*
D03*
X228905D02*
D03*
X233274D02*
D03*
X224333D02*
D03*
X344907Y629209D02*
D03*
X367462Y734187D02*
D03*
X342189Y718109D02*
D03*
X390458Y720995D02*
D03*
X304876Y440004D02*
D03*
X304775Y446557D02*
D03*
X304749Y451891D02*
D03*
X138963Y570306D02*
D03*
X349377Y688059D02*
D03*
X354635Y688315D02*
D03*
X359420Y688584D02*
D03*
X248361Y754558D02*
D03*
X135865Y953389D02*
D03*
X239090Y721055D02*
D03*
X396291Y722097D02*
D03*
X240005Y775995D02*
D03*
X393217Y818921D02*
D03*
X393294Y856869D02*
D03*
X346075Y867232D02*
D03*
X306070Y898246D02*
D03*
X329401Y830005D02*
D03*
X334442Y830351D02*
D03*
X368221Y765995D02*
D03*
X271270Y598832D02*
D03*
X315189Y596392D02*
D03*
X229184Y595859D02*
D03*
X272239Y573429D02*
D03*
X439344Y452628D02*
D03*
X337337Y689229D02*
D03*
X502539Y402285D02*
D03*
X504063Y425983D02*
D03*
X441630Y400507D02*
D03*
X438836Y425729D02*
D03*
X136988Y473185D02*
D03*
X379298Y458140D02*
D03*
X364411Y770995D02*
D03*
X294488Y828954D02*
D03*
X339395Y830351D02*
D03*
X314599Y830005D02*
D03*
X309524Y829691D02*
D03*
X256565Y801675D02*
D03*
X254746Y755714D02*
D03*
X250469Y766013D02*
D03*
X357099Y596646D02*
D03*
X252552Y761009D02*
D03*
X503885Y929735D02*
D03*
X498805Y954761D02*
D03*
X319340Y829935D02*
D03*
X324500Y830024D02*
D03*
X243942Y801167D02*
D03*
X132436Y651485D02*
D03*
X132604Y676570D02*
D03*
X129349Y814940D02*
D03*
X136093Y928370D02*
D03*
D107*
X363906Y891311D02*
D03*
X252019Y895909D02*
D03*
X376606Y899389D02*
D03*
X363804Y932104D02*
D03*
X353365Y866470D02*
D03*
X374066Y835609D02*
D03*
X469818Y837573D02*
D03*
X206629Y471805D02*
D03*
M02*
