G04*
G04 #@! TF.GenerationSoftware,Altium Limited,Altium Designer,22.11.1 (43)*
G04*
G04 Layer_Physical_Order=2*
G04 Layer_Color=36540*
%FSLAX44Y44*%
%MOMM*%
G71*
G04*
G04 #@! TF.SameCoordinates,20673E26-6E33-4D48-81B3-02EF57FC02C5*
G04*
G04*
G04 #@! TF.FilePolarity,Positive*
G04*
G01*
G75*
%ADD15C,0.2540*%
%ADD99C,1.5300*%
%ADD100C,3.0000*%
%ADD101R,1.5000X1.5000*%
%ADD102C,1.5000*%
%ADD103C,1.5080*%
%ADD105C,0.6096*%
%ADD106C,0.2540*%
%ADD107C,0.5080*%
D15*
X387248Y724205D02*
Y765055D01*
Y724205D02*
X390458Y720995D01*
X387248Y765055D02*
X503885Y881692D01*
Y929735D01*
X151613Y928370D02*
X238144Y841838D01*
Y801218D02*
Y841838D01*
X191597Y771296D02*
X239674D01*
X240055Y770915D01*
X142093Y651485D02*
X244119Y753511D01*
Y772878D01*
X241003Y775995D02*
X244119Y772878D01*
X240005Y775995D02*
X241003D01*
X132604Y712303D02*
X191597Y771296D01*
X129349Y789940D02*
X286791D01*
X319340Y822488D01*
X498805Y890074D02*
Y954761D01*
X359420Y750688D02*
X498805Y890074D01*
X359420Y688584D02*
Y750688D01*
X132604Y676570D02*
Y712303D01*
X135865Y953389D02*
X243942Y845312D01*
X319340Y822488D02*
Y829935D01*
X270053Y796087D02*
X308981Y835015D01*
X321444D01*
X141884Y796087D02*
X270053D01*
X132436Y651485D02*
X142093D01*
X129349Y808622D02*
Y814940D01*
Y808622D02*
X141884Y796087D01*
X324500Y830024D02*
Y831959D01*
X321444Y835015D02*
X324500Y831959D01*
X243942Y801167D02*
Y845312D01*
X136093Y928370D02*
X151613D01*
D99*
X440665Y547827D02*
D03*
X466065D02*
D03*
X491465D02*
D03*
X440665Y521157D02*
D03*
X466065D02*
D03*
X491465D02*
D03*
X440665Y493217D02*
D03*
X466065D02*
D03*
X491465D02*
D03*
X73990Y287426D02*
D03*
X99390D02*
D03*
X124790D02*
D03*
X73990Y314096D02*
D03*
X99390D02*
D03*
X124790D02*
D03*
X73990Y340766D02*
D03*
X99390D02*
D03*
X124790D02*
D03*
X73990Y367436D02*
D03*
X99390D02*
D03*
X124790D02*
D03*
X491465Y575767D02*
D03*
X466065D02*
D03*
X440665D02*
D03*
D100*
X239389Y324866D02*
D03*
X188589D02*
D03*
D101*
X111125Y425450D02*
D03*
D102*
Y450850D02*
D03*
Y501650D02*
D03*
Y527050D02*
D03*
Y476250D02*
D03*
D103*
X109855Y651510D02*
D03*
Y676510D02*
D03*
Y701510D02*
D03*
Y626510D02*
D03*
X518668Y904735D02*
D03*
Y929735D02*
D03*
Y954735D02*
D03*
Y979735D02*
D03*
X518109Y845115D02*
D03*
Y820115D02*
D03*
X109855Y789940D02*
D03*
Y814940D02*
D03*
Y839940D02*
D03*
Y764940D02*
D03*
Y978370D02*
D03*
Y953370D02*
D03*
Y928370D02*
D03*
Y903370D02*
D03*
D105*
X355056Y955763D02*
D03*
Y995763D02*
D03*
X242656Y995765D02*
D03*
Y955765D02*
D03*
D106*
X274066Y847877D02*
D03*
X206248Y843255D02*
D03*
X240157Y715162D02*
D03*
X215595Y711352D02*
D03*
X142291Y713664D02*
D03*
X420751Y643230D02*
D03*
X406832Y691794D02*
D03*
X471500Y750265D02*
D03*
X435991Y771373D02*
D03*
X445008Y760984D02*
D03*
X502539Y451206D02*
D03*
X156489Y519760D02*
D03*
X324420Y689167D02*
D03*
X333273Y683158D02*
D03*
X376961Y668604D02*
D03*
X394462Y755015D02*
D03*
X392557Y763444D02*
D03*
X414376Y747243D02*
D03*
X238144Y801218D02*
D03*
X240055Y770915D02*
D03*
X278689Y690194D02*
D03*
X129349Y789940D02*
D03*
X257697Y506697D02*
D03*
X254918Y492322D02*
D03*
X258393D02*
D03*
X258161Y499452D02*
D03*
X254686D02*
D03*
X247115Y492322D02*
D03*
X254222Y506697D02*
D03*
X257581Y513537D02*
D03*
X246304D02*
D03*
X250686Y499452D02*
D03*
X250222Y506697D02*
D03*
X250107Y513537D02*
D03*
X250918Y492322D02*
D03*
X254106Y513537D02*
D03*
X246420Y506697D02*
D03*
X246883Y499452D02*
D03*
X251054Y463931D02*
D03*
X390449Y775970D02*
D03*
X223522Y513493D02*
D03*
X232463D02*
D03*
X228094D02*
D03*
X215902D02*
D03*
X242058D02*
D03*
X237796D02*
D03*
X219712D02*
D03*
X210898D02*
D03*
X223638Y506653D02*
D03*
X232579D02*
D03*
X228210D02*
D03*
X216018D02*
D03*
X242174D02*
D03*
X237912D02*
D03*
X219828D02*
D03*
X211014D02*
D03*
X224102Y499407D02*
D03*
X233042D02*
D03*
X228674D02*
D03*
X216482D02*
D03*
X242638D02*
D03*
X238376D02*
D03*
X220292D02*
D03*
X211478D02*
D03*
X211710Y492277D02*
D03*
X220523D02*
D03*
X238608D02*
D03*
X242869D02*
D03*
X216713D02*
D03*
X228905D02*
D03*
X233274D02*
D03*
X224333D02*
D03*
X344907Y629209D02*
D03*
X367462Y734187D02*
D03*
X342189Y718109D02*
D03*
X390458Y720995D02*
D03*
X304876Y440004D02*
D03*
X304775Y446557D02*
D03*
X304749Y451891D02*
D03*
X138963Y570306D02*
D03*
X349377Y688059D02*
D03*
X354635Y688315D02*
D03*
X359420Y688584D02*
D03*
X248361Y754558D02*
D03*
X135865Y953389D02*
D03*
X239090Y721055D02*
D03*
X396291Y722097D02*
D03*
X240005Y775995D02*
D03*
X393217Y818921D02*
D03*
X393294Y856869D02*
D03*
X346075Y867232D02*
D03*
X306070Y898246D02*
D03*
X329401Y830005D02*
D03*
X334442Y830351D02*
D03*
X368221Y765995D02*
D03*
X271270Y598832D02*
D03*
X315189Y596392D02*
D03*
X229184Y595859D02*
D03*
X272239Y573429D02*
D03*
X439344Y452628D02*
D03*
X337337Y689229D02*
D03*
X502539Y402285D02*
D03*
X504063Y425983D02*
D03*
X441630Y400507D02*
D03*
X438836Y425729D02*
D03*
X136988Y473185D02*
D03*
X379298Y458140D02*
D03*
X364411Y770995D02*
D03*
X294488Y828954D02*
D03*
X339395Y830351D02*
D03*
X314599Y830005D02*
D03*
X309524Y829691D02*
D03*
X256565Y801675D02*
D03*
X254746Y755714D02*
D03*
X250469Y766013D02*
D03*
X357099Y596646D02*
D03*
X252552Y761009D02*
D03*
X503885Y929735D02*
D03*
X498805Y954761D02*
D03*
X319340Y829935D02*
D03*
X324500Y830024D02*
D03*
X243942Y801167D02*
D03*
X132436Y651485D02*
D03*
X132604Y676570D02*
D03*
X129349Y814940D02*
D03*
X136093Y928370D02*
D03*
D107*
X363906Y891311D02*
D03*
X252019Y895909D02*
D03*
X376606Y899389D02*
D03*
X363804Y932104D02*
D03*
X353365Y866470D02*
D03*
X374066Y835609D02*
D03*
X469818Y837573D02*
D03*
X206629Y471805D02*
D03*
M02*
